<mxfile host="app.diagrams.net" modified="2023-06-03T20:39:32.582Z" agent="Mozilla/5.0 (X11; Linux x86_64) AppleWebKit/537.36 (KHTML, like Gecko) Chrome/113.0.0.0 Safari/537.36" etag="Gt33GbwLNgyfv3uyzMN6" version="21.3.7" type="github">
  <diagram id="C5RBs43oDa-KdzZeNtuy" name="Page-1">
    <mxGraphModel dx="1152" dy="662" grid="1" gridSize="10" guides="1" tooltips="1" connect="1" arrows="1" fold="1" page="1" pageScale="1" pageWidth="827" pageHeight="1169" math="0" shadow="0">
      <root>
        <mxCell id="WIyWlLk6GJQsqaUBKTNV-0" />
        <mxCell id="WIyWlLk6GJQsqaUBKTNV-1" parent="WIyWlLk6GJQsqaUBKTNV-0" />
        <mxCell id="9B6KL8iLZ4w8J-WxFcGn-1" value="" style="rounded=1;whiteSpace=wrap;html=1;fillColor=#f9f7ed;strokeColor=#36393d;gradientColor=none;" vertex="1" parent="WIyWlLk6GJQsqaUBKTNV-1">
          <mxGeometry x="653" y="369" width="156" height="125" as="geometry" />
        </mxCell>
        <mxCell id="9B6KL8iLZ4w8J-WxFcGn-2" value="" style="shape=image;verticalLabelPosition=bottom;labelBackgroundColor=default;verticalAlign=top;aspect=fixed;imageAspect=0;image=data:image/jpeg,/9j/4SG4RXhpZgAASUkqAAgAAAAGABoBBQABAAAAVgAAABsBBQABAAAAXgAAACgBAwABAAAAAgAAADEBAgAwAAAAZgAAADIBAgAUAAAAlgAAAGmHBAABAAAAqgAAABQBAAAsAQAAAQAAACwBAAABAAAAQWRvYmUgUGhvdG9zaG9wIExpZ2h0cm9vbSBDbGFzc2ljIDcuMiAoV2luZG93cykAMjAxOTowMToyMiAxNDoyMTozNwAFAACQBwAEAAAAMDIzMAOQAgAUAAAA7AAAAASQAgAUAAAAAAEAAJGSAgADAAAAMjkAAAGgAwABAAAAAQAAAAAAAAAyMDE5OjAxOjE2IDE0OjQ5OjAwADIwMTk6MDE6MTYgMTQ6NDk6MDAABgADAQMAAQAAAAYAAAAaAQUAAQAAAGIBAAAbAQUAAQAAAGoBAAAoAQMAAQAAAAIAAAABAgQAAQAAAHIBAAACAgQAAQAAAD4gAAAAAAAASAAAAAEAAABIAAAAAQAAAP/Y/9sAhAAGBAQEBQQGBQUGCQYFBgkLCAYGCAsMCgoLCgoMEAwMDAwMDBAMDAwMDAwMDAwMDAwMDAwMDAwMDAwMDAwMDAwMAQcHBw0MDRgQEBgUDg4OFBQODg4OFBEMDAwMDBERDAwMDAwMEQwMDAwMDAwMDAwMDAwMDAwMDAwMDAwMDAwMDAz/3QAEACD/7gAOQWRvYmUAZMAAAAAB/8AAEQgBAAEAAwARAAERAQIRAf/EAaIAAAAHAQEBAQEAAAAAAAAAAAQFAwIGAQAHCAkKCwEAAgIDAQEBAQEAAAAAAAAAAQACAwQFBgcICQoLEAACAQMDAgQCBgcDBAIGAnMBAgMRBAAFIRIxQVEGE2EicYEUMpGhBxWxQiPBUtHhMxZi8CRygvElQzRTkqKyY3PCNUQnk6OzNhdUZHTD0uIIJoMJChgZhJRFRqS0VtNVKBry4/PE1OT0ZXWFlaW1xdXl9WZ2hpamtsbW5vY3R1dnd4eXp7fH1+f3OEhYaHiImKi4yNjo+Ck5SVlpeYmZqbnJ2en5KjpKWmp6ipqqusra6voRAAICAQIDBQUEBQYECAMDbQEAAhEDBCESMUEFURNhIgZxgZEyobHwFMHR4SNCFVJicvEzJDRDghaSUyWiY7LCB3PSNeJEgxdUkwgJChgZJjZFGidkdFU38qOzwygp0+PzhJSktMTU5PRldYWVpbXF1eX1RlZmdoaWprbG1ub2R1dnd4eXp7fH1+f3OEhYaHiImKi4yNjo+DlJWWl5iZmpucnZ6fkqOkpaanqKmqq6ytrq+v/aAAwDAAABEQIRAD8A9U4q7FXYq7FXYq7FXYq7FXYq7FXYq7FXYq7FXYq7FXYq7FXYq7FXYq7FXYq7FXYq7FXYq7FXYq7FXYq7FX//0PVOKuxV2KuxV2KuxV2KuxV2KuxV2KuxV2KuxV2KuxV2KuxV2KuxV2KuxV2KuxV2KuxV2KuxV2KuxV2KuxV//9H1TirsVdirsVdirsVdirsVdirsVdirsVdirsVdirsVdirsVdirsVdirsVdirsVdirsVdirsVdirsVdirsVf//S9U4q7FXYq7FXYq7FXYq7FXYq7FXYq7FXYq7FXYq7FXYq7FXYq7FXYq7FXYq7FXYq7FXYq7FXYq7FXYq7FX//0/VOKuxV2KuxV2KuxV2KuxV2KuxV2KuxV2KuxV2KuxV2KuxV2KuxV2KuxV2KuxV2KuxV2KuxV2KuxV2KuxV//9T1TirsVdirsVdirsVdirsVdirsVdirsVdirsVdirsVdirsVdirsVdirsVdirsVdirsVdirsVdirsVdirsVf//V9U4q7FXYq7FXYq7FXYq7FXYq7FXYq7FXYq7FXYq7FXYq7FXYq7FXYq7FXYq7FXYq7FXYq7FXYq7FXYq7FX//1vVOKuxV2KuxV2KuxV2KuxV2KuxV2KuxV2KuJAFT0xVpWVgCpBB6EbjFVk9zb28ZkuJUhjHV5GCj7zTFWK6v+bH5faVyFzrMDuvVISZT/wAJUfjirDdV/wCcnPI1ryFnBcXbDoTxjX8Sx/DFWTflV+Zj+fbK/vV05rK2tJVihmLc1lLAlgDRd025f62Ks6xV2KuxV2KuxV2KuxV2KuxV2KuxV2KuxV//1/VOKuxV2KuxV2KuxV2KuxV2KsK/NP8ANTRfy80eG9v4nurq8do7KzjIUuyirMzH7KJUcjirwLVv+cuvOM5YabptjZJ+yWEk7j6SyL/wuFWJ6h/zkl+bF2Tx1gW4P7MEEKfjxLfjitJLN+cv5r3RoPMl+Sf2Uk4/goGK0s1fzH+akukS3Gq6/dGwIDG1u7px6616LGTVqdd/hwgFGzNfyP8AMnnPWtan8k6T5nk0eG8El9FLHbLPRlA5qpLL9XDL8QCfBmTqMeLHMxBlKv6rVilOUQSOF6xe/wDON2pao/qaz551G9c/arGv4cnfMUkdG4NW/wDzid5MVgbvWNUufEB4YwfujJ/HArI9I/5xz/KjTXDtpT37ruDeTSSiv+oCqH/gcVei2NhY6fax2ljbx2trEOMUEKBEUeyqAMVV8VdirsVdirsVdirsVdirsVdirsVdirsVf//Q9U4q7FXYq7FXYq7FXYq7FXVxV5t+dv5Qj8xtHsore8Wx1PTZHe1lkUtEyygB0cL8QrxUhhirwo/84h/mJ6tBqGmFK/b9Sb9XpYqnuj/84eakXB1fX4I0/aW2ieQ/e5QZIEKXpvlb/nHH8vNCKSSJNqNwv7c7BVr7KgX/AIlhMu4Ip35ieRfJrwRRnRrRhEhkTlEpPMGlSTu2382Y2aRbsUQ1+UUWnwo31extrSkpVPq8McXwFAStUANOXbM3WQhDLUfp4Y/7lpxkmFnveq5Ql2KuqMVcCMVdirsVdirsVYX53/N/yR5Mu47HV7p31CRQ/wBTtk9WRUPRn3VUB7cmxVMvJnn/AMsecLSS40W5MjQ0E9vKvpypXoWU9j/Mvw4qyLFXYq7FXYq7FXYq7FX/0fVOKuxV2KuxVquKtF8VWmQYq16oxVr1RirRmGKrHulUdcVUW1BR3wq0t7yO2KsY84RvdTJEjUkZeAqKjffxGU5I2W3GaSz8vtJazt5WMckIiuZAQwoHq32lJ/Z3OTJMjZ6INAUHpQJIybW6mKu4jG1bpgV2KuxV2KuxV8of85QeTL7TPOSeaEDSadrCJHJJ1EdxCgTgfAPGqsn+zxVh/wCW/nTUPLGu22p2bV9M8Z4a0WSI/bRvn/xLFX2ppGq2eraXa6lZvztbuNZYm9mHQ+46HFUXirsVdirsVdirsVf/0vVOKuxV2KuOKrGxVRYtiqmeRxVsIxxVsRNirTQtiqEuIJKbYpQJt5OW+NrSIgiKnrja0xbzxrMOmXFjdTKTEbiKAhdzzlbgn4nIHnbIHZR0+71y38xUnuUbTfW4LbrGSTFKnwsX4ijLIf5mXhmWMG1tJm9LQ1UHxygs28CuxV2KuxV2KuxV2KpV5p8saR5n0K60TVofWsrteLdmRhurof2XQ/EpxV8W+d/Ius+QfMz6VqIMlu9X0++Aok8NdmHg69JE/Zb/ACcVfRP/ADjf5ge98r3elyNU2EoeEHtHMCafQ6t/wWKvXsVdirsVdirsVdir/9P1TirsVdirsVQOuapBpGjX2qzqWhsIJLiRF6kRIXIHuaYq+M/MX/OQX5naxqL3EGqyaVbFqw2VmFREXsCxBdz4sxwrT2//AJx1/NLWfNsF/o+vzi61GxRZ7e6KhXkhY8WD8aBmRuPxU/bwK9q4DFW6DFWqDFVjoCMVQFwgBwFIUkqTQYEpbrXk+z12FrXUoVuLKQhniaoNVNVZWUhlZTurKeWEBBL58/Pb8xdG07Um0bQZjcX8Cxw3F36haOP0XEkapv8AFID9qQN/wWZRzjhoc2vw97L1b8q/zm0HUPJ+mDzRrVtB5haF5LhZSIfUVXYBl2WNm4j4lT9rKDudmXJP9F/N3y1qDFZ1lsSWIjaQBlK1oCeNSK/LExpAmzCz1GwvY/Us7iO4TxjYN+rIslVpKYVaEoxVUBBwK7FXYq7FWB/nXp3k26/L/UZvNYdbGzX1YLmFeVxFOTxjaH/KLHiQfgZft4VfIPkf8zta8leaba6tXnMMUw+v2wei3FuDRonBLRj+ZGVftft5bnxHHIxLDHPiFvuHyl5u0LzZokGs6LcCe0mFCOjxuPtRyL+y69xlLNOcVdirsVdirsVf/9T1TirsVdirsVSnzdpz6n5V1jT0FZLuyuIYx/lPEwX8cVfnqQQ/FgQw2IPUEdRhS9j/AOcYZZY/zMhRCeEtncLIPYBWH/DAYEPr3FXYq7FVrHCqCuRgKUNHIqEsxCqtSzE0AA6kk4Ar56/PL/nI0cZPLXlCf909Y7zVYzu4P7MBFfgr8Lt+3+x8P2nmrwzyv5fm1PU7cSJDcRXHqFo0lUOnVfsowdGB+L4siT3KHu2kfkmLny7FZSTLbIoLIohVviI6/GOfD5/E2XSoxA/6SYAkFj2pfl1590J2k05V1O0SoLWzBXAH80ZPEkfP+bK/WP6SkApZb/mPrejyek8csNzHQelIrRTV70rxr47Y+KOopHAehZVZf85I6vp9oZZJvr5RgjWc8bCQE1pVvtdv5v8Am2VhRxPUPL/50afd6VaX2q2bWf1tQ8RjYMpFBXZ+JrX+XnmPPUcJqia/mu60fY+TUQ4oShf8xn2ieYtH1dOVhdJMRu0YNHHzQ/Fk8eaM+RcPVaHNgNZImP8Auf8ATJtljiOxV2KsS/NGGCfyjPbzqrw3EsUTo4BUh24kEHbvl2CMTMCX0/sQSa2fGH5meU7byv5tudKtQ31WNI3tiwofTkWtNvBuS5RCVi2chRRv5Ufmdq/kTX1vLYmbTpyF1LTyaLLH/Mv8sqfsN/sfs5Ji+4NB13TNe0e11fS5hPY3iCSGQdd+qsOzKfhZf5sCo/FXYq7FXYq//9X1TirsVdirsVdir4V/OrymfK35l6tZKnp2VzJ9esj0X0rglqD/AFH5p/scVej/APOKekNN5k1TWCKxWVoIUft6lw4O3+wjOFX04JqnFCoGxS00gGKqbSjFUPM4IwK+a/8AnJD8zNZtrxfLGkNJHYsjDVJESSN2lqCqK/w8owvxfD8Lt9rI2Dszra3kfkbyZfa1f296rQXNmXf64XBk4mvHhxov7xq/D8eRlLoOaAOvR7Cv5C2bWKSwMljNCFNuCvZR9qQ164jGeh3QZBBW+o/mp5a5w2c0uq2Vtu0prPHtuAeX7xR/q8MnxSjzH+lY0DyLItL/AD40SO2SPWbA6fMXAuJIyGj5N9pypAfr/kv/AK2SjOMuqDEhD/mV5z8hN5YMqva61JcikCpxkYmoBkfj8aIjMC37XLBIpEXz1aW13qdz6FtJGLhY3eOGaQIAEWrKjsN+n2f9jkdosub1PWfIHn/WfJWhT6FbWmtaVFGk8j2Ny3rrJxowjhdgI/8AKVG5cv2cyNPMY79IlxHi9X/HUEkkVKUK/mpx+WWkfmQmv6RaajY3enWXLkupXFvIsqIN+Lupp1HEep/sszdScc4emI5fxf3mOX9DJ/F/nO10fbeXHGWPKfHgfp4v99H+F9QS6vptupM9zHGF+0XZVA+ZNMwPClV06niCWt548s0Po3sdwVPE+gwlANK0JTkK0wjDIoMgkEn5y+VGuWtLIz3N0kjQyItvOFV1QuQzsqqKqKr/ADZAxo0m0Z5oifX9Dt/RkUJ60NzxIoGCMHC7/RkbIZh4Z/zkj5Nu20/TvNEULFYP9Dv2A2CueULn25ck/wBkuVYQRsWeQgvn5NnBy5rfQn/OMXny4sNZbyvcuWsNTq9qp3Edyq1NP8mVF+L/ACuOKH1DgV2KuxV2Kv8A/9b1TirsVarireKuxV8sf85b30smvaVJZQFLrTInT60aUcysDwFf5P8AjfBaaRv/ADiT5niS11Ty1NEiXTyC8SRdmZOIQr/lBCP+Gw3utPosNvkmKr6lBkUqEs9MFpQrXB8cFppTackY2tMQ85Q6BrltcaHKbS51IIkjW0oV3SL1ADyp8UXPdFORnGwzjPheXXX5Ga1pBTUPLN8dMvE+MQwOQgPUCpqj/SMPDIci1khTb8wPP+kRjT/OFm1xAkn765gi9KSSKnXkvKNmrv8AYycctc9mBjfJlei/mT5O1qzi0nyzcC3vZN5LW6HoTEmpbdqgtX7TDLAQd0EUkP5l6T5I0LQnkv0VtTdS8bR8VmfjszBCV5IgPT7T/wCtlWUCXRnC3gFnbTatfR2tiYop3ZikTusStIqEsUaT4VeRV/u+Xw5H6RZZc9g6/wBXNskFjYQ266ikYjvb2Ff7w81lQAsWG3xRtTjzwRBJtJ2REMyWQeG+ku9L1OYwTwrah/3kUwJcqqcFXhTL4z3thw3s+n/y/wDMem+d/I9jpWrWV5Lf6db8ZZ1V02I9Jf3oYB5Kbn+Vl5ZstNnMZEwIHF9Qk0ZcWwEgn1p5LhtdIjs/RkuII04LFqEwmLrz/wB2mnJvHMnJqgbBr5NUcNIn/D+nxpAklvBGmw9OCAupYbAk70UD+bMCeUDk5Aij7bSSIrZJZ2pE1QkUnBaeDKoAp7ZizlZbBs1aatZzy3umryWTS50t5fUIq3qRq6P48HDfCx+0yv8Ay5SSyCZ3Ol6bq2lT6ZqMS3FjeI0M8LdGVhT7+4yMTumT5q8z/wDOLvne2114fLgi1LSJGJt7mWZIZI1P7MytuSv80fLlljB65+UH5B23k25j1nWLpb/W0UiBIgRBAWFCV5fFI9DTkeP+rgV6/irsVdirsVf/1/VOKuPTFVo64quxVpmAFT2xV8mf85Oa5Fd+dTp8JBjsoU9X/jLIoY1+S8cQE2wb8mvMK6D+ZmiXbvwgmnFpceHC4Hp/gzK2FX2y80SmhceA3xtFJdeeZtDteSz3sSun20B5Mv8ArKtSv05FNJJcfmF5ZF2bRLh5bkOIyiRS8VcmgDOVEa7/AOVkS248fEaSrUvzAvkuLe10vRZtRmuVkZZhIq28YjFf3siiQqT+z8PxZXOZDn4NFGRAJYh+fPmbXtN8paTJp2trpl1eP6eoi3aijmtQBJQyx8aNXBiyW06nAIE19N+niYH+V/mPyxpFve/W5G+r380E/wCkHdpJHf0wWjlais3pSbVX9psnIlxRT2mz1dZLdbmzlFxay14TQOHFKmh41IamASIQQi7rULOaD6vqdsstu4osirzRq/zKa8TvlgnfNgYMO81/kJoerW5vNLt/q9yR6iAE8D/q0+JP9jiYdY7IvveS+avyi84fUk1S4uSyaYJIudzLykCR1frKePFeit/L+zlZmY82fDfJgN9qtvZW9vYWtvBFrKq0V3qEJclVd6qFPJl9ZSvByiLyxAMj/RXl70y8leXNTutYsre1sRLNMJXiuXICI1SlS26vLXk3FuDL+z8WWX3IAvm+hvJv5U+XNOnbUNbt/wBK6k9CaikQIFKcf2gvbl/wOAwJZiYHJ6T9ZmaAW1pbLbQKAFRBSgHYBaDLIR4WuRtfFp9243rk7QiF0a564LVVj02VTRjgtVcaZEWZzGCzgK7gDkQtaAnuBU4FRVvY2lulY0UeJCgGv0AYaQrWTlmPzJwKjcCXYq7FXYq7FX//0PVOKtMaDFVPmMVXBxiq2VvgNMVfC35rX0t5+YPmGaQ1b69On0RuUX8FwhLDoJHiu4JUNHSRHUjrVWBGKvtrzTpn6T0+2unWRgkRkdY5PSNaKw3X4/tD9jIWWVDqx7SvJmlRW3+iaVb2qzVluQv1gc2YVoWZhy37YBxMvSntvosy2qIZ0hS3c+iIljWi1OwJq3TImJLZHIByCW3kdu+qJprG+eIwmcXYoIBQhPSLA/C9fj48fs4PDbfzRHIpNrf5XeQ9YkNzfrO93wVfU9V+grtTp3yuWIjkxOoMvqLDr/8AI/yyBxsNRvbXi3KOjK6KfEKy7H3By2ETW7ROQvZJdM/LTzzoOrwjy/5mghguZFjdbgelH/yL3RpG9ivJskQAxBspva/nVa6R5huPLXmZkY2z+lPqNspa3LkfEpI6cD8Lt9nlkKKSRb13y95w0W00FtROoxtofF5Xn5q0CINyQw3HyyyBYSD5e/Nj87dU8469LaaU0lh5XYNbwIVNbgkFTNIo/ap/dxfsr/lYyjag0k/k/wAnaprHmKz0m3hiur67eWSSX1aG3UbNJIY2Eqy8m5fvOP8AssfckDvfR/kT8oPMfl3TbfQpNYgn0GC4F0IFjKyc+QdhUirVYfaL5A45cV3szE41yevW+lWwUHiMuakStpCv2UAxVeqAdsKq6AYlV5RT1AyKtgAdBTFVkkMcg+Ib+I2P4Yq1FAkdePfFVTFXYq7FXYq7FX//0fVOKrJSQuAqgJJWBwWypT+tsMFrTTXpphtafL/5pfk55zu/O9/faJpxu9P1F/rKTB41VHcfvFbkwbZ6nphtFI/yH+QENvdQ6n5ku47uWFlki021PKPmu49WQgcqH9kDI8RPJlVPdLWKWa1idHMtS/7zr+2RxHsvHJRYlEDSrqQb1phVx8vzHcnG1Un0EqPibI2mkLNpEA6nfBxMqQUmk2qmpJOR4l4WJ+bvJS6vLaTQXz2RtWbmEBIdHpyHUCu3w1DZEm00xmbyH5ZiDW6abDKG2aSRechr35n4q/LLQwIefedfye1ewsp7/wAu+tLp9Ga70ss5Wh+0wUEc/wDW+3/rYUJR5A/LrX/Nf1W8iaC0gtawajLLcCzBjUcUkRVjb1JF/bdebcl/ZyJmAkRt7P8A844fl/qGgQ63qOsxE6vLcmzSd/iLQQAUcMdyr12/ycnHfdB7nusNtWhOG0I+NKDFV/HFWwgxVeBTArsVdirsVdirsVdirsVdirsVf//S9U4qtcVXFUFNCSemRZWhmhwJtr6uTgW1rW5IoVqQNskGKqNOhaOkkdQR0O4yaFZIo0AVVCqoooA2AGKERGBgSvZajAlCzw1BpgTaWzWTMTkSGVpddWEgBpkSEgpLd2zbqcgyU7DSoDLyZanJAoIZTa6Xb+nsgrTwy4NRedeb/JNxYyxT+X5ZNOVJnW4t4A5hkivG5MXjQqfgmHLkv7Pw/YwCItJOzKfyz0RdG8uJpRmluGtbidmmnILEzyGY0FSVRWcqiscmxZ1GtAMCqw2FTsB1OKpRqXnLynphIvtXtYGHVDKpb/gQS2ThjlI0EE0xm+/PX8trQkfpFpyP99ROfxbjhnjMedKDbHr7/nJ3yPASILW6nI9o0H4scgl6J5K836b5u8u2+uacrx285dfTlADK0bFWBoSOowKnuKuxV2KuxV2KuxV2KuxV/9P1TirsVaKjwxVY0MZ7YKVZ9XoaqfoONJtcIamrdPbEIbda+wwqs9LFV6rTFW6YpWlRgVTZFxV5R+eH5vQeQbW1tbS2S81vUFZ4I5CRFHEpoZHpu3xbKuCk2+cNU/Pj8yNQdidSFsrfsW8UaAfIkM344eALxFI5vzL89Smr67e1/wAmZl/4jTHhC8RUP8fedT/0vdQ/6SZf+asNItz+bPO14jxPrF9KjL8SNcykEA9N2xpbWjzB5qs53jurm4kt7lhPKjTSLHLIq8AX4MrMwWnE1wlAemfl5+bv5y3Fmvkzy0v6Sv7VHmSSULLdiDb9uduPFOXw7csCUdrXlz/nJfWSf0jYajOp/wB1m4iVP+ASRU/4XGltjr/k/wDnbIaHy7cCv/FkA/5mYUKtv/zj/wDnTdEA6OIa95rmBR+DtirKvLv/ADib51urmNtf1S10+0qDIluWuJqeAqEjB/2TYq+mfK/lvS/LWg2eiaXGY7KyThGGNWY1qzMe7MxLNgVNMVdirsVdirsVdirsVdir/9T1TirsVdirsVdirsVWnFXYq1XArq4q0TilaTir5/8A+clfym8z+aL/AE/X/L9ub57W3NrdWaECQAOXV0BI5faIYYQh863X5c+eraQxz6BfxsOtbaU/iFOKqll+W3nW5kCx6JemvjA6/iwGNpZ15e/5x38835Vp7NLND1a5lRf+FXm34YUPSNI/5xjiihJ1DWQj0/u7OIV+XqSf9U8Nqltz/wA41+XdSuBNDqt5BCQQYmKyOHWoqGI+yx+0Kf6uYpym24Yw9L/LL8pfKflHVP0pZxyzazNCYbm9mkL1FBUIpoEX4RlsJWwkKen8hljB3PFWueNIcHxpV4wJdirsVdirsVdirsVdirsVf//V9U4q7FXYq7FWsVdXFVpOKrS+BKwyYq16gxVr1BirRkGKqbyimBUrv5jxNDiljVzcS+rtXGltMLC5YAZJimRunSJ5DWiKWP0CuJ5KGM6Xq9tHK9vLyV0ZmZyCVKsSVIYVG+YR5uUGUadI8jRTwkNbsSfU6e1Bl2JqyJ+i1FcyGlfwGNq7gMbS2FGBW8VdirsVdirsVdirsVdirsVf/9b1TirsVdirsVaxVo4qpscCVGR8CqDSHFK31GwK7k2KtFmwqsflTAqBuYmYYpS17CrVIwWtK9vaqhrTDa0mLxIbC4FN/Sf/AIicJOyKY7BbxW8dqIvh5wrzIO7H3+/KJbBsHNkWmRoLLiNuJX4R265Zj5MJ807tCTCK9qjLWCtirsVdirsVdirsVdirsVdirsVdirsVf//X9U4q7FXYq7FXYqtIxVYy1wKpPETilT+rnBS24W2NLa8Www0trvqwxpbWtbjGlQ8tqMBCbQUlvQ9MiytZ6RHbAq9eQBHiN8KlB3Ghvc+i0czQsg6oF39viDY8ILHipM7XT/qtqVaRpGJBZmpU0+VB9wyYjSCbTGz/ALv6ThQiMVdirsVdirsVdirsVdirsVdirsVdir//0PVOKuxV2KuxV2KuxV1MVa4jFXcRirdBirqYq6mKuoMVWtGDiqg9oD0wUm1FrNh2rkaTbltIzUHY40trktm2VTTie+SCFSRJihVlBHYr/THdVS2jKR0PXChVxV2KuxV2KuxV2KuxV2KuxV2KuxV2Kv8A/9H1TirsVdirsVdirsVdirsVdirsVdirsVdirsVdirsVcQD1FcVaCgdBTFW8VdirsVdirsVdirsVdirsVdirsVdirsVdir//0vVOKuxV2KuxV2KuxV2KuxV2KuxV2KuxV2KuxV2KuxV2KuxV2KuxV2KuxV2KuxV2KuxV2KuxV2KuxV2KuxV//9P1TirsVdirsVdirsVdirsVdirsVdirsVdirsVdirsVdirsVdirsVdirsVdirsVdirsVdirsVdirsVdirsVf//U9U4q7FXYq7FXYq7FXYq7FXYq7FXYq7FXYq7FXYq7FXYq7FXYq7FXYq7FXYq7FXYq7FXYq7FXYq7FXYq7FX//1fVOKuxV2KuxV2KuxV2KuxV2KuxV2KuxV2KuxV2KuxV2KuxV2KuxV2KuxV2KuxV2KuxV2KuxV2KuxV2KuxV//9b1TirsVdirsVdirsVdirsVdirsVdirsVdirsVdirsVdirsVdirsVdirsVdirsVdirsVdirsVdirsVdirsVf//X/9n/7SD6UGhvdG9zaG9wIDMuMAA4QklNA+0AAAAAABABLAAAAAEAAQEsAAAAAQABOEJJTQQEAAAAAAA/HAFaAAMbJUccAgAAAgAEHAI3AAgyMDE5MDExNhwCPAAGMTQ0OTAwHAI+AAgyMDE5MDExNhwCPwAGMTQ0OTAwADhCSU0EDAAAAAAgWgAAAAEAAAEAAAABAAAAAwAAAwAAAAAgPgAYAAH/2P/bAIQABgQEBAUEBgUFBgkGBQYJCwgGBggLDAoKCwoKDBAMDAwMDAwQDAwMDAwMDAwMDAwMDAwMDAwMDAwMDAwMDAwMDAEHBwcNDA0YEBAYFA4ODhQUDg4ODhQRDAwMDAwREQwMDAwMDBEMDAwMDAwMDAwMDAwMDAwMDAwMDAwMDAwMDAwM/90ABAAg/+4ADkFkb2JlAGTAAAAAAf/AABEIAQABAAMAEQABEQECEQH/xAGiAAAABwEBAQEBAAAAAAAAAAAEBQMCBgEABwgJCgsBAAICAwEBAQEBAAAAAAAAAAEAAgMEBQYHCAkKCxAAAgEDAwIEAgYHAwQCBgJzAQIDEQQABSESMUFRBhNhInGBFDKRoQcVsUIjwVLR4TMWYvAkcoLxJUM0U5KismNzwjVEJ5OjszYXVGR0w9LiCCaDCQoYGYSURUaktFbTVSga8uPzxNTk9GV1hZWltcXV5fVmdoaWprbG1ub2N0dXZ3eHl6e3x9fn9zhIWGh4iJiouMjY6PgpOUlZaXmJmam5ydnp+So6SlpqeoqaqrrK2ur6EQACAgECAwUFBAUGBAgDA20BAAIRAwQhEjFBBVETYSIGcYGRMqGx8BTB0eEjQhVSYnLxMyQ0Q4IWklMlomOywgdz0jXiRIMXVJMICQoYGSY2RRonZHRVN/Kjs8MoKdPj84SUpLTE1OT0ZXWFlaW1xdXl9UZWZnaGlqa2xtbm9kdXZ3eHl6e3x9fn9zhIWGh4iJiouMjY6Pg5SVlpeYmZqbnJ2en5KjpKWmp6ipqqusra6vr/2gAMAwAAARECEQA/APVOKuxV2KuxV2KuxV2KuxV2KuxV2KuxV2KuxV2KuxV2KuxV2KuxV2KuxV2KuxV2KuxV2KuxV2KuxV2KuxV//9D1TirsVdirsVdirsVdirsVdirsVdirsVdirsVdirsVdirsVdirsVdirsVdirsVdirsVdirsVdirsVdirsVf//R9U4q7FXYq7FXYq7FXYq7FXYq7FXYq7FXYq7FXYq7FXYq7FXYq7FXYq7FXYq7FXYq7FXYq7FXYq7FXYq7FX//0vVOKuxV2KuxV2KuxV2KuxV2KuxV2KuxV2KuxV2KuxV2KuxV2KuxV2KuxV2KuxV2KuxV2KuxV2KuxV2KuxV//9P1TirsVdirsVdirsVdirsVdirsVdirsVdirsVdirsVdirsVdirsVdirsVdirsVdirsVdirsVdirsVdirsVf//U9U4q7FXYq7FXYq7FXYq7FXYq7FXYq7FXYq7FXYq7FXYq7FXYq7FXYq7FXYq7FXYq7FXYq7FXYq7FXYq7FX//1fVOKuxV2KuxV2KuxV2KuxV2KuxV2KuxV2KuxV2KuxV2KuxV2KuxV2KuxV2KuxV2KuxV2KuxV2KuxV2KuxV//9b1TirsVdirsVdirsVdirsVdirsVdirsVdiriQBU9MVaVlYAqQQehG4xVZPc29vGZLiVIYx1eRgo+80xViur/mx+X2lchc6zA7r1SEmU/8ACVH44qw3Vf8AnJzyNa8hZwXF2w6E8Y1/EsfwxVk35VfmY/n2yv71dOaytrSVYoZi3NZSwJYA0XdNuX+tirOsVdirsVdirsVdirsVdirsVdirsVdirsVf/9f1TirsVdirsVdirsVdirsVdirCvzT/ADU0X8vNHhvb+J7q6vHaOys4yFLsoqzMx+yiVHI4q8C1b/nLrzjOWGm6bY2SfslhJO4+ksi/8LhVieof85Jfmxdk8dYFuD+zBBCn48S344rSSzfnL+a90aDzJfkn9lJOP4KBitLNX8x/mpLpEtxquv3RsCAxtbu6ceuteixk1anXf4cIBRszX8j/ADJ5z1rWp/JOk+Z5NHhvBJfRSx2yz0ZQOaqSy/Vwy/EAnwZk6jHixzMQZSr+q1YpTlEEjhesXv8AzjdqWqP6ms+edRvXP2qxr+HJ3zFJHRuDVv8A84neTFYG71jVLnxAeGMH7oyfxwKyPSP+cc/yo01w7aU9+67g3k0kor/qAqh/4HFXotjYWOn2sdpY28draxDjFBCgRFHsqgDFVfFXYq7FXYq7FXYq7FXYq7FXYq7FXYq7FX//0PVOKuxV2KuxV2KuxV2KuxV1cVebfnb+UI/MbR7KK3vFsdT02R3tZZFLRMsoAdHC/EK8VIYYq8KP/OIf5ierQahphSv2/Um/V6WKp7o//OHmpFwdX1+CNP2ltonkP3uUGSBCl6b5W/5xx/LzQikkiTajcL+3OwVa+yoF/wCJYTLuCKd+YnkXya8EUZ0a0YRIZE5RKTzBpUk7tt/NmNmkW7FENflFFp8KN9Xsba0pKVT6vDHF8BQErVADTl2zN1kIQy1H6eGP+5acZJhZ73quUJdirqjFXAjFXYq7FXYq7FWF+d/zf8keTLuOx1e6d9QkUP8AU7ZPVkVD0Z91VAe3JsVTLyZ5/wDLHnC0kuNFuTI0NBPbyr6cqV6FlPY/zL8OKsixV2KuxV2KuxV2KuxV/9H1TirsVdirsVarirRfFVpkGKteqMVa9UYq0Zhiqx7pVHXFVFtQUd8KtLe8jtirGPOEb3UyRI1JGXgKio338RlOSNltxmks/L7SWs7eVjHJCIrmQEMKB6t9pSf2dzkyTI2eiDQFB6UCSMm1upiruIxtW6YFdirsVdirsVfKH/OUHky+0zzknmhA0mnawiRySdRHcQoE4HwDxqrJ/s8VYf8Alv501Dyxrttqdm1fTPGeGtFkiP20b5/8SxV9qaRqtnq2l2upWb87W7jWWJvZh0PuOhxVF4q7FXYq7FXYq7FX/9L1TirsVdirjiqxsVUWLYqpnkcVbCMcVbETYq00LYqhLiCSm2KUCbeTlvja0iIIip642tMW88azDplxY3UykxG4igIXc85W4J+JyB52yB2UdPu9ct/MVJ7lG031uC26xkkxSp8LF+IoyyH+Zl4ZljBtbSZvS0NVB8coLNvArsVdirsVdirsVdiqVeafLGkeZ9CutE1aH1rK7Xi3ZkYbq6H9l0PxKcVfFvnfyLrPkHzM+laiDJbvV9PvgKJPDXZh4OvSRP2W/wAnFX0T/wA43+YHvfK93pcjVNhKHhB7RzAmn0Orf8Fir17FXYq7FXYq7FXYq//T9U4q7FXYq7FUDrmqQaRo19qs6lobCCS4kRepESFyB7mmKvjPzF/zkF+Z2sai9xBqsmlWxasNlZhURF7AsQXc+LMcK09v/wCcdfzS1nzbBf6Pr84utRsUWe3uioV5IWPFg/GgZkbj8VP28CvauAxVugxVqgxVY6AjFUBcIAcBSFJKk0GBKW615Ps9dha11KFbiykIZ4mqDVTVWVlIZWU7qynlhAQS+fPz2/MXRtO1JtG0GY3F/AscNxd+oWjj9FxJGqb/ABSA/akDf8FmUc44aHNr8Pey9W/Kv85tB1Dyfpg80a1bQeYWheS4WUiH1FV2AZdljZuI+JU/ayg7nZlyT/Rfzd8tagxWdZbEliI2kAZStaAnjUivyxMaQJsws9RsL2P1LO4juE8Y2DfqyLJVaSmFWhKMVVAQcCuxV2KuxVgf516d5Nuvy/1GbzWHWxs19WC5hXlcRTk8Y2h/yix4kH4GX7eFXyD5H/M7WvJXmm2urV5zDFMPr9sHotxbg0aJwS0Y/mRlX7X7eW58RxyMSwxz4hb7h8pebtC82aJBrOi3AntJhQjo8bj7Uci/suvcZSzTnFXYq7FXYq7FX//U9U4q7FXYq7FUp83ac+p+VdY09BWS7sriGMf5TxMF/HFX56kEPxYEMNiD1BHUYUvY/wDnGGWWP8zIUQnhLZ3CyD2AVh/wwGBD69xV2KuxVaxwqgrkYClDRyKhLMQqrUsxNAAOpJOAK+evzy/5yNHGTy15Qn/dPWO81WM7uD+zARX4K/C7ft/sfD9p5q8M8r+X5tT1O3EiQ3EVx6haNJVDp1X7KMHRgfi+LIk9yh7tpH5Ji58uxWUky2yKCyKIVb4iOvxjnw+fxNl0qMQP+kmAJBY9qX5defdCdpNOVdTtEqC1swVwB/NGTxJHz/myv1j+kpAKWW/5j63o8npPHLDcx0HpSK0U1e9K8a+O2PijqKRwHoWVWX/OSOr6faGWSb6+UYI1nPGwkBNaVb7Xb+b/AJtlYUcT1Dy/+dGn3elWl9qtm1n9bUPEY2DKRQV2fia1/l55jz1HCaomv5rutH2Pk1EOKEoX/MZ9onmLR9XTlYXSTEbtGDRx80PxZPHmjPkXD1WhzYDWSJj/ALn/AEybZY4jsVdirEvzRhgn8oz286q8NxLFE6OAVIduJBB275dgjEzAl9P7EEmtnxh+ZnlO28r+bbnSrUN9VjSN7YsKH05FrTbwbkuUQlYtnIUUb+VH5nav5E19by2Jm06chdS08miyx/zL/LKn7Df7H7OSYvuDQdd0zXtHtdX0uYT2N4gkhkHXfqrDsyn4WX+bAqPxV2KuxV2Kv//V9U4q7FXYq7FXYq+Ffzq8pnyt+ZerWSp6dlcyfXrI9F9K4Jag/wBR+af7HFXo/wDzinpDTeZNU1gisVlaCFH7epcODt/sIzhV9OCapxQqBsUtNIBiqm0oxVDzOCMCvmv/AJyQ/MzWba8XyxpDSR2LIw1SREkjdpagqiv8PKML8Xw/C7fayNg7M62t5H5G8mX2tX9veq0FzZl3+uFwZOJrx4caL+8avw/HkZS6DmgDr0ewr+Qtm1iksDJYzQhTbgr2UfakNeuIxnod0GQQVvqP5qeWucNnNLqtlbbtKazx7bgHl+8Uf6vDJ8Uo8x/pWNA8iyLS/wA+NEjtkj1mwOnzFwLiSMho+TfacqQH6/5L/wCtkozjLqgxIQ/5lec/ITeWDKr2utSXIpAqcZGJqAZH4/GiIzAt+1ywSKRF89Wltd6nc+hbSRi4WN3jhmkCABFqyo7Dfp9n/Y5HaLLm9T1nyB5/1nyVoU+hW1prWlRRpPI9jct66ycaMI4XYCP/AClRuXL9nMjTzGO/SJcR4vV/x1BJJFSlCv5qcfllpH5kJr+kWmo2N3p1ly5LqVxbyLKiDfi7qadRxHqf7LM3UnHOHpiOX8X95jl/Qyfxf5ztdH23lxxljynx4H6eL/fR/hfUEur6bbqTPcxxhftF2VQPmTTMDwpVdOp4glreePLND6N7HcFTxPoMJQDStCU5CtMIwyKDIJBJ+cvlRrlrSyM9zdJI0MiLbzhVdULkM7Kqiqiq/wA2QMaNJtGeaIn1/Q7f0ZFCetDc8SKBgjBwu/0ZGyGYeGf85I+TbttP07zRFCxWD/Q79gNgrnlC59uXJP8AZLlWEEbFnkIL5+TZwcua30J/zjF58uLDWW8r3LlrDU6vaqdxHcqtTT/JlRfi/wArjih9Q4FdirsVdir/AP/W9U4q7FWq4q3irsVfLH/OW99LJr2lSWUBS60yJ0+tGlHMrA8BX+T/AI3wWmkb/wA4k+Z4ktdU8tTRIl08gvEkXZmTiEK/5QQj/hsN7rT6LDb5Jiq+pQZFKhLPTBaUK1wfHBaaU2nJGNrTEPOUOga5bXGhym0udSCJI1tKFd0i9QA8qfFFz3RTkZxsM4z4Xl11+RmtaQU1DyzfHTLxPjEMDkID1Aqao/0jDwyHItZIU2/MDz/pEY0/zhZtcQJJ++uYIvSkkip15LyjZq7/AGMnHLXPZgY3yZXov5k+Ttas4tJ8s3At72TeS1uh6ExJqW3aoLV+0wywEHdBFJD+Zek+SNC0J5L9FbU3UvG0fFZn47MwQleSID0+0/8ArZVlAl0Zwt4BZ202rX0drYmKKd2YpE7rErSKhLFGk+FXkVf7vl8OR+kWWXPYOv8AVzbJBY2ENuuopGI729hX+8PNZUALFht8UbU488EQSbSdkRDMlkHhvpLvS9TmME8K2of95FMCXKqnBV4Uy+M97YcN7Pp/8v8AzHpvnfyPY6Vq1leS3+nW/GWdVdNiPSX96GAeSm5/lZeWbLTZzGRMCBxfUJNGXFsBIJ9aeS4bXSI7P0ZLiCNOCxahMJi68/8AdppybxzJyaoGwa+TVHDSJ/w/p8aQJJbwRpsPTggLqWGwJO9FA/mzAnlA5OQIo+20kiK2SWdqRNUJFJwWngyqAKe2Ys5WWwbNWmrWc8t7pq8lk0udLeX1CKt6kauj+PBw3wsftMr/AMuUksgmdzpem6tpU+majEtxY3iNDPC3RlYU+/uMjE7pk+avM/8Azi753ttdeHy4ItS0iRibe5lmSGSNT+zMrbkr/NHy5ZYweuflB+Qdt5NuY9Z1i6W/1tFIgSIEQQFhQleXxSPQ05Hj/q4Fev4q7FXYq7FX/9f1Tirj0xVaOuKrsVaZgBU9sVfJn/OTmuRXfnU6fCQY7KFPV/4yyKGNfkvHEBNsG/JrzCug/mZol278IJpxaXHhwuB6f4MythV9svNEpoXHgN8bRSXXnmbQ7Xks97Erp9tAeTL/AKyrUr9ORTSSXH5heWRdm0S4eW5DiMokUvFXJoAzlRGu/wDlZEtuPHxGkq1L8wL5Li3tdL0WbUZrlZGWYSKtvGIxX97IokKk/s/D8WVzmQ5+DRRkQCWIfnz5m17TfKWkyadra6ZdXj+nqIt2oo5rUASUMsfGjVwYsltOpwCBNfTfp4mB/lf5j8saRb3v1uRvq9/NBP8ApB3aSR39MFo5WorN6Um1V/abJyJcUU9ps9XWS3W5s5RcWsteE0DhxSpoeNSGpgEiEEIu61Czmg+r6nbLLbuKLIq80av8ymvE75YJ3zYGDDvNf5CaHq1ubzS7f6vckeogBPA/6tPiT/Y4mHWOyL73kvmr8ovOH1JNUuLksmmCSLncy8pAkdX6ynjxXorfy/s5WZmPNnw3yYDfarb2Vvb2FrbwRayqtFd6hCXJVXeqhTyZfWUrwcoi8sQDI/0V5e9MvJXlzU7rWLK3tbESzTCV4rlyAiNUpUtury15Nxbgy/s/Fll9yAL5vobyb+VPlzTp21DW7f8ASupPQmopECBSnH9oL25f8DgMCWYmByek/WZmgFtaWy20CgBUQUoB2AWgyyEeFrkbXxafduN65O0IhdGueuC1VY9NlU0Y4LVXGmRFmcxgs4Cu4A5ELWgJ7gVOBUVb2NpbpWNFHiQoBr9AGGkK1k5Zj8ycCo3Al2KuxV2KuxV//9D1TirTGgxVT5jFVwcYqtlb4DTFXwt+a19LefmD5hmkNW+vTp9EblF/BcISw6CR4ruCVDR0kR1I61VgRir7a806Z+k9Ptrp1kYJEZHWOT0jWisN1+P7Q/YyFllQ6se0ryZpUVt/omlW9qs1ZbkL9YHNmFaFmYct+2AcTL0p7b6LMtqiGdIUt3PoiJY1otTsCat0yJiS2RyAcglt5HbvqiaaxvniMJnF2KCAUIT0iwPwvX4+PH7ODw2380RyKTa3+V3kPWJDc36zvd8FX1PVfoK7U6d8rliI5MTqDL6iw6//ACP8sgcbDUb214tyjoyuinxCsux9wcthE1u0TkL2SXTPy0886Dq8I8v+ZoIYLmRY3W4HpR/8i90aRvYrybJEAMQbKb2v51WukeYbjy15mZGNs/pT6jbKWty5HxKSOnA/C7fZ5ZCikkW9d8vecNFtNBbUTqMbaHxeV5+atAiDckMNx8ssgWEg+XvzY/O3VPOOvS2mlNJYeV2DW8CFTW4JBUzSKP2qf3cX7K/5WMo2oNJP5P8AJ2qax5is9Jt4Yrq+u3lkkl9Wht1GzSSGNhKsvJuX7zj/ALLH3JA730f5E/KDzH5d0230KTWIJ9BguBdCBYysnPkHYVIq1WH2i+QOOXFd7MxONcnr1vpVsFB4jLmpEraQr9lAMVXqgHbCqugGJVeUU9QMirYAHQUxVZJDHIPiG/iNj+GKtRQJHXj3xVUxV2KuxV2KuxV//9H1TiqyUkLgKoCSVgcFsqU/rbDBa0016aYbWny/+aX5Oec7vzvf32iacbvT9Rf6ykweNVR3H7xW5MG2ep6YbRSP8h/kBDb3UOp+ZLuO7lhZZItNtTyj5ruPVkIHKh/ZAyPETyZVT3S1ilmtYnRzLUv+86/tkcR7LxyUWJRA0q6kG9aYVcfL8x3JxtVJ9BKj4myNppCzaRAOp3wcTKkFJpNqpqSTkeJeFifm7yUury2k0F89kbVm5hASHR6ch1Art8NQ2RJtNMZm8h+WYg1ummwyhtmkkXnIa9+Z+Kvyy0MCHn3nX8ntXsLKe/8ALvrS6fRmu9LLOVoftMFBHP8A1vt/62FCUeQPy61/zX9VvImgtILWsGoyy3AswY1HFJEVY29SRf23Xm3Jf2ciZgJEbez/APOOH5f6hoEOt6jrMROry3Js0nf4i0EAFHDHcq9dv8nJx33Qe57rDbVoThtCPjSgxVfxxVsIMVXgUwK7FXYq7FXYq7FXYq7FXYq7FX//0vVOKrXFVxVBTQknpkWVoZocCba+rk4Fta1uSKFakDbJBiqjToWjpJHUEdDuMmhWSKNAFVQqqKKANgBihERgYEr2WowJQs8NQaYE2ls1kzE5EhlaXXVhIAaZEhIKS3ds26nIMlOw0qAy8mWpyQKCGU2ul2/p7IK08MuDUXnXm/yTcWMsU/l+WTTlSZ1uLeAOYZIrxuTF40Kn4Jhy5L+z8P2MAiLSTsyn8s9EXRvLiaUZpbhrW4nZppyCxM8hmNBUlUVnKorHJsWdRrQDAqsNhU7AdTiqUal5y8p6YSL7V7WBh1QyqW/4EEtk4Y5SNBBNMZvvz1/La0JH6Racj/fUTn8W44Z4zHnSg2x6+/5yd8jwEiC1upyPaNB+LHIJeieSvN+m+bvLtvrmnK8dvOXX05QAytGxVgaEjqMCp7irsVdirsVdirsVdirsVf/T9U4q7FWio8MVWNDGe2ClWfV6Gqn6DjSbXCGpq3T2xCG3WvsMKrPSxVeq0xVumKVpUYFU2RcVeUfnh+b0HkG1tbW0tkvNb1BWeCOQkRRxKaGR6bt8WyrgpNvnDVPz4/MjUHYnUhbK37FvFGgHyJDN+OHgC8RSOb8y/PUpq+u3tf8AJmZf+I0x4QvEVD/H3nU/9L3UP+kmX/mrDSLc/mzzteI8T6xfSoy/EjXMpBAPTdsaW1o8wearOd47q5uJLe5YTyo00ixyyKvAF+DKzMFpxNcJQHpn5efm7+ctxZr5M8tL+kr+1R5kklCy3Yg2/bnbjxTl8O3LAlHa15c/5yX1kn9I2Gozqf8AdZuIlT/gEkVP+FxpbY6/5P8A52yGh8u3Ar/xZAP+ZmFCrb/84/8A503RAOjiGvea5gUfg7Yqyry7/wA4m+dbq5jbX9UtdPtKgyJblriangKhIwf9k2Kvpnyv5b0vy1oNnomlxmOysk4RhjVmNaszHuzMSzYFTTFXYq7FXYq7FXYq7FXYq//U9U4q7FXYq7FXYq7FVpxV2KtVwK6uKtE4pWk4q+f/APnJX8pvM/mi/wBP1/y/bm+e1tza3VmhAkADl1dASOX2iGGEIfOt1+XPnq2kMc+gX8bDrW2lP4hTiqpZflt51uZAseiXpr4wOv4sBjaWdeXv+cd/PN+VaezSzQ9WuZUX/hV5t+GFD0jSP+cY4ooSdQ1kI9P7uziFfl6kn/VPDapbc/8AONfl3UrgTQ6reQQkEGJisjh1qKhiPssftCn+rmKcptuGMPS/yy/KXyn5R1T9KWccs2szQmG5vZpC9RQVCKaBF+EZbCVsJCnp/IZYwdzxVrnjSHB8aVeMCXYq7FXYq7FXYq7FXYq7FX//1fVOKuxV2KuxVrFXVxVaTiq0vgSsMmKteoMVa9QYq0ZBiqm8opgVK7+Y8TQ4pY1c3Evq7VxpbTCwuWAGSYpkbp0ieQ1oilj9ArieShjOl6vbRyvby8ldGZmcglSrElSGFRvmEeblBlGnSPI0U8JDW7En1OntQZdiasifotRXMhpX8Bjau4DG0thRgVvFXYq7FXYq7FXYq7FXYq7FX//W9U4q7FXYq7FWsVaOKqbHAlRkfAqg0hxSt9RsCu5NirRZsKrH5UwKgbmJmGKUtewq1SMFrSvb2qoa0w2tJi8SGwuBTf0n/wCInCTsimOwW8VvHaiL4ecK8yDux9/vyiWwbBzZFpkaCy4jbiV+EduuWY+TCfNO7Qkwivaoy1grYq7FXYq7FXYq7FXYq7FXYq7FXYq7FX//1/VOKuxV2KuxV2KrSMVWMtcCqTxE4pU/q5wUtuFtjS2vFsMNLa76sMaW1rW4xpUPLajAQm0FJb0PTIsrWekR2wKvXkAR4jfCpQdxob3PotHM0LIOqBd/b4g2PCCx4qTO10/6ralWkaRiQWZqVNPlQfcMmI0gm0xs/wC7+k4UIjFXYq7FXYq7FXYq7FXYq7FXYq7FXYq//9D1TirsVdirsVdirsVdTFWuIxV3EYq3QYq6mKupirqDFVrRg4qoPaA9MFJtRazYdq5Gk25bSM1B2ONLa5LZtlU04nvkghUkSYoVZQR2K/0x3VUtoykdD1woVcVdirsVdirsVdirsVdirsVdirsVdir/AP/R9U4q7FXYq7FXYq7FXYq7FXYq7FXYq7FXYq7FXYq7FXEA9RXFWgoHQUxVvFXYq7FXYq7FXYq7FXYq7FXYq7FXYq7FXYq//9L1TirsVdirsVdirsVdirsVdirsVdirsVdirsVdirsVdirsVdirsVdirsVdirsVdirsVdirsVdirsVdirsVf//T9U4q7FXYq7FXYq7FXYq7FXYq7FXYq7FXYq7FXYq7FXYq7FXYq7FXYq7FXYq7FXYq7FXYq7FXYq7FXYq7FX//1PVOKuxV2KuxV2KuxV2KuxV2KuxV2KuxV2KuxV2KuxV2KuxV2KuxV2KuxV2KuxV2KuxV2KuxV2KuxV2KuxV//9X1TirsVdirsVdirsVdirsVdirsVdirsVdirsVdirsVdirsVdirsVdirsVdirsVdirsVdirsVdirsVdirsVf//W9U4q7FXYq7FXYq7FXYq7FXYq7FXYq7FXYq7FXYq7FXYq7FXYq7FXYq7FXYq7FXYq7FXYq7FXYq7FXYq7FX//1//ZOEJJTQQlAAAAAAAQ0eS5Ak0ipmCIDAS2wSDK0f/iDFhJQ0NfUFJPRklMRQABAQAADEhMaW5vAhAAAG1udHJSR0IgWFlaIAfOAAIACQAGADEAAGFjc3BNU0ZUAAAAAElFQyBzUkdCAAAAAAAAAAAAAAAAAAD21gABAAAAANMtSFAgIAAAAAAAAAAAAAAAAAAAAAAAAAAAAAAAAAAAAAAAAAAAAAAAAAAAAAAAAAAAAAAAEWNwcnQAAAFQAAAAM2Rlc2MAAAGEAAAAbHd0cHQAAAHwAAAAFGJrcHQAAAIEAAAAFHJYWVoAAAIYAAAAFGdYWVoAAAIsAAAAFGJYWVoAAAJAAAAAFGRtbmQAAAJUAAAAcGRtZGQAAALEAAAAiHZ1ZWQAAANMAAAAhnZpZXcAAAPUAAAAJGx1bWkAAAP4AAAAFG1lYXMAAAQMAAAAJHRlY2gAAAQwAAAADHJUUkMAAAQ8AAAIDGdUUkMAAAQ8AAAIDGJUUkMAAAQ8AAAIDHRleHQAAAAAQ29weXJpZ2h0IChjKSAxOTk4IEhld2xldHQtUGFja2FyZCBDb21wYW55AABkZXNjAAAAAAAAABJzUkdCIElFQzYxOTY2LTIuMQAAAAAAAAAAAAAAEnNSR0IgSUVDNjE5NjYtMi4xAAAAAAAAAAAAAAAAAAAAAAAAAAAAAAAAAAAAAAAAAAAAAAAAAAAAAAAAAAAAAAAAAABYWVogAAAAAAAA81EAAQAAAAEWzFhZWiAAAAAAAAAAAAAAAAAAAAAAWFlaIAAAAAAAAG+iAAA49QAAA5BYWVogAAAAAAAAYpkAALeFAAAY2lhZWiAAAAAAAAAkoAAAD4QAALbPZGVzYwAAAAAAAAAWSUVDIGh0dHA6Ly93d3cuaWVjLmNoAAAAAAAAAAAAAAAWSUVDIGh0dHA6Ly93d3cuaWVjLmNoAAAAAAAAAAAAAAAAAAAAAAAAAAAAAAAAAAAAAAAAAAAAAAAAAAAAAAAAAAAAAGRlc2MAAAAAAAAALklFQyA2MTk2Ni0yLjEgRGVmYXVsdCBSR0IgY29sb3VyIHNwYWNlIC0gc1JHQgAAAAAAAAAAAAAALklFQyA2MTk2Ni0yLjEgRGVmYXVsdCBSR0IgY29sb3VyIHNwYWNlIC0gc1JHQgAAAAAAAAAAAAAAAAAAAAAAAAAAAABkZXNjAAAAAAAAACxSZWZlcmVuY2UgVmlld2luZyBDb25kaXRpb24gaW4gSUVDNjE5NjYtMi4xAAAAAAAAAAAAAAAsUmVmZXJlbmNlIFZpZXdpbmcgQ29uZGl0aW9uIGluIElFQzYxOTY2LTIuMQAAAAAAAAAAAAAAAAAAAAAAAAAAAAAAAAAAdmlldwAAAAAAE6T+ABRfLgAQzxQAA+3MAAQTCwADXJ4AAAABWFlaIAAAAAAATAlWAFAAAABXH+dtZWFzAAAAAAAAAAEAAAAAAAAAAAAAAAAAAAAAAAACjwAAAAJzaWcgAAAAAENSVCBjdXJ2AAAAAAAABAAAAAAFAAoADwAUABkAHgAjACgALQAyADcAOwBAAEUASgBPAFQAWQBeAGMAaABtAHIAdwB8AIEAhgCLAJAAlQCaAJ8ApACpAK4AsgC3ALwAwQDGAMsA0ADVANsA4ADlAOsA8AD2APsBAQEHAQ0BEwEZAR8BJQErATIBOAE+AUUBTAFSAVkBYAFnAW4BdQF8AYMBiwGSAZoBoQGpAbEBuQHBAckB0QHZAeEB6QHyAfoCAwIMAhQCHQImAi8COAJBAksCVAJdAmcCcQJ6AoQCjgKYAqICrAK2AsECywLVAuAC6wL1AwADCwMWAyEDLQM4A0MDTwNaA2YDcgN+A4oDlgOiA64DugPHA9MD4APsA/kEBgQTBCAELQQ7BEgEVQRjBHEEfgSMBJoEqAS2BMQE0wThBPAE/gUNBRwFKwU6BUkFWAVnBXcFhgWWBaYFtQXFBdUF5QX2BgYGFgYnBjcGSAZZBmoGewaMBp0GrwbABtEG4wb1BwcHGQcrBz0HTwdhB3QHhgeZB6wHvwfSB+UH+AgLCB8IMghGCFoIbgiCCJYIqgi+CNII5wj7CRAJJQk6CU8JZAl5CY8JpAm6Cc8J5Qn7ChEKJwo9ClQKagqBCpgKrgrFCtwK8wsLCyILOQtRC2kLgAuYC7ALyAvhC/kMEgwqDEMMXAx1DI4MpwzADNkM8w0NDSYNQA1aDXQNjg2pDcMN3g34DhMOLg5JDmQOfw6bDrYO0g7uDwkPJQ9BD14Peg+WD7MPzw/sEAkQJhBDEGEQfhCbELkQ1xD1ERMRMRFPEW0RjBGqEckR6BIHEiYSRRJkEoQSoxLDEuMTAxMjE0MTYxODE6QTxRPlFAYUJxRJFGoUixStFM4U8BUSFTQVVhV4FZsVvRXgFgMWJhZJFmwWjxayFtYW+hcdF0EXZReJF64X0hf3GBsYQBhlGIoYrxjVGPoZIBlFGWsZkRm3Gd0aBBoqGlEadxqeGsUa7BsUGzsbYxuKG7Ib2hwCHCocUhx7HKMczBz1HR4dRx1wHZkdwx3sHhYeQB5qHpQevh7pHxMfPh9pH5Qfvx/qIBUgQSBsIJggxCDwIRwhSCF1IaEhziH7IiciVSKCIq8i3SMKIzgjZiOUI8Ij8CQfJE0kfCSrJNolCSU4JWgllyXHJfcmJyZXJocmtyboJxgnSSd6J6sn3CgNKD8ocSiiKNQpBik4KWspnSnQKgIqNSpoKpsqzysCKzYraSudK9EsBSw5LG4soizXLQwtQS12Last4S4WLkwugi63Lu4vJC9aL5Evxy/+MDUwbDCkMNsxEjFKMYIxujHyMioyYzKbMtQzDTNGM38zuDPxNCs0ZTSeNNg1EzVNNYc1wjX9Njc2cjauNuk3JDdgN5w31zgUOFA4jDjIOQU5Qjl/Obw5+To2OnQ6sjrvOy07azuqO+g8JzxlPKQ84z0iPWE9oT3gPiA+YD6gPuA/IT9hP6I/4kAjQGRApkDnQSlBakGsQe5CMEJyQrVC90M6Q31DwEQDREdEikTORRJFVUWaRd5GIkZnRqtG8Ec1R3tHwEgFSEtIkUjXSR1JY0mpSfBKN0p9SsRLDEtTS5pL4kwqTHJMuk0CTUpNk03cTiVObk63TwBPSU+TT91QJ1BxULtRBlFQUZtR5lIxUnxSx1MTU19TqlP2VEJUj1TbVShVdVXCVg9WXFapVvdXRFeSV+BYL1h9WMtZGllpWbhaB1pWWqZa9VtFW5Vb5Vw1XIZc1l0nXXhdyV4aXmxevV8PX2Ffs2AFYFdgqmD8YU9homH1YklinGLwY0Njl2PrZEBklGTpZT1lkmXnZj1mkmboZz1nk2fpaD9olmjsaUNpmmnxakhqn2r3a09rp2v/bFdsr20IbWBtuW4SbmtuxG8eb3hv0XArcIZw4HE6cZVx8HJLcqZzAXNdc7h0FHRwdMx1KHWFdeF2Pnabdvh3VnezeBF4bnjMeSp5iXnnekZ6pXsEe2N7wnwhfIF84X1BfaF+AX5ifsJ/I3+Ef+WAR4CogQqBa4HNgjCCkoL0g1eDuoQdhICE44VHhauGDoZyhteHO4efiASIaYjOiTOJmYn+imSKyoswi5aL/IxjjMqNMY2Yjf+OZo7OjzaPnpAGkG6Q1pE/kaiSEZJ6kuOTTZO2lCCUipT0lV+VyZY0lp+XCpd1l+CYTJi4mSSZkJn8mmia1ZtCm6+cHJyJnPedZJ3SnkCerp8dn4uf+qBpoNihR6G2oiailqMGo3aj5qRWpMelOKWpphqmi6b9p26n4KhSqMSpN6mpqhyqj6sCq3Wr6axcrNCtRK24ri2uoa8Wr4uwALB1sOqxYLHWskuywrM4s660JbSctRO1irYBtnm28Ldot+C4WbjRuUq5wro7urW7LrunvCG8m70VvY++Cr6Evv+/er/1wHDA7MFnwePCX8Lbw1jD1MRRxM7FS8XIxkbGw8dBx7/IPci8yTrJuco4yrfLNsu2zDXMtc01zbXONs62zzfPuNA50LrRPNG+0j/SwdNE08bUSdTL1U7V0dZV1tjXXNfg2GTY6Nls2fHadtr724DcBdyK3RDdlt4c3qLfKd+v4DbgveFE4cziU+Lb42Pj6+Rz5PzlhOYN5pbnH+ep6DLovOlG6dDqW+rl63Dr++yG7RHtnO4o7rTvQO/M8Fjw5fFy8f/yjPMZ86f0NPTC9VD13vZt9vv3ivgZ+Kj5OPnH+lf65/t3/Af8mP0p/br+S/7c/23////hCfFodHRwOi8vbnMuYWRvYmUuY29tL3hhcC8xLjAvADw/eHBhY2tldCBiZWdpbj0i77u/IiBpZD0iVzVNME1wQ2VoaUh6cmVTek5UY3prYzlkIj8+Cjx4OnhtcG1ldGEgeG1sbnM6eD0iYWRvYmU6bnM6bWV0YS8iIHg6eG1wdGs9IkFkb2JlIFhNUCBDb3JlIDUuNi1jMTQwIDc5LjE2MDQ1MSwgMjAxNy8wNS8wNi0wMTowODoyMSAgICAgICAgIj4KIDxyZGY6UkRGIHhtbG5zOnJkZj0iaHR0cDovL3d3dy53My5vcmcvMTk5OS8wMi8yMi1yZGYtc3ludGF4LW5zIyI+CiAgPHJkZjpEZXNjcmlwdGlvbiByZGY6YWJvdXQ9IiIKICAgIHhtbG5zOnhtcD0iaHR0cDovL25zLmFkb2JlLmNvbS94YXAvMS4wLyIKICAgIHhtbG5zOnBob3Rvc2hvcD0iaHR0cDovL25zLmFkb2JlLmNvbS9waG90b3Nob3AvMS4wLyIKICAgIHhtbG5zOnhtcE1NPSJodHRwOi8vbnMuYWRvYmUuY29tL3hhcC8xLjAvbW0vIgogICAgeG1sbnM6c3RSZWY9Imh0dHA6Ly9ucy5hZG9iZS5jb20veGFwLzEuMC9zVHlwZS9SZXNvdXJjZVJlZiMiCiAgICB4bWxuczpkYz0iaHR0cDovL3B1cmwub3JnL2RjL2VsZW1lbnRzLzEuMS8iCiAgIHhtcDpSYXRpbmc9IjEiCiAgIHhtcDpDcmVhdG9yVG9vbD0iQWRvYmUgUGhvdG9zaG9wIExpZ2h0cm9vbSBDbGFzc2ljIDcuMiAoV2luZG93cykiCiAgIHhtcDpDcmVhdGVEYXRlPSIyMDE5LTAxLTE2VDE0OjQ5OjAwIgogICB4bXA6TW9kaWZ5RGF0ZT0iMjAxOS0wMS0yMlQxNDoyMTozNyswMTowMCIKICAgeG1wOk1ldGFkYXRhRGF0ZT0iMjAxOS0wMS0yMlQxNDoyMTozNyswMTowMCIKICAgcGhvdG9zaG9wOkRhdGVDcmVhdGVkPSIyMDE5LTAxLTE2VDE0OjQ5OjAwLjAyOSIKICAgeG1wTU06RG9jdW1lbnRJRD0ieG1wLmRpZDo2NjM4ODU2My1jODdiLTYzNDctYmQwNC03MmM4N2QzNzQzODAiCiAgIHhtcE1NOk9yaWdpbmFsRG9jdW1lbnRJRD0iRENEMzU3QjFDOENFRjk0MkZFOEQ3NjdCMDU3RkY1RkIiCiAgIHhtcE1NOkluc3RhbmNlSUQ9InhtcC5paWQ6NjYzODg1NjMtYzg3Yi02MzQ3LWJkMDQtNzJjODdkMzc0MzgwIgogICBkYzpmb3JtYXQ9ImltYWdlL2pwZWciPgogICA8cGhvdG9zaG9wOkRvY3VtZW50QW5jZXN0b3JzPgogICAgPHJkZjpCYWc+CiAgICAgPHJkZjpsaT54bXAuZGlkOjk5NzYyNmU0LTAyM2UtNjI0Yy04OTU3LWRmODNmZDcxZjE1MzwvcmRmOmxpPgogICAgPC9yZGY6QmFnPgogICA8L3Bob3Rvc2hvcDpEb2N1bWVudEFuY2VzdG9ycz4KICAgPHhtcE1NOkRlcml2ZWRGcm9tCiAgICBzdFJlZjppbnN0YW5jZUlEPSJ4bXAuaWlkOjI0MmUwZDRmLTk0OGYtMzc0ZC05M2EzLWYwMTcwNjc3MGQ4YyIKICAgIHN0UmVmOmRvY3VtZW50SUQ9ImFkb2JlOmRvY2lkOnBob3Rvc2hvcDphMTY1YTBmYi01MWQzLWVjNGItOWQ0Ni05ODljZDhlNGIzYTMiCiAgICBzdFJlZjpvcmlnaW5hbERvY3VtZW50SUQ9IkRDRDM1N0IxQzhDRUY5NDJGRThENzY3QjA1N0ZGNUZCIi8+CiAgPC9yZGY6RGVzY3JpcHRpb24+CiA8L3JkZjpSREY+CjwveDp4bXBtZXRhPgogICAgICAgICAgICAgICAgICAgICAgICAgICAgICAgICAgICAgICAgICAgICAgICAgICAgICAgICAgICAgICAgICAgICAgICAgICAgICAgICAgICAgICAgICAgICAgICAgICAgCiAgICAgICAgICAgICAgICAgICAgICAgICAgICAgICAgICAgICAgICAgICAgICAgICAgICAgICAgICAgICAgICAgICAgICAgICAgICAgICAgICAgICAgICAgICAgICAgICAgICAKICAgICAgICAgICAgICAgICAgICAgICAgICAgICAgICAgICAgICAgICAgICAgICAgICAgICAgICAgICAgICAgICAgICAgICAgICAgICAgICAgICAgICAgICAgICAgICAgICAgIAogICAgICAgICAgICAgICAgICAgICAgICAgICAgICAgICAgICAgICAgICAgICAgICAgICAgICAgICAgICAgICAgICAgICAgICAgICAgICAgICAgICAgICAgICAgICAgICAgICAgCiAgICAgICAgICAgICAgICAgICAgICAgICAgICAgICAgICAgICAgICAgICAgICAgICAgICAgICAgICAgICAgICAgICAgICAgICAgICAgICAgICAgICAgICAgICAgICAgICAgICAKICAgICAgICAgICAgICAgICAgICAgICAgICAgICAgICAgICAgICAgICAgICAgICAgICAgICAgICAgICAgICAgICAgICAgICAgICAgICAgICAgICAgICAgICAgICAgICAgICAgIAogICAgICAgICAgICAgICAgICAgICAgICAgICAgICAgICAgICAgICAgICAgICAgICAgICAgICAgICAgICAgICAgICAgICAgICAgICAgICAgICAgICAgICAgICAgICAgICAgICAgCiAgICAgICAgICAgICAgICAgICAgICAgICAgICAgICAgICAgICAgICAgICAgICAgICAgICAgICAgICAgICAgICAgICAgICAgICAgICAgICAgICAgICAgICAgICAgICAgICAgICAKICAgICAgICAgICAgICAgICAgICAgICAgICAgICAgICAgICAgICAgICAgICAgICAgICAgICAgICAgICAgICAgICAgICAgICAgICAgICAgICAgICAgICAgICAgICAgICAgICAgIAogICAgICAgICAgICAgICAgICAgICAgICAgICAgICAgICAgICAgICAgICAgICAgICAgICAgICAgICAgICAgICAgICAgICAgICAgICAgICAgICAgICAgICAgICAgICAgICAgICAgCiAgICAgICAgICAgICAKPD94cGFja2V0IGVuZD0idyI/Pv/bAIQAAQEBAQEBAQEBAQEBAQEBAQEBAQEBAQEBAQEBAQEBAQEBAQEBAQEBAQEBAQICAgICAgICAgICAwMDAwMDAwMDAwEBAQEBAQEBAQEBAgIBAgIDAwMDAwMDAwMDAwMDAwMDAwMDAwMDAwMDAwMDAwMDAwMDAwMDAwMDAwMDAwMDAwMD/90ABABK/+4ADkFkb2JlAGTAAAAAAf/AABEIAkkCSQMAEQABEQECEQH/xADCAAEAAAUFAQAAAAAAAAAAAAAAAwQFBgoBAgcICQsBAQACAwEBAQEAAAAAAAAAAAABAgMEBQYHCAkQAAECBQIEBAMGBAUDAgcAAwECAwAEBQYRByEIEjFBEyJRYQkUcRUygZGh8AoWQrEjUsHR4Rdi8SQzGCUmNENygjVj4hEAAgECBAMFBgQEBAQFBAMAAAECAxEEEiExBUFRBhMiYXEygZGhsfAHFMHRI0JS4QgVM2IWJHLxU5KywtIJF0OCJTWi/9oADAMAAAERAhEAPwDP4gBACAEAIAQAgBACAEAIAQAgBACAEAIAQAgBACAEAIAQAgBACAEAIAQAgBACAEAIAQAgBACAEAIAQAgBACAEAIAQAgBACAEAIAQAgBACAEAIAQAgBACAEAIAQAgBACAEAIAQAgBAH//Qz+IAQAgBACAEAIAQAgBACAEAIAQAgBACAEAIAQAgBACAEAIAQAgBACAEAIAQAgBACAEAIAQAgBACAEAIAQAgBACAEAIAQAgBACAEAIAQAgBACAEAIAQAgBACAEAIAQAgBACAEAIAQB//0c/iAEAIAQAgBACAEAIAQAgBACAEAIAQAgBACAEAIAQAgBACAEAIAQAgBACAEAIAQAgBACAEAIAQAgBACAEAIAQAgBACAEAIAQAgBACAEAIAQAgBACAEAIAQAgBACAEAIAQAgBACAEAf/9LP4gBACAEAIAQAgBACAEAIAQAgBACAEAIAQAgBACAEAIAQAgBACAEAIAQAgBACAEAIAQAgBACAEAIAQAgBACAEAIAQAgBACAEAIAQAgBACAEAIAQAgBACAEAIAQAgBACAEAIAQAgBAH//Tz+IAQAgBACAEAIAQAgBACAEAIAQAgBACAEAIAQAgBACAEAIAQAgBACAEAIAQAgBACAEAIAQAgBACAEAIAQAgBACAEAIAQAgBACAEAIAQAgBACAEAIAQAgBACAEAIAQAgBACAEAIAQB//1M/iAEAIAQAgBACAEAIAQAgBACAEAIAQAgBACAEAIAQAgBACAEAIAQAgBACAEAIAQAgBACAEAIAQAgBACAEAIAQAgBACAEAIAQAgBACAEAIAQAgBACAEAIAQAgBACAEAIAQAgBACAEAf/9XP4gBACAEAIAQAgBACAEAIAQAgBACAEAIAQAgBACAEAIAQAgBACAEAIAQAgBACAEAIAQAgBACAEAIAQAgBACAEAIAQAgBACAEAIAQAgBACAEAIAQAgBACAEAIAQAgBACAEAIAQAgBAH//Wz+IAQAgBACAEAIAQAgBACAEAIAQAgBACAEAIAQAgBACAEAIAQAgBACAEAIAQAgBACAEAIAQAgBACAEAIAQAgBACAEAIAQAgBACAEAIAQAgBACAEAIAQAgBACAEAIAQAgBACAEAIAQB//18/iAEAIAQAgBACAEAIAQAgBACAEAIAQAgBACAEAIAQAgBACAEAIAQAgBACAEAIAQAgBACAEAIAQAgBACAEAIAQAgBACAEAIAQAgBACAEAIAQAgBACAEAIAQAgBACAEAIAQAgBACAEAf/9DP4gBACAEAIAQAgBACAEAIAQAgBACAEAIAQAgBACAEAIAQAgBACAEAIAQAgBACAEAIAQAgBACAEAIAQAgBACAEAIAQAgBACAEAIAQAgBACAEAIAQAgBACAEAIAQAgBACAEAIAQAgBAH//Rz+IAQAgBACAEAIAQAgBACAEAIAQAgBACAEAIAQAgBACAEAIAQAgBACAEAIAQAgBACAEAIAQAgBACAEAIAQAgBACAEAIAQAgBACAEAIAQAgBACAEAIAQAgBACAEAIAQAgBACAEAIAQB//0s/iAEAIAQAgBACAEAIAQAgBACAEAIAQAgBACAEAIAQAgBACAEAIAQAgBACAEAIAQAgBACAEAIAQAgBACAEAIAQAgBACAEAIAQAgBACAEAIAQAgBACAEAIAQAgBACAEAIAQAgBACAEAf/9PP4gBACAEAIAQAgBACAEAIAQAgBACAEAIAQAgBACAEAIAQAgBACAEAIAQAgBACAEAIAQAgBACAEAIAQAgBACAEAIAQAgBACAEAIAQAgBACAEAIAQAgBACAEAIAQAgBACAEAIAQAgBAH//Uz+IAQAgBACAEAIAQAgBACAEAIAQAgBACAEAIAQAgBACAEAIAQAgBACAEAIAQAgBACAEAIAQAgBACAEAIAQAgBACAEAIAQAgBACAEAIAQAgBACAEAIAQAgBACAEAIAQAgBACAEAIAQB//1c/iAEAIAQAgBACAEAIAQAgBACAEAIAQAgBACAEAIAQAgBACAEAIAQAgBACAEAIAQAgBACAEAIAQAgBACAEAIAQAgBACAEAIAQAgBACAEAIAQAgBACAEAIAQAgBACAEAIAQAgBACAEAf/9bP4gBACAEAIAQAgBACAEAIAQAgBACAEAIAQAgBACAEAIAQAgBACAEAIAQAgBACAEAIAQAgBACAEAIAQAgBACAEAIAQAgBACAEAIAQAgBACAEAIAQAgBACAEAIAQAgBACAEAIAQAgBAH//Xz+IAQAgBACAEAIAQAgBACAEAIAQAgBACAEAIAQAgBACAEAIAQAgBACAEAIAQAgBACAEAIAQAgBACAGQPx2/GAEAIAQAgBACAEAIAQAgBACAEAIAQAgBACAEAIAQAgBACAEAIAQAgBACAEAIA/9DP4gBACAEAIAQAgBACAEAIAQAgBACAEAIAQAgBACAEAIAQAgBACAEAIAQAgBACAEAIAQBI1Cp02kyy5yq1CRpkm2CpyaqE3LyUs2kDJK35lbbSAB6mJSb2RDaW7OoWpfxBuDjSf5pq7NerGXPShWl+lW7UDdVTQ4g4U0qVt9uocjvNtyrKTE5Xu2rffQq6i5Jt+Sf/AG+Z57amfH34SbPMwzaFv3xe77aVlmYfRTLZpzhSDglc7NTU+lJI7y4MMtutuuy+f7Fc9SV8lLXzf7X95546mfxKNwoS+1YGlVj0D7wZmK9VarcsxjJAUWZY0SXyMj1H+qz00Xxv9LEuNV2cZxXXS/w1POfVP+IM4ubuTMt07Uhq05V0OI8Cz6FSKPypUCB4c2ZebqSeXG2Hwd+sTq7JaDu72zTk18PpY83NQ/iWa/35Nuz9f1h1MqD4Wt5D8xqBdaHGVZKy8ypurNJly2TsUBISOmIhq1lfbzDoUrWlTT9dfrcz7vg93trPqP8ADk4ZL415qFdq993JadXqUtWLndemLjrFjOXXXk6b1WtTUz/6uenKhYiKe6Jl4rfmWlIdcUpa1KNd7PmKaUY2Xs3dvS/3byPS+BkEAIAQAgBACAEAIAQAgBACAEAIAQAgBACAEAIAQAgBACAEAIAQAgBACAP/0c/iAEAIAQAgBACAEAaf2/WAHqR+H794A0QVEZUnlO4Iznv1z9Il25A3RAEAIAQAgBACAEAIAQAgBACAITzzMu2p191phpAyt15xDTaR6qWspSkfUxKTbsldjY4Mv7il4Z9KkrVqZxCaKWAWworbvDVGybeeAT97/AqlblnzjPZJjJ3NW1+7aXmrfUxOvRUsnexz9Lq/wOnF7/Gi+Fpp/wCImuca+jE+61zczFnVWpX+7lPVIFj0u4U82egzvDuZbuUUv+pfRO/yI7+F7RjN+kZfW1vmdYrm/iRfhN28F/K633rdTiCQG7a0X1Pc8QjOPDerVuUSVPNy7ZcAgqcedaK90v0iyHVmknHDVJf+Vf8Aqkjr/X/4qn4blKWtFKtLiauNKM4ek9OLUpzS8dMfbOocg6Mj1SIs6VJK/fpvyUv1SHeV3thJWt1h/wDJnFFU/i3uBuVCzTeH7ieqQRjzvSWlVPb83TmV/wBR5tTeSR1TBU6VryqS90U//ciW8Q/ZoR98rfRMsGofxfvCnLKfErwpa8vhgZV83dOnMksg9MJaqU8FZBB8pVsc/WcmGt/q1L/9C/8AmVzYr/waf/nf/wADotxR/wAVvxBapKocnwa6eaf8OdiTJplPuvVXWssajV6gT9UqLEi9VXJGltLt2iW1RQ9zvqNPq846hKlJQ2QEGG6UH4I5vOei+EX8236DJiJ2dSooR00hq/PxSjs+iin59KZoT/EYcc3DrxWy+lHFPqvw18ZWg0rfFo2veWquizVtsU6Xo11SVHm5q5dNdQLPk7bt6trtNuvBU/KVCnONrfkX5QPy68vpq53j/EoRjLrF/wB2n8n6FlFxvOnWlOKezS1t00T9L6fUy49ZPircAGhaZlu9uJjT2bqUqFeLQ7MqC75rCVpRz+E7LWu1Um5VxQ6B5xsfSJdGUfbaj6vX4K7+RbvE3aMW35LT46L5nkZrZ/E/cMVqCZlNHNMLqvuabU4hmq3jVqdaFIXjmCHUSVOFw1V1BIzyrDBI7g9IyQS0k2/h+7+Q/jt6U1Febu/gv3PHzW7+Jn4rb2+bk7GqFoaWyC1uBlNnW9LzVRS0rKUtrrFzOVl5TqQR52m2dxkD0lLokvn9fnoi3dyftVH6Wt/f5nkVq78UDiI1fmX3r71UvW6i86pwt125KtUZZKldSxIuTJkpZI9ENJSO0LvZyexKpRXJfX6nUut8TN5VLPiVd9KTzDZxwBQPTfxNsZ/WI0L2WnkcZ1HWOsTilePVF4VseaZUMkn/ALliIdloloTpsTFrMan6m1Rmi2BaN8X/AFmaWG2KXZdr3BdVReUrYIak6HI1B9xas7eXO8UlWpQajKpFP1QutT0W0U+DR8VniAXKOWnwganWrSZp5ptVf1fTTdH6ewy6QPmly+oNQoVcmpZsbq+Wk314/pJwIr38XdQi37rfN2RF/IyQ+AL+FnpVk3PbupfH3qZQtTPsSaZqjOgWmRqgsWpz0upt6Wav6+KpL0qsXFR0Ogl+lyUlJszBSlLsy6wpxlZuU99F97/2+JDad1YzCKfT5CkyEjSqXJStOplMk5an06nyLDUrJSEjJsolpSTk5VhKGZaVlZdtKG20AJQhIAAAiSCcgBACAEAIAQAgBACAEAIAQAgBACAEAIAQAgBACAEAIAQAgBACAEAIAQAgD//Sz+IAQAgBACAEAIAQAgBACAH7/e0AIAQAgBACAEAIAQAgCTqFQkaTIT1Vqk5K06mUyTmahUahPPtSslISEkyuZm5ycmXlIZl5WVl21LccWQlCEkkgCJSbaSWrIbSTb2MQfjt/ip7F09ui4NOeBzTWh6rGizExTntdNS5uqSen89OyrhamZiybKo7lPuC6aMlSSGqjNz9LZfI52WXmShxebu0k1vP5fu/kujZjTqVLNLLDz1fw5e/XqkY/GsH8Ql8UPVRdQbd4nKjp7TJ4rCaPpLZ9m2KzJtOBX+DJVhqj1C8G0thWAo1JTvTKs7xkSd7xUV7k/wD1X+/lZ0VZqdScvfb/ANOU81dS+NHiQ1bKzqfxB62ajNrUVrYvXVW+rjk1Fec4kKnXZiRQkhWwS2IXm73qSt6juaPhfdJvzV38zrfN3kVKK+VHiZypwoQVrJz5ipQKzk+p/GKOEd+ZmSUWsqKFM3XOugJS+pSlHASlWSQTskJSO57DfEMq0diX1uU1yvzqjhaylWxPMcHBwT7Anf3EGlzRBTX6rNKA861eb329hv3IidEhdkhT2qpWKizT5YqLk6XWCFrS0y22EKfW8444ptAbl0MlZyeY8uACSAcajKTypBsm6dZ951+dYpNMps7UGwV8jrDLim1yzqlNtlRWkf4SX0BKST5QoA4iuV3aRUjak8PXEXwzO2/W7+tm6bSsvVWm1aq2RP1GXeapFeepcyw3VpNCXR4XzMj8w2txsgFTTzbgyFAx0sDh71oxxFLNTcW10dnrr9fj0vgqVU01CfiRzDfVm267P0+n2lezd1WnW9JtNdRf/QufYk1Sbkrls0qpX3Ztwz1VlpNSX7SuZE9JqcQ2pqaDTbjWWnEqP62/FTsR+BnYnjXB8dxDgvGsN2c4v2ewmNwWEwGJw9erGrUqSpzeLxeInUUI1qNKWKjCnSdSnKtChUpUu7lf492P4/2+49heK4WjisJV4lgOJ1sPWrYmjUoQnCNOFSP5ejTV5qlKp+XlUlKMakqU6tNuMope6nwbvhW8O3xcbKuidf45r6021e06mCq/dCZLTeRqlXptqzE0uSt+6bevGq3ZJyFx0icLaW5pbVP56fNKSy6nlWw898Pr9oPwQpupDh34c8frNPSWI4zQjmVudOjwtWSfSp6s9o8D2/q1afe9p+GUaLXijDAVJy3/AJKlTGqO2jzUXb5mQZQv4RXgllg0bm4l+LG4FpIL6ZKsaYUKWf8A8wDStO6u+0D2w6cAx5XiHH+zdaVuGdiaGHpqV1nxOKrSt/S33lOL9VBM7WFwHFaWuJ7QVqsrW0pUIL1SVNu/rJryOcbb/hU/hd0UtKq83xL3gpBSXEVzWViSZfKc/wDuItm0aAtOc78i0x5jEYmNaV6eFp0l0jm/98pP5nVpwqQSzYic3fnl/wDbGJzjSP4az4P9LDfzHDjctdW3jK63rnrW94hAAy43I33T2FZx05APaNRpveb+n0Mt+dtfec42n8CD4R9mrbdpfBBpXUHWscq7rnb2vUK5eniM3bdValnP/wCkHMYpUYyvmlP/AM0l9GhfbRaHaGzPhycAOnj7M1ZXBVwtW9OMcpZnZDQrTYTzak45VpnXrcdmg4MDzc/NnvE9xRftU0/XX6jM021o/LQ7a0W27dtqWRJW5QKLQJNtCW25Si0qRpUs22kYShDEiww0hCQNgBgRdRjHSMUkLvqVqLECAEAIAQAgBACAEAIAQAgBACAEAIAQAgBACAEAIAQAgBACAEAIAQAgBACAEAIA/9PP4gBACAEAIAQAgBACAEAIAQAgBACAEAIAQAgDTf8AD9/6QBrAHiP/ABE2p11aWfCQ4nalZ9Um6NU7sGnWnE9PyS3G5j+Wr61GtmhXZIeK1hTbFZtqYmpJ7JAUzMKT/Vg3htUfPL9Wk/kysknZPa58rGpVR9bvICpAUEnY+VKQrY9CPwi92nuZrFKVUXyBhayAOZROeYkE8qeuMKJyo9YnO3YhKwE+pwhPPhYBKgMgY+6CcDy5VnbpiDk+oNq1K6AqI2HQ9hvjocwu7EhpDuxSVAgpPMPKAR3GOittukWT6kPbzKjLyMxMqQUIK8nqN/MpSUjmycbk/veJauVTOTrZ0uuG4n2m5SQmX/FKUpDSFKysnHKFBJHNk5wM5EWdOSSbasQqibkrNWPR3R34ds9UWqfXtUqrRtObanCl2VqV4z8vSPtNnlLnh0dmZUl6pTL6cBlthDjjhUAhJJxGzSwbqR72LtBbt6L4mtXxcKektOnn+/uPV6z+EzWqzLNl6zwmcEOp2oDtMlhKy+sGttnSWl9mLrMyh9bH8ns6sTFqztzOzzcuES6pKUm2VOKQC5zKCYVsfwnAQc6880la7UXPVvllTV/K9ylHD47Hz7ulTlte18t0lfnv8DH54jkfEI4mavW6fdGhet111+w7smLdmLcqlMm3Z20qpJumReotNsFpIuBl3kfDfOiXSgJKQEnMa9TtXwzD0+9o1l3Cu803liktHfpzWrXobVHhGLleTpSdnstX++nSxeGk/wANX4lvE7QJqz7P4RNQJa4ZOp0Kgv06dt6etGsqoclKENSU45cn2XK0mkS6xzzc1Mqlk8ykhTnMpKT6v8SPxx4h+LNXs1Xx8MFHC8N4bRwWHhg4ScFh6F4U14XNya/mlrd3cubON2c7E4XshR4msO68nisTKvUlWlecqlTV20jpz9/Sxl4fw6HwbOIjgJ4iL81/4mJihWhdNwabVPTO29NLcr0lcLym6rUKLXq7WrlqNIdeo7SKau3ZeWk5dp+aU44484sthtvxPmeHrOri3FQahGL3tdv3N6L68tD1Fajkoqo2rv76fuZlMdQ0hACAEAIAQAgBACAEAIAQAgBACAEAIAQAgBACAEAIAQAgBACAEAIAQAgBACAEAIAQAgBACAEAf//Uz+IAQAgBACAEAIAQAgBACANM/wC/p+PtEgf7/wDEQDX9/nAGn4f8xINf3/zEAQAgBAGggBn8vyx65/KJB1e40+Fqy+NfhZ1r4Xr8fVIUHV2y5232K41LicmLXuOWeYq9oXbKSpelxNTVq3VTpOfQyVoS8Zfw1EJUqCdr+g15bnyvOMX4R/HjwWXrXbZ1a0AvyrW7S5mZTS9XNO7Zrt86U3RSUTL0vK1mQu2g02al6R8+2gOCRqiJGpsJV/iy6diautCP+o8vrt8ScyXtNI85pu1qnKTCpablJiRfQVIdanWHZJ5CklXM263MobdQRjfI6fpaNSnJXjUi/ei11qr6knIWzOuTWGm1vOPnlQEBxzO/L9xCVKPKnJAx6fizwV25L4/f3865lF3bSOxOnnChr/qfMNMaf6J6vX6tbiQhuy9Lr7ulZBVjKPsKgT4UOh9Md/S0atGTUVVjd+aI76j/AOIm7db/AEPSXRv4D/xKtXPBfo3CLqpb8k64hJn9Rpag6XMpbcwS4JfUWvWtUnGgU4JRLLIBzg9I6mHw1CetbiFGlHq80uvKEZM1quKaV6OFqVHfayj85uKPY3QH+FJ4lqkqVmtaNVtGNL5BQafckqN/MOp9wsK+8uWmJGSlbNoYWOilN1d1GRtkR3qEexODqP8AP8Q4hjYqK8OHp08MpSvqu9r99JRS2f5a7f8AKufLq1O0WIpv8ph8Lhpt71XKs0uV6dN0035KvZdXy90+Hr+Hc4PNHfkJ+97x1R1VrEtKpZfZYqFN01ttbxADr0oxZsq1esqFjygKr7p5NiTGvi+0PDIurHg3ZuhQg34Z1pzxNZLzcslG75tUI7aW1vmocOxjlGeO4rUqSytOMIqlB39M1RLou9a63PXPSLhJ4aNB1omdJtEtPLOq6ZZmVcueVt+UqF5zcuwkJaRUb1rAqN2VLlA6zE44Sd8x53GY3FY+tOtiquacne1lGK9IxSjFdFFJLkdChhqGGjGNGnaytdtuXvk25P3tlD4wJYTGj7hJbT4V020rmdTzIHPOlncApO5cwMEEEiPMdoXbhk5XtapD62/U73A//wCxpf8ATL/0s8P9f6JKeO3fLVNpQvigzExPWteDVGp/852tOyMiHJCct65xKfb1PmWJoKW24w62tHNlJG+fB4if8TDycvDmTb8k01rvo9U+T1Wu3taVKL728E5KLtpfk729VpbnsdKbA1nv24dYOCm5qtdVxzt0XbZmvenOqN0/bFRTXtRXZeqLui0XtQ6yy7LT12P0iWpRYkl1N6a+WayhgNpWoH+jP44cLwS/AjsxxXh9OFGhiKnCsRCjCCjTg6nCFDFKlFLLShUxMO9qxpqEalWWaopySa/MnYStWX4g8XwmMi6koLGU3OTbbUcap0FNfzuFGTp05TzOnFOMHFTkpZNektSQ9clnvAgJcYdbwOg8SmPgdSfb8o/DXBpqU6Vlplf0Pt/FY2hV0/mX1+/vbuhHpDz4gBACAEAIAQAgBACAEAIAQAgBACAEAIAQAgBACAEAIAQAgBACAEAIAQAgBACAEAIAQAgBACAP/9XP4gBACAEAIAQAgBAGn5wAzj9/l+cAPw/faANM7429onkBkD9+nvCwGRtt1Pt/v7QsBnfof2YWBpzDtjfG/wDr2hYAK/f5dz6RNgM4zj6fQ5/LERbqDQqKcZ37H2z0+uYaAc3642xt+We8SRcZGcZ6dMHGdsH9RD3EgLG3oc439P7mFgbFLB2zhOPbce43yDEpEFvT9pWjVSVVS17bqSzupVQolLnCd+5mJVwk5ikqdOXtQTXoPqQZOzbLppzT7RteQIOxk7fpMrj8ZeUSQf8AaIVKmtqaXuJ035lxtlppAQ0hDTaNghpAbSPQJSkBIzF0klZIi5v8XJPYAd/3/wCIlJC5D8dO477dfz3z02gB449cDqf17/h+ENBcOTADaznBxgYwFZO2Qe2PWIdraEnVHimLzGl0+0qeedlX6xQnSxMcjymnWqrK8i23FpLnJzLwUnIjhdoVm4TiI35x/wDUjq8GduI0Gl1+jPHXW7w5ymqkFuYS/NP8zqXlS7zY8IYKXeUJLQSNgcEA4JxtHzavUy0ZJWc1L6P6H0Gk3GeaKPLTQ00R29rKo7U84/c+mGqNq1Gcpzx5maZTb+RVrelpyVcSS44meaWPEOeUnHsY/oB+J/H4cS/w1/hRhoKHf0bQlZ3lkyVMubory8Keq1XI/PXZjhqwv4mdtKl5+OMJWfsptpPL5tLxW562MnLRaqKlKxbi38+FJVBDIwk8xC2XmDncBJBWO34+n4z4BUff04t+FNr5M+scZinTnJc0vqj0abWlxCHEEKQtKVpUOhSoZB/Ix7A8sb4AQBpzAd4mzIujYXUDvn6ekSoSfIhySIZfA+uN+n7yIv3bIzqxCMwTkD8+2DsIsqaRVzfQ2h5Xqrlzjv7YwO2Ys4LpqQ5O++hNBRA6EjGcJG5+g+sYWviXTIsULiAEAIAQAgBACAEAIAwvfjdfH81e0w1rvjg24JrglbCc00mnLY1l14lZSl1q7Jm9gyw5WLE0zTUGahSbcl7TDxlKpVXWHagqph1iVEp8oZiazW7q2idTR67Lnts363S2tfbXWbEOVpONFNrTRyto9d0k9NLNtXvbfFnnOKjiMv2touC+uITXW8a4t7xjWLi1i1Fqs+hxS/E52ZmcuV1cr5uiWuVKcbAYEQqlRaKpK1+rMncUG7ujFvzSfzep7EcAnxmeMDhZuqkS1f1JuziA0gVMstXJpXqzc8/dM8KYpTSHpnT+/Lgen7ltSvSrDR+WYcmJijuqJS7KpKg+1WTb3d/vqHTy37myl78vw5eq8tHsZ/GhWt+nHEdpPZOtOk9eZuKxb8o7NXpE6jDc3KOEqYqNFrEnzKdplfoVRadk56Ucw5LTTK21DKYoXjJSV0ctQJEAIAQAgBACAEAIAQAgBACAEAIAQAgD/9bP4gBACAEAIAQAgBAG057fQf33iUDQkjrj36HG/wCB6RKQGQMHcfQDB9enrDqQbCvGMZyc+mwJ7+kAaFfY/s75PTMTYEPxMHA6ddjmBHobS5g4z17bdD6bdRDQk08Xbfr1yN9tvzO8ORBoXeu/TBGPXv16iFyTTx8Dt1x1GR+sL2Bt8YH22ycd8dPy/ftFwbfHHc9Pz23O/XrC4AfHr3P0PqM7bwuhY2l8evU5P7xC5NiF8wD/AFYGdtwO234wbI1+/v7+uvzQIGT+e3rnfviIuTYgLnEgHf27A+vqYEa9CWVU0bbgDH76YxE2FrksuqoG3NjHTcDmHc7e/eGo2JU1gbHmxnpjB67xNgyGawDjzj164z/r0/WJsQblVMLTyhX3sdyR1BAPLgwa0ITvodZuJ5FTrdkVKmUdhmcq3yspP0+nvvCXRPvyFTYnVyiH1JKW3X2pcoSSMcxGY4fG6dStg6tKnG83HRdWmnb32OvwqcKeJpzm7RT1a5efuPHnVW8bdrKGZcTKKPX5OYKqpadYcElX6e6ZdSHWxJTIHzbSCSRMS5W0pI677fMcVUjNtRTUlvF6Si7bWZ7/AA+mVuSkmlZrZrqdHtDdFHpviPvi65BFScfu209PJR1LspMIozM7pzXKPXaM/LTLrSWVPT8uHGHXfEKVuuBOAQRH3rGdqMfjuxvD+zlWtCOCw1GnkhHROUF7Uo3fjd3mlpm3toeBhwzD0OPYviVOk/zVaWWUn/Sm2le23RXdj3i0hdq1fvKakafLzsjSrLuRj+aKtVZCdpzLlQYkWplmj0Z2clWEVZH/AKpKnn5crYQpBQVc/MkfNOCUcRUxScIWoQneUnpqtMq8+b/ur9ni1WjGg4uV6rjZL9T0/ojuKXKJJKsNkA9dgpXT2Aj3ijdKSPHt2bRWA4D+I7bE4xnJ+sVy2IzG1SiR5c/7nrv7/wCsSkuYbfIhnnUdxn2i/hRXVkMtk5Iz++0WUktyHFm7wVE/XbPbv/aI7xDK3yN4l/y/12/DER3pOQjBpI6gHsf0jG5vkXyoiAAYx22/f5RW9yxrEAQAgBACAEAIAQAgBAHyc/i6aFXnw6/En4v7IvNmY57l1qvTV62Ko42+hmvWTrHXJ/UW26pKPvtoE0JaXuBUhMqbKkInpJ9oElsxkve75kUfYy84u337rM6GUeaLa0EZ3wSEncjoBucE9dtoj1L2OebMrCmnm0lSsYSecZOyCE8yiAeUEqxnYZ/WVuRtcyTfgr/EfPCjqq1pfqLWvC4etZK1T5O43ahMqbkdNb7m0s06kaiy6nD8vK0eoBLMjX88qBLBibKh8m4l2kltbYxu8W5cuf7/AHy+eduhaHUIcbWlxtxKVtuIUFoWhYCkrQpJKVJUk5BGxEQXN0AIAQAgBACAEAIAQAgBACAEAIAQAgD/18/iAEAIAQAgBACAND9P/Pb9f36Sgbc7enXp9Bj6EAwsDYT+GM+3T/iLEGwqxjvt0B3z77QIIK3MZwNyT++0QCWU/jv+HX23MTfQkgqmOUdv09Ont0iCSXVMgf1bdffbqM9cxHuIIfzvbpjA9P12JiLk2Nhmj/SrpuQcgH8c9frAmxtM5jJz7YPTHqOkLi3wIXzyefk5k8xB8o2Vge2YnTqMptVNY77b59Yi5NkzaZ30Vj6+2QPf+0RcWIJnM5HNnfGOo/vC4tqQ1TwAzk/d36Y/t3hcmxT3qpy7BWO++/8AbPcfvtN7ciLFGm65y9V4wd8fQY267fWJTXMMor1wY/8AyDbI+8Pp094ummUsymO3GBuFDPTrkewO3XaLIholvt4qVjxBlR7bH6dun5xKRBONVNSt+f3HT8z3zFlFAr0pMqWUE75Kc7fTH0ibLUq3bY4N1rqLzdVblkKKEMUFyeCgMHxvn/ASELGMYS4c++I4nEZ5ZLyjf5nUwKvGTf8AUdE6dQXNVUpauaQ0/qstb1RmGJ92/bcauVay+GhTnZDzSsxJOc6Vh1SXQDzA9c44+BoUuIKdTG4alVUJON5xUpbLZ2081c7OLk8DOmsNWqRco38Lt6o6PUmy9T6fx0PStrS1xSGntr0y1J9Fq2zR7kVZLlSmG3kzi5OVWJmkyQW8x8yGnFlOcHGSTGOdOcMVONKMu4VSPhV3peL1/wBu/lobEK8Z4eSqVIqo6bd21q2n89vee9zspXmLKTV61P1J24ZiUbqVRROhppKxLzKXPlWZFlpiXkpdlpOQEJ5jjzEx6vE6UZyivZV/geWpP+Ik23c7LWs4HqRIrGOUsNnOcg8zYV9P6v322INOmmjUqe2y60N7bjOc+mT/AG6n+0VlLXQmK01IvKB0il2Wsa4A6Dr+MLsmwwIgGsAIAQAgBACAEAIAQAgBACAEAIAxfP4mH4bM3xLcP1M4xdJrfNR1m4YqHUE33TKcwg1K+dAFPP1avBtLbPzE/VtLai47WpRvxEj7OfqiUpceWwiJTSd2VvkkpfyvR/o/3+PI+fPTn0IIWFeRQCgoqwlaTuCCNsKB2I/OLvQzO1zla3J5tRSEuuJc8ozzI5FJzuFjJUUkpG3TO/0jzMb0Oztl1YteF0caI8NxCsKQtDg5FpUlWRg5IPtnaFr6ErlYz3vgY8bMzxHcPE3ojflZcqWqvDvK0ejy89PP+LULq0nn0vStj1p1xaUuTc7bhkXaLOOErcUJaWfdUXJqKWyycLen35bFElDwrbl+3uPcqBYQAgBACAEAIAQAgBACAEAIAQAgBAH/0M/iAEAIAQAgBACANp2HXH72xEoGw9Mgjv1/Q/UiJTIIKlY2wf7e3aJIJZa8DA+g7bn8vxhcmxJOvHG3U9cHP67CIaBT1vkfUZz+OdumD07xDfQukSbkyR09OoxsOxPcRF9hbUk1zRG429vY/hgYit2LLkQPmTg7jPf/AJiLk2sbTME5BJG23Yj88jJi10LDxlY+8SQnfpufYdjFbkmniH6nPpvv698QIsbuZZHr/wB3bce/0hzJNiioj09Bnp9fy/WI8wQFKUNj+Ppjb3idSbEi+4shWDg+vvjsDFSS35t9aR1IwO+2/wBNt8bRPIiy3LQnpxYCsHuSAc49vXeLx8yLFmTlQe5zgqOT5jncZ2z+X6iMqfwKNFKE9ME4JV5cHO5GTv1Bxkd4yJlbFQln3Vbjcjv/AM4AiHIlIuinOuFSSc7bY2wcdRuIORDTOQKY55d8AbK6bjoQcZ2xBT0KuJw5rk40hYfUoJ57cqCAokYSUTsm4D0yPMrrHH4mk16wf1R0cBo5LldHRHQ+ccmbtu+TmZdMxS5lMwZhxKkKMvPJLTMqy80DztKcCvEbJ2WknB2Ijn9n05QxMHaznfzWltf0Opxe6eHkm9I/qT998aOh2g9xXTR9Y+K3QTSo0L7IdNBrdTYdvK32qnIMOyaLpojc5NzDTlWTl2T/AMNhUw2oBCV/ePo5yScoQqQvF2fiV07J2eumjT9DgOpThNRqT1aulZvS9vfr6HNPDLxkaGcUc9UqTplqhXtUZVynVGrUuvVPS679NberdCp01J0Kvzen05dlFpDd80ekVapyzM5OyBmpdh+ZbQpwKWExloUZ1ac81mtb2d9NVo+dnva6RjnXo94lSbutdVbb/uellny5lqLIsKIUWGkNkjYK8NPJnHuBnvEKLhTUOa0Kzd5tpF6DpGEutkawAgBACAEAIAQAgBACAEAIAQAgBACAEAbHWm3m3GXm0OsvIW0606hLjbrbiSlbbjawUrQtJIIIIIgD5xvx9PhBVLgY1an+JfQi2ebhD1juZ112m0aVIldAdSK2+7Nv2PPSjKfCkNPLpm1OO23MpAl5NfPS3A0W5FU3Klqk3vsI2Xhb05fsY+lHnClScEjJHQlI69U4wB0ixZo7CWXWFpKE+Jy8yklIPKUkAo8wI2wQIK5C5Hsx8Lfigd4XOLzRzU9+o/J2fVa9L6aanpcfSzKO6f6gzknRqpPzi1c6fl7XqwkK0T5f/wDG8uQFGIneyfK5WWl3fY+jGCFAKSQpKgClQIIIIyCCNiCIqSawAgBACAEAIAQAgBACAEAIAQAgBAH/0c/iAEAIAQAgBACANCM/v94iUCERtgHB/wDHYnrFiGSq/wAMkb+v7BgPoSjgx1J/0Hrt/wAxG7BIOnr65zjfA6+vt9IgtuUx3p+nt7/n+kVLae4kFpOe+N98/wBvoIgIlC2onv16Z/3/ANIhk6IeCrA2O2c7dd/z2iUkCKmXUrYg4xscZ+n5QatsLkZMoo7EZ3B69N/wx/pBIPyI6ZU9SCRkDcd/wGcxNvIi5GEmeuDgHB27n+28LC5uEkTkkY29MZ9h2yYnLzIuyGuRIzkE5759tu2DEZUMxJO04kZA69iOv59N4jL5Fk+hbs7S1HPk33+nf8O0LW9AmWXP0lQz5D32x1Bx69IqubTL30LMmqMoKJ5T9QMHAzj06RLnbUZb6PclkUjGMpwOpx6Dsduu0Q6nMnIipS1LSD5RkA9xj1GSTnoP36VdV6alsiS0RcMrIhJHQY2JwPqfp1iO8diHC5crbRYZK+4HYbjbtj2gqlyuRXOvetrpqdGflmlMtTokJyXlpiYUpLDTjyG/DTMuIBW1LOvNJC1AeXOYw4uKq0112MmHbhUa5M8OtPeLSiaP8XNlcMt90m7KPq9rnVJ6lUuy0W/OVJLFt023qtV5XVBVakw7SZixJat0YyiZ9h1ZCn1+I22G3Sjk8LwdfBYzvJ1UqE9PNv8Al05O/u13Orjsfhq9GnRjTm66fTRK2rvzWnqnukc78b2gupmpl56E6jWZxY6jcN1pWzWpqVviyNOaZNrkNbatVnpBdt068Z0XdQaGzKUNiUnG2VzUnPuNmZ5kKSGwk/YML2dpcUlQnDHzoUVS1SindO15a6Zly0d+umvjsXjFQg1Uo5pKe92vdutCfpemdh6L8aVM40axqRd/85Xja1H4fL7tqQui16tYCbPcmreao/z8nOUebq9Om6dcUo3VMyU7KpRMF5P+K2ooX18D2Q4LhoYqrSr42vi3SeSVW0Y62bslG9vDoszvduyvpzsRxevOdOUoUadNzWZQ1vyV7vlfkltu9b5ClnTAmaW2EkLS24Qlf+dtYC21jYEgpVHz7G0nQm01a/2ztQkpOy3Re8cw2BACAEAIAQAgBACAEAIAQAgBACAEAIAQAgDjvVrSfTrXXTS9tH9WrTpN86b6iW/P2xeFq1pkvU+r0eoteG80ooU2/LTTCwl6XmGVtzErMNoeZWh1CFiGk1Zg+Yl8W/4VGp3wu9cUyTRrF68MOpdTnn9DNXZiX8Z1HJzzj+l2ob0s01J07Ui2pJJU25ytS1ekG/nZZKHETspJ3T5MsnsjzotWtIZU15sco8uDvjPmwnzDOx65xEkPyR2/00rLdQUmUeOJaaCZWYS0POlh5Cm3VoIUOVaULyMEYPcbYeXIhrRvmfS6+HjrVMcQXBbw8am1KeNRuGf0+ptu3hOKwHJi9LFdmLJuyadSM8qp2vW+++PVLoPeKWskiI7Hc+BIgBACAEAIAQAgBACAEAIAQAgBAH//0s/iAEAIAQAgBACAND+Xv09hEoEJYyCP329sCLIggqSAem52J77+phyBAW2Dseh323/X8IgMk3GTjYDf03JPv9YW8gjq3rlxhcJPDU+3J8QHEpojo/VH5dU3L0O/tR7ZoNxzcsFFJfk7ZmKh9vzbXMkgFqWUCRiL93JxUnG0X10XxZV1qcW45vEuS1fwWp1rtX4u/wAL29KiKRQ+Ojh3TPKdSy2iv3siz5Z51aglCGKhd8pQ6c8VqUACl4gxHdS5OPxX7lVXpt6qS15xkl9D0Po05SbipNOr9vVWl1+hVeUYqFIrdEqElVaRVZCZbS7LT1Nqcg7MSM/JzDagpDjS1oUk5BiHGztKNmjIpxklKMk4vaxVxIbDKc46Yx36+hOcRVxXQtcmESII22/D88798wsMxMJkkgDI6Ab4/wBInLrsRcmRJ5A8ue/p+ZHWJt5i5FEoAOm+T+HUZxj0iEvMj0NRKp7gE9sj33Oe20WINipcAgYBztzY6Y6b7d4i1ydjYuUSdgnfG3tn2z7RGUXKTMSAVnbfB9Bv2x7bxFuqJUviW7OUxCgRy9NzkfT22ijiuhkTLSnaQkZPLn/Q4x+EYZLpsWi9i3XZFKR0xvnb9fURjlZaGaLvyIaGUox032OOv0PaMb0ZexPtcgAIxnfO59vT1hfkLcieceQ2yoKxgJ9c7D+3WJvpoUs77HXDUIKmpxQZUkBTeEqWkONEkFK2nmzhLiFp+8Op7RaMk4+8hq0r2MUDj4p2tHBP8SuhcerGj+oOpfDpc+kFt6X1W4bCpVTvR7R9+i1BtV1UluRlnH5i2pSupbRNyxWJSVmDMutoUVJeAq2u9jUqxfdRaafJWt8/LT9qRlKlKrOCzOUWvRPT5/qe72oF+6W3lwazmss7bdd1Ssmk6R//ABBW5b9GXO0G4ruoMlaar0pUhJzhUzMU2u1KTPgiWUtLnjnw3ARkH7v2Vp0J8JnxGvUawNGnLNKOVyaUc/hi2k7paNtLa8keW4pKo6iw9KlmrVLOMZXSbvzaTa13td+T2PMfVfi3esHgqqHE5ZnANQLbqFFt1V3W3a2vgrt2TbYkaxJNVNivs0ttFXpNRTb06K3ILm1S0rP09P8AgOqKhjffE8FjuDz4nwmVWooQcrNqNkm1JvK5pZbPNby1Saa8/OOJw3EoYDGYajTzSsnrO7aTSV1HWV1a766XVjI0+HvxOW7xWcNWiWudurkvlNU9OLeuGoyNPVli37oMn8vc9tutqmJp6WdodySs7JhDi1LAYGSep8H2qwlCcXjMG/8Alm80b2byzSavbRtJxUrbSuj0/DK1SUIRrJd9a0rJpZlo7J6pXTtflY79R4Q7QgBAD27wAgBADpAGmR6ws+gGf3+/rADIHeJswa5EQBACAEAIAQAgBACAEAdfuKHhl0b4w9Dr84etd7Wl7r06v+lqkqhLK5GapRakyrxqNdNs1Ituu0W6bbqKUTUjNtgqaeQOYKbK0KlXWpF+R8uz4kHw8NbPhfcRD2kmpImLn04uldQrOiOsTFOclLf1MtGWmkpWy4U+JLUq/bcafYardKKy5LOuNvN+JKTEs+5lcfCpx1j9H0f77MsndPQ4Ls/VqzLNDU3cdYbkkoYdmhLMj5ieU0whS3VttBbQJ5U7J5gpZwE5ii8xu7GZH/D8fFz4K5nTmf4TLu1xkbH1GrWrVRqektD1EpNXtOlXHLXdSLcS9b1Gu2otO2mitzV4tTXy0hMT0vOTkxOJQw064rlhlcruLTfTn8P2KN5ZNSVo9eRlyxQsIAQAgBACAEAIAQAgBACAEAIAQB//08/iAEAIAQAgBACANMQBpjf8enr3/SJBoUg9sdf9/wC8Lg2Fvbp7+v4evaLXRHuMOf8AiEPjeam6DX9WuBPg9umYse+qVQ6e7xA600YJbuq1XrppkvVaXpppxUXE8tBryran2J2q1phKpqTTOsMSTrE0h9xqydnpv9/P6eu1Uu8dv5E/j/b6/XBprFfqtwVqqV+u1WpVuvVqdmalWK5Wp6bq1Zq9RnHlvTU/VavUHpioVGdmphRWtx5xbi1klRJOYtbnzNiMYxWWMbR8iPJzJdIQrKkKBzkZTnuPf8PyjG+fQq7GQp8Bn4j2pHCFxT6ZaI1+86nO8LOvl60rTy8LErE45N29Yl6XnNikWbqZZzEw/wCFas63dk7Kytb+XLcrP0yZddmG3H5aVcblS0yvVcvL+z6e81pxVNurGy5y811fmlrfordLfSODA6d+5xnp1xEXRlIqWkjtvj/zj9iIzW2JN/InsP309RDMwb4qBAGh6bfv8oA0xj1xj/XPaJBsKc/j+Pr+O8WTFiWcQCNhvk7j22+g39oncrYpUxLjfA74xt03IOR6H2iruTctifl04O3Tbv23wIxyXwMsWtLosqdZwSQN9/qfYesa09zNDoW+oYUR0IO/p+MYWZktCK0RnG+PYjO/b0IMErk3sTi2g62pISVZHTGevt+EWy6WsUzW1ZxLdNkzVUcWuUdflX8+RaBzNkg5SHGvurR7bGMHcTck4yaf3ui7nHLrG6ItiaeVykOPvTSkPmce8WYS2hSZflSnl5PBc5wQepBzkmOxhFli1PVt69DnV3r4LosXXyiWFa9vXtUtSlUC2tJpqxK6q/qnXZ2Wt20qRaf2PUUXNNViqrekJai0pqm+Op+Y8RrwwvmSoKwY+rdi8VSlg8bg6uR0UruMrOLSsmmno45XqnpZO+l7cDiWeEqNdSedPR31Xv63999j58fxC/iAaT6lJ1T0z4MXXdJNNK/cdpWxeM1Ky+pzmpnEtY1kyVwz1sX1c13XtU6hQKFpDaNbni1I2istVWpvTbU/UmFpbalZDkdre1/DKlN9m+zHBMPhuFTinVrUqGHoupO1nFd1ShNxtf8AiVJzk43hDu4VKkat+F8Erqu+L8Sx06mMjpCnKdWVo6vM885R3a/hxjFXtKWeUYOnxv8AB54idcaR8U7hduu27n1AuC49T+Ii3ZLVaRtKXn5KW1Atq8X5mm31Ua9Y1oSlPt5dtUKg1B+qTBEiiTp7ckudIa8EuJ8dwCh3TjwyjUqLCSp1FlzSa/05WclfVQdpXle1r8jsY+arOWLqRi8QpReayv7SvZ+aurLc+r0y8l1CVJOeZII7ZBGQRsI06kHBtNFou5wRxK8TWkHCZpZWdXtabkTQLYpYcl5KWl2kzVbuWtfJzc9KW5blPU6wierVQaknPDStxplCUlbrjbaVLGShhcRiVWdCk5KnHNLyV0rv3tL1ZhxGJo4WCnVla7slzbs3ZfDnZdWcW6C8fXDbr/TqV9jXa9YV31CmytRndNNUmJaz76oAm2lPMytXknJ2cpAmXGkFbfy87MIdbHOhSk7xWdCpBtOOtvv4GKlj8PUspSyT6O31V18zuYhTTzaXG1IdacQFIcbUlaFoWAUqQtOQpKgcgg7xi1Ru6MiRAIayf6SBg7ggHP65G8WilzRBBW8B7Y+uPYD8Yso73IuSypgZODk47dsD9TFth6kL5vG3uOvf6n6Q9wNyZsKOM+/X6jvB26AmUPgkDPf6gdenSIyr3gmwoH9/7RjasWN0QBACAEAIAQAgDQwBAJydt1ZAOBvsPrjvGVaLyMb3OmnHtwq8M3GJwyai6S8WEvRJHSxqkzl0uahVSpUu26ho9WaJIzjslqnbd4VblkrSrFptOOuKmXlfKOyinpabQ9KPvsuWhPu3nsnHmns15/vut7oi9tW7W5nyUtd6HYGlmpeptraaX1R9V7ds286vaenWtNPRLTVMr9dsOpSSE3lKURl6aln7duRcqmblUuCblPlJxKed4pUpXtcR+H/HaPYfC/iJCNB9nK3EqmB/1IqtDEU6NPEWdJ2nOnKjUjKNWClC94yalZPmUuP4Ctxuv2ftUjxCGGhXs4vK6U5zppqVrKSnTkpRdpLR2sy2tY+Iqb1/uqc1R1Ir+nNQ1Cbtm26DPs6dWLaOnMrMSloUSXpbc8/bllSdMo85XphxtTk3O+Ch2YUApa0J8Npvw2VaKKSXl836nblmbvUnKUn15dF6LZH0/wD4KfxR9E/iDcMtjWpQ7guCQ1/0V03sS2NWLK1FqFOevu4VUW3aTQndWKbMSs5M/wA0W3dVTllLmZtOH5KoOqYmkIUtlb8Sils7oxq+zVj2mipIgBACAEAIAQAgBACAEAIAQAgD/9TP4gBACAEAIAQAgBACANPz/T/SJA9yMf8AOO8PQHyKPiZVaduH4hXHNWKg++/PP8WnEBKqdfWVrTL0jUu4aNIMgqJV4UtT6e02gbBKEADYCJg80c1t2/qWikoq2x0IW2pspClJJxk77+bJ3HqPTtGXVF9/QqEutXMD5uY5UojPLnvjIyCc7bf8Y2ikuhyla009zJ+XfclJlCkLlZhlZbelJppQVKzLTqCFpdl30pcSr7yVJyN4q9diNG/FtzPrg8DOux4m+Dvhq17mHpd6qanaOWPcVyGVUFMM3gaLLSN6SaNyU/I3ZJTjBSSSktlJ3EHvta+v6mOnfIk3eS0fqnZ/Q7WRBcQAgBACAEAbDvn9PyMWXIEFzYAfn6xdc2QSTvKc7dPbOB+J3IiGC3J1GObY75Ge+e5H1iki6LFqCRkk7EZJ/EjviNeceZmiy1HR5vLt9MEe+ekYHG1zOpEZhnnIHMQM56469/XETGJEnYvOmU0OpGFDt5sZGAQTt7xnhTMM5L3l7M0GUICi2jYeYYHm6fmM/jGxGEdzA5N8yw9YNVtI+HLS28tZ9a7zoGnOmVgUh2tXVd1wzPytPp0k2tDLLTaEJcmqhVanOOty0lJSzbs5PTbrbEu2484hCsmkdEija5nzpfi+fHVn+Pup2xbGhlxakaP2FpTqrMXJRdMKva9FTRrsptpu0Ws6c6vakVp6cm2rirblxSrrjVqrZfo9LbSy4pczOJLqeXWxGMxdfH8Jq0svCqlFLPGclObd80ZRSWWKVsrUrt67pW3aVOhh6eFx0J3x0ajeVpOMbey11l10stureNddN61y6axPvTLqp+p1yqTlUmDLSbTEzW65Wag7NviRo8i02xKNzU9NESshLNhAyltpJ2TG5QpKlSpUKbbUUoq923bRa7t/Fv6a9WpmlOpKyV7vkdp+E3Wem6JcQen8pdtGuWuPViu2pQbqktJeeuX1QJKfrTUrdVuUVinVS1KhXLobtwOh9qnV2nS6JlxUq7M+Ra0UxK4xg6kMTwji7wmMgn4ld2burXTXvSevs3RXD1cBioyo47h3f0JPSLtrbmtHbyb23sZCdG+LD8Vjgu1HulvSe49R9UOGySrs7MWDp3xVTlF4kriplmzTyhRWLu1Es1+i6hUau/KM86pJqsKlJBZ8BJmktl97KuI0akp08fXtjE7SdSLpyv53tZvpLW3LYSwNamlLD033bV0ovOv128rEzrn8aEfEVvi0RrzpPqHYjmlltz1TsextFKaxqnbNMumTpzs7fOqlblKtTJG6pV2n0qRWthCpKqS9Hlmw84pxTa3F+pwuOwdLh1DCYTCTWJc5TqVL51NfyZYqKyqEb39q7k3daJcHG4PEVa069erF00koRso5W/au5N3cna21rLTm7/0412sa95WVo2n2o1n6lNsUpyq12iVyfVJy9my0izmoVy8KPXJKnXdeGpc3LJbYmJick5ptoJak5RpxRCUas6dOvmyzT9N1y15+py89bDOKnTadm9VaPXfZv0b9/LvppHxqapaRyNJqNk6l6r6e23UXhI2zRbhKdQWdR3pR1pl0W5pzca63IWZadOdHy3zMmGUhSi027MPhTTWlPByTbjNSjpo/n6L0Ztxx+SmnecJcmrO+r5badbX890vU3SP4uV1TDppOpWltv6gzbQaXMTehVzSLtXoskhITNzt40S8J6mUClTDC/wD3W2KusMqVyOBtWArVnSyNqUZLX1X6fqdGnxFu2iqO17R3Xrd2+nuPQvT7jz4U9R2pMSOrdBtSoVCoS1JkaVqQH9PJuo1eaylql0OYuxumUq55vxkqb/8AlkxONlxJCVExVRbdo2fp+2/1NtYqi43k8v8A1afPY7Ul9t1pL7LiXmHRzNvMrQ4w4k7hbbiFFC0qzsQSDE6r1NjldbEg4+QSQSN/1JG+fQRH0C8ySMx0wfX0/LbG8RoWNqJjcKJ6H16gj0xC4aKizNZHLnfrzD2OcD84EWK0w8cJ3yNtj23HpjpB6+pCZUEnb8/7xje5Y3RAEAIAQAgBACAISk42CcZzuP2OsXT6so9ORiS/xYT2vtx8LdkWjpfWK+zpVaFfkL+4gbUoAf8A/qW2qi9PUi0q7X2pVYfqdrWRdFOS5MSqwuXbm56Vm3UZlm3GtGriGsdSwz0pypt+rvZL3Wv6teRt0cLmws8Ta7jK3ponf9vf78B2v1OxNQrWo7mm1FmrHu6w0UCnai2rVZ6YrLd43XP016TqmqdtVOTtii061LVqsha9JYft6bnKjOJrExNTstMKlJkysh+nO0/4hdl+1H4I9n+zjxNLDdrOH8Rpy/K0sEqdOvD8jRwUsVLFKvP/AJhU8HRWJj3NKniZTp10liI4mpX+ZcH7OcY4Z254pxKpCpV4TXwmWNaeIzZX+ZrV1SjQ7mLjGLxE0putNqMYwXgyRpdZbYsnlq8/OzfhTLz0+/MBthAabZdcedcLcy4/skFZISjGdhuY/OSTzbao+k9Oh3b4d9etXOGPU2y9YdGb1renOpunlTRUrYuOiLSHmE58Obp8+hZck63RKnLuKl5+nTzDknPSji2XULbUUxNmr2RVxzcj6dPwgfi+6XfE30sNNqiaPp9xS6f0eUd1Y0namimUq0oFMyf/AFL00TOPuz1UsKrTjiUvsKW7OUKcdTKTSnELlJucq46OSXh+hTZ5Xuey8UJEAIAQAgBACAEAIAQAgBACAP/Vz+IAQAgBACAEAIAQAgBACAPk2fF1sWY03+Jnx0WvPMqZdXxG37eEohwjkFN1JmWNSqW8UcuFB6nXY0pIJwQd/SLwdlZJW+/v9+dou/qeZS8eMcknmJJOQFK33JJ2P6YjLfQuVGXYKykpAUSQcdSfqASVEgbHrGJ/f39/tjb3L+oKCiYQocwUDhXNzAjmxuAdhgK6jpEEH0ov4ca83br+FlpbS3XS6rT/AFK1sslBUoqKJdOotZuuUaGc4DMpdaEgdgIh8tPu5SPtVdva+qT+p7rxBcQAgBAGkAD9O4/Y+kSDbvv26b4xjJxjr2xEggr36HG/rgY7/hFkQSru4/8A1/DI6xLVgUCexyZAB6jG3+mO0VZZMseoAb9Nvz/sYwyXkZE7FoP+Uk+hP/jfqcxryXQzwJiTcAVk522wcYwBjI6j/SJjuhIvylOgYA9NgD0P4d8RtQRry3ONeJziu0L4NdFbm154hL4kbH0/tltDIddxM1y56/MturpVoWZQm1JnrmuytLaUmWk5cFRSlbrhbYbccRmWxhvY+cl8T/42uonHXqZo7q5p1fdTs22tFdQrnuS2OFu99MrduLS+w6ralUlGLHvbUP7bqNao+uV7X9bdReM0iepknJW6EuydLDiXJqfnODWVXik+K8NxNCVPAZYqE4zalNO+e6ssjjJKyvJST15p9KEaeDjgsbSqZsTq5JrSD5Wf811zsmn8seerXHUa7XFN0unuTtQqc34srTqfKB2dqVQqE6pTUlI06XAK1TL7/hS8q0OVCeVKQAI7EItRhTjduyS5t8l6s585qOepJpR1b6Ln8Ds7wvI0Ie12syzeICS1MfTU665b1WrfDkmmXzc9Fk6xTHWqpR7LoU3OWsJu8JNLrshM1pqqzNKlPFcdQxNNNf4vMx0cbg6jr0uJU6VCFs7absv5vFfezsrLfnY2MPLC4uDoVcDOrOb8KTtfmtLXtdX32eqPR/hW4TLetzXKv6Z6J0ytS+pFXanKxeGpt5z1HrDHC3pHV5WdnrVsWRuuXoNJtq4tbrypqmZaWmZaTYlpmaWXQ0JRteO/+H8MF2mq4vivF6kqPZ3Cq94umq1VqWRRoQqNRderO0Kaam6UVUryhKNKSNfjTxHBI0MPhIKXFKtlqpOFO8c3icVfJGKbb8OeWWCks6Z6o1rRjjH1I08tCx7I0n0mVTrUoclQ2bwobdOZva575Yak6S7MVK8aVI20u9b4uaUkJecuevpkUSTsz4vMUOcwV9B7e9qV2xeAwvGMLVr0MLh40aSqV+9qQpRjlhTlXyU28sEvDTjSpR2p04Rsl5fgXDZcBp1f8tq0qffVpVZuNPKpVJzc5zULtXnJtylJyqTfinOUm2efGtHCjxs6VXJdS7n0loN6jT6irnLr1D04uF21Zqhy9TaTSp2j069ZaYoM3U5gvVBcg5KsuFU46hxOHG91fn2XZDiHCatXFdluN4vBXv4c/eUteWV667O99Pl7KXHKGLX5fivC6WIjo72Slps9L89tnzOpNy6vSlefodu6yMVCTqztTtit/L602nTKLf8AMUygU2h0ah0Kha1UShSl80a16rQ6M2x5pyYZdQhMwhKnlLdVb/jDtlwpJdoeztPiGGUk3Uw9o1cq0elnLa10klzMEeF8CxDf+W8RlhKzTSjUbdO7b3i2otpt8/I7P0zX276PITtft+6L2os9UHXqQE1JauIbTaj2C8CZO3bMr9WnWNVbLpNpSsh8jJBM8PGlKg3LuLabk5mdnPRcO/EHsjxRKlHHTwWPvbusQstr8lJ6acvFrddLvlYvsrxSi3Oph4V8LZeOi0npbxOOqd/Tk7PXKu1lA4ja7p7ak9Xqvp9QKlplYzdNnrn1J4fLzp2p1i124krbpary1KbnnLd1DkLMkq8/NU2kSSpA0idm6dNJlXJptD86/wC3VOpShOrKGeh/XTanDo3mX8rd0nazaertc846UJyp0qVbLWf/AOOonTqX1aXRytq43TimnZNnNNr8eNCuxiZMhVLR1AqCKSyis1GfbRKVmSknX+b5GTtaekWZm35NtpxhDKvlZDnUkFsISUpMKnhJwk7LPbk7W91m/iVqVMbh5WrRkk9NefvWnuVzmfTzjwvDS5uXrWmVxX1olY6JeoOT1Xod8ztYm7nuth5MzMSMnpxddOq+myKS2FJE7ONSoVLIcCSpx8pQ5yZUKqby1Fl13tb0s7v3qxu0cdTjKOaLiv8Abe7fV7J68mj0t0k+MtrXSpyVourlv6aX6+/QEVmUkpZiq6YXbKUZikfabtz3rWVvVyzrWorjQS4X52Sp58FwPlptlTfiVVO6alDXqv2f7m9HiU42V03baWnzW3/lO71j/GZ4O7knE0y8ajeem77bUml+4J+2Kjdenb05NhpDktS72tFiqszrLMw8lsPOyssh1agEZJxGLIpScIS8a5NNfuvmbEOLYd61U4pbu6auumuZ+Wh6K6SayaXa82ZL6h6M37bWpVkzNSq1FRcdp1JqpyDNaoE87TK7RJ3w8P06tUaoNKZmpSYQ1My7iSlaEnEUySywlvGSunya6p80dKNSEo80+kk4tesZJNe9bWOVWnCk+bORtjuNiPwP4RW5ZWauityrueU9Ont7/lvE3IZXWHCob9Rn8en55g1oCcjGSIAQAgBACAEAIA8H/i63dO2fdmm1YlZmYblpe37gplZkEMUmfpdeo1cp1RpqqDcdFrtPqtLr1GmKxMyb7sotptyYDHhNTEqtzx0/ZvwH/D/gP4nduMV2O7RQksJiOHVJQqQbjUoVKUlU72nKMotNU1Uh4s8E5qc6VWMMkvO9sO0OL7Ldnf8AOcJlk6eJpqcJK6nCbUHD1bcbWs21lzRzZlh6fEm+GVePDdaNX4lP+n2iFvWzc110S1rhregddv2hWfPTNaZqlQoc1O6G39S6y/pvU3nKe4259k3VU6SjnQ03Ls8yTHxKhOlQ4pxLhtDETqUKMpKEpqKnJQnlWbLKXia1a1W9pO57bFYd06FHESUVKb1Svz1TXK3Ll6czwKelJZDxdMu0l/ZBy2kHCVbK6EcxSfQn33wOg7N3tqaHM2BzwlcqRyJySMbIPZSuXABKlRNtNiux2B4f9edUuHLVWydadGbyqlh6k6fVlmuWvc1IcSHpOZQlTM1JT0svmlatQazIuuSlQkJlDkrPSby2XkqQs4xXaewkrn1DfhOfFE03+JloMm6ZRumWfrzp8zTKTrlpSxNlxVDq82ytMheFromXFT09p5eKpZ12nvr53JV5t6SfWp6XK3KyiklKLvH6Pp+z5r3ox6p2e/1PVWKEiAEAIAQAgBACAEAIAQAgD//Wz+IAQAgBACAEAIAQAgBACAPnMfxS+gzumPxGKdq5KyDrFC4j9FrOulVQ5VJlZu9tOFP6b3PJtKACS/JW1S7efcG5/wDVpJ6jNoNZmmXjokYzCnP8XdWTnBG2TnG/qOYfrGW+mxJXpBK+ZOSSAOyhttgp7EnGMbxje+xR6u5yRRkZ5V7hQCeY9CBnYk8uBgZ7xDIPoyfw0FCmKT8MGhVR5Kks3ZrvrdX5IqCgFyspcMpaZUjmASU/NWw6PLtkeuYjXRfe5SPtVHfdr6IyAs/v1/DaFi1zXm/56/8AiFiRmIAz6b/vt2iQaZ39B0/GANCdjjfO+/b02iUiCGT/ALn++/ftFhcgqXnrgn1xnPT6d/362sRclXVevXf3/QiIYKLNHyqJySe34bEDpFdyxZtSH3vTuemO3bY4EY5bGSOtiyZwcqydzjPQfT8MekYZIzRdtCVZe5D177dxvv2yT1iYoNnWvjJ48+H74f8AozUdaNfbjclJUonJOyrEoQYn7/1PuSWlTMotmyaGt5kzkwElCpqceU3IU5lQdmXW08vNngt3yMFR2tZXbPnSfEo+KhrZxiaxWjr/AFjWrTG56DUdMLup9tcPVKs+du3T/hno1+P3JY9c0xnaXqHb0nIVzW16iSLVRm7xlWvmph6YYdlFyTMtKS0tyc74qsRSq0q1CNGurNSs5qLUlJOP8sucW9tJc0t2UFgHTcKlOrKpS10uouW8deceq911ZvxLlq1clx11lii0WbrD8zOy1NlqJKMoemqrMPYZZZcWS0t+ZUG1KccGEtNoUtRS2hRHW9qSgvbltY57moRlOTtBbna7hrHBs5et20ziZ1Z1W0del7XvSR/nDRCw6brEm4FppTrsnYmn889X7ZXblWut1oUtdYmmp2Qe8QpLsvJPOPjn1I8VoYq1DEU3h3dPS7S522vfbRq17+JaO8auBxGHvVw0+93WqSvyunyW9mne3J7d8Ph/aA6UXHXWbM071stjT++rpplGn7x1b1BpsozeNAtmoVSYZmdKdD7Uqgk26rqQuRZbTNzqizSW0qU+t9QSywrjfkuJcSxzq8VoQhwmlJ5aea7m1a05W0s3snrG2vn0KdfB4PDt4aq5YySXita194pvZpc+d9DKl4Z+Hi5bstqg2VTqbMyFjyE981VatOyaqRc+s1Qk6ezblOui550ysrO1MG26dLyT9enUoqFSlJYNyzTErkx6rAYehhIUoYLDU6OGg24xivDFybcmr3erbcm73bZysZiauJm5YitKpUaSbk7u0UlG7WmiSSPYCz9OqPb0tSqXSU0lM3QqYulLuOWpspIU236QU4cpdryLCUMyUslKfDQUhSnFDmVvkno7vXmaF7KyKPqFZulqbOnn79bpdP02pS/tarLrqmZSWrk2HfDE9XH3OUqpzanuZ519SJZlHmcKUI8tqcalSUaVGGactEt/l9+RWTjBOc3aJ5xazfD44ZuLW2a7fNCRZ+oFy6uysxTqbqNQRJVu3bct6izaaOzKWVONJNNQEooiJBipsJcSinIUZZXhOguVxOEUXkr0V3iS30dmk18vf8zDFQqpOLi6bk73WmjafR77aniTr/8AAOu/Rinz14aAaoXTKStItdqYZoNvpdmLo1V1Nnqopt2h27bc67J2/RbJpck8CubnJl195TRQ0084+jk8zxTs1w3iUWsXhadVL+pK9/KSSa8rM3sNisVhp3w2JnF9L+HT1/a3meXGq3D3xgaF3jOWfqxocvUa4qBQJW8rtrWnUjNCtWnR6hLS7rj9Zq9utztImlU5qoCWnVh0ybTrimCs5IV5KPZTivBakqvZnjmJwtrWpyfeUb22yyvpbyZ1qnFqddOHFMBTrQa9pKz93v8AQ4Z1E1amuIGaoYufVeepN7W5ULgmJQan27RbXuyr165asqs16pXHqTT6bIV6867MTakJTNVWann2JdpphtSGmkJG3/xr2q4fOP8AxJwBV6Mf/wA2FSzesqejb96XRGKjwng1dVFw7G5JSt4KrdrLlFt2tq9dW+Ze1D4keLDQG4LTuu6qfKaoUqyacmlWWvU6ks6kWZRpZhqaTRJikzgdXKqTQp2dVPSDE6p+TE4UuuyzwKkq9TwfthwPjt/8v4jCeISs6c7xqRt1hK0rr3q5ysb2Vq4aanVpTp6+1B3jvfzVm/JNlwa58Yd36ocPD85alGpVIF3aoSspxKXLdGo1Eu/UDU68wh+8LNs6dtWRFBu6i6IKkpFyafIb8KrVhKm3JpPyco2ndxPEqU664dTco4mdJzvldmk8ukrZbptPLe9tbWL8P4LLDRnjqklUhGpbez1u7uO72avqk/N6SXAxdt6zPFHptcUmmnUn7Z1Bq01ZOklAfry7ItOoXEmpv0SiWpJ12sVq4aPRpKdWwzKLM6qfDKQXZhRBUdPHwr4HslxXG1eMunVwmGzutOag1Gm05znJZUrwUr2Ub3ey39l2SnwOPbrgGL4rwulPBSxDuu7U8rlGSg1BqV8k3GSTUrWvyMmi9KxPaEyVFrNZoutPD1PVdNUqt6Slo6wVTTqjXFU6tcyKPS7poVKp04JarTlLmHW6XWqk4H0VF4SkwFoU4sK+BU+zfHe2XBuHdsPwz4lWxPCMTKUJ1KFdRpyqqVpaXXdyi3GFVSaWdpaSzH9ifwT7fdhe0s5dku0v/CuL4nNQlhIcT4dha9WlGFNuth6lWu4ucajj3uFUXCUFnp5Zp08t76MfEk1TsyrplLF4n7muOWlXAJqz9fpCT1Ptx4k8qfGuamz5vqmNKbOA43MsNIICiFdFaOJrfjL+H1WD4zh8XLCt3/5mDqUmrbKqr6a38Et/gvt/bn/Cb+D/AOIHC1jOOfgxw2hKtH+Hjuz1V8PrpWveNFxlgKjvvGcJya0TjuvY/RH4tmlNwTkrbmu1AVpRXHVpZYvK26g9fulNWUopS3MM1iSkpe4reQ8klakz0h8uwg+aZVgmPa9n/wAZOCY3JhuP0JYLGbZledJ6LW68UU3eyalZLVn8+fxP/wDp29veDYetxv8ACTjS7QcKinJ4PE044HitJbuLpTnLDYhr2U6NfvJvair2PW+0bstm86HIXNZ1wUW6beqbCJim1y36lKVelTrKhsuWnZJ5+XcHrhWR7HaPr2FxeFx1CGIwmIhVw8tpQkpRfvWn7H8/ePdn+O9luK4vgfaTg2JwHGaEnGpQxFOdKrBrdShNKS+GpeaTkfvv7dRGRo5JuiAIAQAgBACAEAY8XxlqtRmr20qota8RbNy3ZphZMo0y80wtdQuy9qWiUQVveQp/9EtRA3OABjcx9s/ALjlDs1214tx7E1nTp4fg2LUXZv8AiVKbhCNlvmk0vfroeb7X4KfEuD4LA06LnKfEMM2k0nljWg5S1/pinLTXTTWxwH8VHSiqasfDq4mrdkZV6ZqVp2dIar0pLxenJrm0srlPvSqfLo8EpaMxa1PqKFOJI8YqCEgnMflzh/EakuPTlOKSnJp2X9T6cknzvyta59Z4lhYvhtoPxRSfLlq/VvZLzufPPqDRKyU+ZJworBOBzY2223GP9o+gdTx70LefJRkpVjJIGMgdRuR05QPY5gncraxOSE0WlICjueoOBjbG+Ak4Tn0g43RN1Zne7go4vNYuCnXmyOIXRCt/Zl3Wm+Zep0eZfeFuX5Z087KruLT28JNkp+fti5JeWQF5CnZOaaYnJcompdlxGNPK3dXT+/iUa3PqjcF3F/pJxz8PNjcRGjtRL1BuqUMrX7cnHGjcNgXtTkNN3PYd0yzR/wDTVy3p5zl5gPBm5ZbM3LqXLPsuKpOOV/7Xs+v3z8yqO1UVJEAIAQAgBACAEAIAQAgD/9fP4gBACAEAIAQAgB+/30gBACAEAYwn8VNwunVzgNtPiHolORM3RwramSFUqs2lt1c0jSzVVyQsW75doMJVzNsXd/Lc64XAUtS8m6rKd8v5ostF6Nff3a5855RPinlCjsSAQO23lyQSR7Re5N9y56UskoPkz3BGxHTYn0J/OIKX5nK1G5ES6nnPIEc61EkHCkI5upPQkZ6bdIkH1Bfgq6bvaRfC24NrdnEeHPXBpb/1Qn0Ecq0v6wXFXNT223AcqDjEpdbSDnunrF4x021+2Y29X6nqKZkdRuM4GwORkZHsNzFrIXZuTMDJ3GB2BHc4wSfX1hlXQXJhLw27dt/Tse20UcSVI3hZ+g9T79cRDj9/f3+lkzUqSPz79e+23aFmLkNTnLkBW5Ptt6/jEpeRF+hBLmxGdsb9s5xtEokl1OZ6kd8Y3wPceu8CPoSi3B5gSOmfw9Tj9Om8QyVsUp54OJ2BA3A5gAdthkdMK6xVlki25/uN+nr/AKHeKssuZYtRGM9uvpjYbjt0xGJrmZos8y/iMfEy0B+G7pM9fGp083dGo1fk5waV6K0apy8pdV+VNj/CE9UH1omRaNgUuaUk1OtzDK22EAty7UzNqalnJjDwucnaCInPVQirzPn58e/G7xFas68a23FrNqvoHr1O6l2JZ9rJq1g0+U1BsDSm0qk9bWp9EtHhsuWpyEtOafz9tLUKTW3pUuTU3MibE7MTjqlvL5NGS4yuG8RpVcVh6dGpN93JOm5+1BqpB3vF6SjfXRPZtPYqp4CWMwc4UakpxSzq0rbO8Jcuj/dHlRTna1dVXbZpltG4nqjUHZeTp8s5KyMuZtuWfn5p5+fmlJYkmJCny65mcmnlJZlpZtbjpSkAx2VHvJqlTX8Rq9v1fl5vQ506saMHVqP+GvtL1fJc+R3c4VtI+FLVenas0C9detQdM9UmtLa/LW7aFnaSm+57Va7DMrl5G1LHvCSrEtR7bsdc+6zM1Wcqj9JZnKW0sPzHL/hL4GJx3EOFSr1cViaEOFJNym281la0EkruU27Kz5Ws7o344bCY+FKnRoVp4+6yxVst+cnrooLV3Tfmufb3SH4cmnVs6T0Ct3jcthXBcd42ncF+0KdMrcVdr9XnqBd9YsFVFoCqE2zTLLpzNZtSs+LMz0yFNtSbCnWnFzbbbHmauL4/xCpR4hheILCU50s1Ki1mvFvwyqqzV5LxJfyx2tz6lPC8OwdKdCtQ72opWnLaz6Rd00l838uKrw4VW7crNMU4mv0hImKfOz1sXazM0yWn6euZamFydNvaTpkw1JKqdPP+BMPSa1NBxLhQrYFQ7Zcd4RaPaTs+6uET1q4Z3uud6ctvdL3GvPhmBxCkuG49Rqu9oz1s7dVa9vQ7waH8e/FTw33LaVqaV6k3PoVptO12ebu1/WS5qjrxw5USx5JMwqjUai2u/RLku6hTyqXJoRNTVIrFMerFRcCW5eRY5Ut+54R2l7L8fqU6XCuIQo1pXbjUk4NJcu7ksza2bTab6JnncTwzi/DqdWpi6UqsEklkSvKXN5rqNuitpHm2e2WmHxsrtpNnzq9euFyRuKcotAps81fPCbqnbOrWm9ar9ZptCnqeLuthqqVS/rOpUmi6Kcip/ILuOYpr0x8uqX+YS40n035TE03mqQzUFJKUoNSttdpX1tdeWu5zI4uhO0YStVcW1GacG97K7TXJ8+T0PTvh941uGDjUl2bE0u1CtHWKr39bmpCLxlaTKuykhaFk23M0mjTLFw2ZdYlLuo9Ouxi5W5aSVP0+XcqZZmFNS4ZQoot/BjerQrq0MrSb8Tbb8lZq13ySa1L3qNqnVpvNK93bRL48/wDukd1LJ0+s3TG3XqPaVBZoNCemnXUtMyjcpOVqbmQkPIp0ilKfs+SmFNJLjuFPPd1HrFK1apiJKdWV5JfBffwLwhCnFxirK9/3KbdM/LW1L1S656lVC46tb1EqVSZodBprtXmZKWlZVTy5WQp7RR9pVh5P+EwwlaOd5SQpYHSkKUqsoxukpNK7dl8eS8yZTUE52bstjrMrS229SNPaqi+7CpFGqWo9ESzqDSFzzVadkZSYnftGVtgV2SlqeJyYkOWXce+U5pP59s+C5MMNtvuziaNOnOcKdRygno7Wv5210vsnrbe2xFGcpwTnFJvlv87a/Tpc8l+Mz4ZXDbrU7KylH03ollytm2SuhW1SqCiWaZYmGG5p5F6ag3NNp+06pNy0w6uYcbLqVTQQhDiigKUOXiY0pOTmlot/19TMqMW4yy3d/qYht/U+79A5O7V6T1+p6xaKyWqMlY9VvesSleVohe1x26uUuqd0wp7rbzMnU5R+QaD86potLqUmg+ClMsrnd8u+FcInju97ml/m0abnDSKrKLvHvFzTTdk3dJ+e3ew0sXQw8Z56rwLmlK93DNZSyPr5rmvI4LuSv0CqXpdGpxsG39MqZddfrdyUTTagTVSn6BZ1FnqnMT1JtmSnavMTNXqVEoEvMNysoZpbjq0NpKiequ/hMPKlQoKrN1K8YKLnL2pebtpd87czDWq551e78NFybSWy9F0O6/BPcelcpxIW9Q9WtZ6twwV6oV2zbV/n2hu1Vi6tP2rwnEibrVIuG2mLkqFuXZS+djx5P7IfmGAtUs+9JlTq08ntPw3E8Q4fjuD4jh+CxXC8TSdOvRxUI1aU6b1lGpTaaa01WjTXXQvwzF4BV6OInXxFOtTnmpyotxlms14Wut3bRpp+h7c8elz3vWOCzUm2uKfiVtvWqn0KdrbOhmod/wBn2jovfNZt1ipUClTMo1SqXWJf+bKlL1+SlOWbbZQt19p1DqytmbMt9S/w99kexOD7B9ucNxOUOzvY7FYrCOjZTxDdSjGUKksLhc8XkjTjTSo05wp95e8k7t8nt/xTtDguL8D/ACMJcS4vRp1nJXjTSi1FwjVqyi1mcr2m4uSWqTW2OVYlU1es6ap9V0q1Sla+iRnmRJW7cE7K1mnuSwy66KbMVFzkUPCwFiRnXVtI8ywBgx+ruyP+H/H9p8NW4h+BX4o8M7RYulUTlw+cXgsbOMU5OawOPtSxEIr2+7q1UtU0+c9i/wDGh+K/4E46E6uI492ZwVVazo1XjeG1Gl7FanT7yk5aWip0M2qytcvbDh/44OHrVaxKmjU6tO8OGuNjScjI1W1VUOoL011olG30Sztx2VcNNqvyNr3nJha1TlHnqRKmaRyutTL7niIb8T2j7Lfg9UhjV+Ov+H+eBVKcVW4lw+j3E8O5TjSqfmOHxpU6tSmqjjObo95iKKk7U3CMrf03/wANP/1DO2nantTgux3aXinDeOUMfOc6FWviKSlSm4Zlh6VWUO+y1XFqhTrYivFS/h0ZQi8sfXTgU4sq5pfqDZNw6N6lNX5Yt43fRaBXbcp8zz0+5mq3VJal+BU6EWmVyVcbLo+XmSwzNtLSOZxTXM2r4d+KX+H/ALEfhtwjB/iX+C/bpY3sxicknhZVoVIVYSk4uNNXU41YXUWprPTknGaUrwP2N+LvDPww/wAR34f9osJ2k4DT4b2t4fgK1WlVm13+Cq0KUqrUal83dXTU6TcqU43cYxnlqLM3l3OYDCFIyB5VHJSdvIr0Kd48K9j+BWzavfXfqTkUJEAIAQAgCVdnZJg4fm5Zk77OvtNnYZOy1A7CFna9tAtdFuUFd5W4HjKs1NiamuVaktSocmAeRsuEKdaSplHlHdQzB6JslRd7WMaT4qtQVqJxV8LtsPyE+ZGh636eXJN1AhSJZFXs6c+2qIHFBtxtcq4icfwFjlUphQA5ggx6Hs9ipYbA8drwqWqvDS052ir325NrmnoZJ0I1a+AptPL3ye3Pl9H9o75NU2h3VSqla9eTJVeg1iVqNJrVNmuddOcpVfk5qlVuRmZVJPitVGQnFo8NeEnOB1j89PEThXjV7y0lPMnyT6+b2t5n0ydFSpSp5NJRy7K7VtPgfM94l9Fq1w6666waD3AiYTVNKNRbqsj5h5ksrqVOo9UfboVaQ2s//a3Bb6pWeZOSC1MJPePs2GrRrYelWTVpRT6621Xuej8z5tVpunKdOSs4tr9vitTrhMMrKOblJBUW87Ec4GSnAwebGOgOYy3KdCntlTa0r/qSdgeiQdv1Bi+ZWK5ddDkWgzS23Agnl5SOZBOSCAB9Nsxja1JevIyDfge/Ekn+AviPkaTe9bmW+GTXOepVs6xU11wOSFnVon5C0tYpJpagmUcteYmRLVpaCDMUJ1xa0uuyUolMLxeBvd6eT/v+z5GNp/fP75H0nGXmZhlqYl3W32H20PMPsrS6y8y6kLbdacQVIcbcQoFKgSCDkRiBEgBACAEAIAQAgBACAEAf/9DP4gBACAEAIAQAgBACAEAaE4/e/wCHrAHEuvWjlp8Q+iOrehN8srftDWDTu79ObhDXKJhmmXfQp6iPzkmtSVhqfkBOB9hzB8N5tKsbQa0tsTGWVqSPjga2aTXpoFrLqbohqBKrkb40j1AuvTq52EB4Mmt2fWpuiTc3KKebbU7Iz5lPmJZ3lAdYdQtOyhEp3SfMs45W1y+7FMosm+6StYLniKClKcKsK5iDzFRzuVH65O8TuUOxOlOmde1h1G050ctVtTtx6qX1aGnNE5c8gql73DTralHXVBJ5WJd2peItRzyoQT2Jh5LcfQ+ubatt0XT60LUsK25ZqQt+ybYoFoUOSlkeGxK0e2KTJ0Wmy7CU4CW2pSTQkDtiNiK0SML3KyqdUThOR369Nu3YZBi2mn39/furcjsTnOAoKJGTg9AT0GMdYhlk9CrMO5HUjb2775ye8UZYnAscud+vTr9DsMmKXLI0U5juNxjbr7Y/3hcEu5MAA7g4O++B9T0329oi9yfqSi5kbZx06dNvXHtC4tYlVzYGP7dfb+/0hcmxJKmxhXm9Rkdfw9IXFuhIuzQwd8+nXJ33OcdQIi5azKJNPA8xyD2x3wBuPciKkr0OFdWtSrK0f0/vTVPUeus2zYlg2/UrpuuvPS07PJp1GpTJfmnWafTZedqdTm3AA2xKyrL0zMvrQ002txaUnDOcKUZTqzUaa1bbSS823oZ4xlJ2hFuXRK7fpY+ar8dHjEsTjm4kdOeIjRx+ck7ckdIWNLp+i1qh1q27gtmZtjUm752mU27FVdLcpVbjrFNu5qbWimh6TkfmESpceW0uYd58cTifHUrU1Chd5GmpKUbXu2vDrvo9Fp5nRw1HB1FUh3idfw3UtNeeVb6ba7tX228VaUur1GfXacvZMzPOF6oNSLqP/kkpJqp0umZrlRqM9OJapsjSaO3Mh6eecU2hgHClJKgDvUZrE00sNOMqjjm0s9Ovo7b7HNxsFg8RVjXi4wjK2t/h572sd7NJOF7RLVHQHU+t6UcX1uyWp0zL2lItaH1/TO5pbVC/Gp9Tjdak5utU/wCaoNl6YW45KOz0zVDUXKe+ZZpU803NKk5ZziVuOYvhFPF1OKU6VPB20kpPNPWyhFW1b0eXTV6Zkm1njw3D8RnQXD3UqYn+lpZY7NzeultUpWe3K+vtZ8P/AIFLQ4brUF8PXNphWNQqrp1TLpcqd82hUbykbXnb4Sp+wb4r0nOGXtWrz9FpMsuqW7Y7DFxTs7N1CmzlUlpYJUG+PRoYvjGJeP4rTpd1GC7mjLxKlm3dSNrSqOHK7Sva2jv0s9HhlBUMHUm6zl45rwt2t7Mt1FS05bXvqe8OmfChOaw1OjXXedtu0iRpshJKZXdsnIqrCWpFpgMV65pJtpdNpIlQwldLtiU5qXR1FJfVNTCUss+wwfC6VPupypqKikkrJWSSS02SSVklsjz+KxsqtSbU25Ntt3bvJ7u/O/N8/I7X3dwvaQ37Zz1k1C0pB200tIYqtenJRH8wVtbZ8Qhc8nE1MKmX8OBhS+Qr8ywSBHUq4ahUWWVOLT5HPjOWkm7Nczxt4p/hq8O2nUrcy9ObnuKl6kSVrpuWjaF2PWKTV7xNuPOzyZm+67bdRnVVCco0k1KPvvpZlwRKSjzwSGmHVDzmM/DrhHGbzq4XLZWVTbK+XiWzb0XV6czfodoMXg/DGtmT1cXrfr7ktX8TxiuPg94j9Pb5NQ0vsa/ZqkTFAr1VqOu/D/dFHpFtot5yRnKRWJhm9NPrnrtiXCxM0ytzEjMtqmW55YmHmhLFp3mVxanAO2fZeMqvAO0Pf0IWtRr5pXWqspe3G3J3SNt8Q4NxRZeI8OUan9ULdd2tU/PTkde63SLhmNSrMv8AuOl028BZ1IXT5e26bOVTQ3UusTLTU0zI3RUL1kHV1qv1ukzj/iya0VGWl5YS7EpLNMU5lMlCh+JUKdenDth2cq4XKsrnTvOk/wDc5JZ0766ppaK+VJGL/hyX5eq+C8TjUc3dKdnJa7KOkbJacm9W7ydz1N4cPimcYGmVcVa9vcT1A1UoVDRL0qh6afEQYkbK1AqEizIrnJ+bo2utOqEnLyKmWKRUJhczV67UJGRlVybCRNzj6WR9A4dieEcYovE8D41SrUVbRuN3p5NpbNtNqysndnExTxmAajxLhtSM3u4JySu7bO0nq0lZa6vRK53S4WvjX2FOaizen/EbqOrh5o9UuFuccsvVqgz+rjNIt+qW5TXKRIUbiVsasM1BM+q6XpqcflrvttDEjTnmpT5plxhaldOviaCjlrYN08UlvFrLfS142003tZ3epio0JySlRxHeUG+a157PS/JLdaHu1T79tfUm3ZGu6VXPbV7WhUGFPSN62bWqRdlpqYcTkmUrNGmp2mz0+oDzDxQGh94ADB5c6qavGS0N2FJppSiYm3xa/if0mrVeV4f9HabqFXOG5V+Cy+IzWLT2dbtyp6pIoU1IO6k6V6Qah1im1e2WxTaVPoTVJ7wJozLj7bYl1yClic4eJxUqsMTHDTh+YjTzRi9XrdQnKCal3bknbbNZ2atp1qGGUZUZ1oy7iUrNrRcrpSemaz919jG0CbQpU5Xq8EV2XsKYr85XaBRK1OIbqM/ISipyRodWuSUlFt0oVWSoLwadWyhKA468lspQpWdjDUJT7nE14RWNdNKVtk2k5KN9Urr5K5FarljUo0pP8sptq+7V3a9t3b9Tsfw46CTnFDrDb1g2JqZphpfqrWqkxS7Hpuu9easiWpBqNqPXVK6lTK65Js0Run0mmMJXSVCZennZ56XVLSD7paKMGI4hxHhmJUocOdWnlbcrxSgt83iktVG8k2rWTt4sqdYYbA8QoShLGd3LNtq81v5fCno3aLWj5PS56XfCv+HJptbfHjpTpZxD6qWrVNXtRK7fatMF2uZm4aRKSVn2tXrlRezaq2KJNKuG85qkLYpq5pDb7LYcLCTOLQ7LxwvE0u0NFYmNCf5DV2kvbktXGSTvlW7tv5GSrh1wOpCVWcXjMyy2/kXJ7Wu3pH9T0p4+f4WnX3Xe5axrPY/G1J60arTEtLSbdE1us9diU9mhUxlbdNtiz6naU9cFv2jRaWxhmn0qXpkjTJVBwC2CVR15PGJ0nLJOEI2SXhyxW0YR9lJcoppGu50qspOUpKcndt+K7e7b3+TMcTWXgG4+Ph2yKJLXfhavxqy3riWH6zIU5d1aaXFUKuy3IyEq1f1lyt0UJqp1ASKflZZ51EwF+ZCULBxv0KuOdfA4ng/Gq3D+KYebnGcfA1LRpqV0na3V6X8z33YntlwPsvhOPcL7UdhsD2g7PcQo93OjXdst2vHTkouVOeiSkrNFeqWjmq1QsK19X700evixdPrtpkxN0afu6lPXDbNy0FqdTRnxSr8kpduhXSxRay0JabZWUVKkzbaWppCF8jy/23xr8d+Nfij+H+E7NdrakMX2lpYZUsXi8icq1K8XDPGN1O8oQalNuUZwjJScmpH5Own4ccH7JdusV2n7HQrYLs+sRKphMPKopzoNpxku+tF3ipyi7Ri5J+Jbp5V38Ndpbww16u6rXTVbEvt7WyzBb1XpNZvCsVOoaYUq3ZbwaTTW7VpszISkkm46fPoLrT05MTswllX+DyeEtavyBxvslieCTqxwNKu+FVKzlGm6XhjNq7cZZL3fOObTR21u/wBeYn/EV+I/aXszS7KY/jkVh/y7pVa1Oyr4ildLu69a7lKNtLK2dZlJtOSMyhNw0hkYcqUoD95XK8lxWwz91srUSQe3/ngx4ZxCdmsHP3q31PljrUl/OjYb2o5V4cuJ2edwSEy0ooAgY/rfLDYA5h3jOuA422ao6dOH+6S+iuyPzNPldv0JWZvCdbBUzb7oZThSn52fl5VAQQo82G25gbY3BUmM1PgmHdlU4lHP0jBy+rj9GVeImtVRdvN/9zrjfPGhpFYVwTVp3Je9uUi45WRTVHaalmqVV1FMdccZlp/x5JgyhYmnUFDWFFTi8pAJBEdLD9k62JpRr4enUqU2r38KXz+Zr1OJUaM+7q1Ixl7397HWTVL4pvD1o9QK5eWrNxapWpY9Fl6a67X6VpHd1Ucedqk+ZGTTL0GiUOrXWunvrSrNQVKtU9ogJW+lSkg5cd2TxWB4VW4t3EJUKdSMZJSzyjm0Umo6JXsnre7WltTHR4rh62Kjhot5nFtNqyfkr2fmuXv0OkLP8RJ8PW8rUvip6R1HV7Wq79PNM9UNY7ssOo2/VrFm6Fp3pdRHKrUq/UKncRXS5pquTqpSRkWKciozSXZ5Ls21LSrMy+z5LWeaVKKyRjmk9rJNL3ttpK3XVo6U5KnGLl7Tkkl5v0utObLF0k+LHb+ttlaG8SVvUe3rK0S1dk64m4aFU6qmq3ZYV3Uiu/YFwWxUqtLMSsi8xQnmfGbmmmGFPs1GTWtthC0+Ls0KP5qjK13U5LzK1K3cyi20onu9YtxUuo29IS9OmGHmJot1qTebebmPnJKdk3FJfS+hSg+lLqgAQSMKGI5srvNdbG1o8rT3R0/4hOHOgah3c1f9MRKyOpdPmkIojVyVSaYotbEs24iVEk4EvSVNnWWpx0JSphS1qVkKSUgjWnHHKnVq4GrH2WpRlZxaej9Hp0afO250sHiKFOUI4mm3FNNOO69eq+a5dDS3bWuumPH7Y02uqVm5ZYL7tMekK3IvLLKEuOSE7LTBWptIJQCptCtiRymPmFbhmKoVv4nD6110WZeqav8AfQ9gsdRr0vBjaVn1dn707GJh/EqcGdwWvqDp5xxW1YlxUWzdTJWlaP6tzs9TpeUYl9SLVpKlaf3LMBmdmH+S8rHk10wLU002h630JUfEmEBfv+z86zwLpVaE4Km1bMrXT6Lon82eP4rGlHEOdOtCTnvld9TFQfQok9VZ9dsZJ336jaO4c3kSXIEkkgKBOxz122GBk5A7RJJcdIcShbYCsrJ84wlPKUqHKUbnm2PoIta60DOwtlzIKmkOJPKoBKkLGQtC/LhaT5VpXk5BzkRjavuUs76H0Wf4fXjIqPEbwgOaNXrUXqlqNwsTFCsP7Qm3C9N1zSiryU29pXU5l3wkByao0jSJyguElbq00dt91RW/kzUvJKo99n6rn7/rcps7ff3+570xiJEAIAQAgBACAEAIAQB//9HP4gBACAEAIA0yD0P79unrADO/7/2xvAGsAafvv+zAAfv9/v8A2Af8wBpv6dv7527ekSD54f8AFi8KdE0h4wdLeJWzFSknNcV1jVOWu2mllzkl9QdGk2tbc5dCluOmU/8AqGyrho7HhJQjlepbzquZTpILnp9/f30vdOMXzWn7fr8EYyNUpuhdS0ZkJ6iaha9f/FgzqgmjXrZqrVo8joBJ2CqRrc3K1S3r1p9dNe/mFkyEoTKPyLbLhcmVHlbYbW+V230+/p+oSVnd+Lp8P7/bMgL+Gq4fHeIXjws6+7jmKZVrf4XpS4tT6gqZdl1zlTuKVpLFB0/T8iSlx8Sdy3L8+iaQlSULpYCsEozMZQcsqfi/a1/fqiZ05wpqpKm1GSVm7q6bauuq8MldaXTPoyTCuqiQfXc9/bbf9/TZRqMp3iHnIOQMbAbZz29M4i3oV3Jllw8yUjbB2G2/Xrt/4irLL7+/v9qww7t5tiO2/Y+vXp7RRmRalRS7kZCt/Xbqe+OhMY2TZkFyYAB6ZyMgjcdySdgIq30JSKY/NDJ3Gx7Hl6dMdAc56xFy9n0KU9PAdxjoMbH0/WIzdScttylP1E/5h+f+vpmIckSo87Egup4Byrv65JyMRXPd6F1HyJNVRBPNk55cYycep2G2c9/eIza7jKyRfnwQd++D/bc74MMzXMtl2LFuqmUS66JWLauOlU+v29XqdOUiuUSryjM/S6tSqgw5LT1On5KYSpiZlZphZQtCgQUmMVWFOvTqUq0FKlJNNPZp7prozLSlOlONSnJxqRd01umtmvM8SeKX4GvCdr/LVZ6z3qxpRVKnMrqC6Mps33ps/VHXvFXOv2pXJxiqybrif8MfKVNpptvlCWsJSI82+zEcMpLgfEq2Cu/YT7yi/WlO8fhY7n+b08Q1Li/DqWKsva/06u99KkLP5bmHrx4fCt1U0M/nOk23fOn8nYVD1OoOld0Vq06jUk2/cuo9epc7d9tWxU2Z+q1C8KbmmSjnJItyDdJaqUuvKFzKQ5HE4L224hUwuMWK4HFUaGOrYWToLLKc6EpRz9237ElFyik4q3K51u0fYrAYXH4RcP43VrutgaOKgq8MuSFaKbgnmldxemdyk5xcZPI5OEerOiK+IXgHrj8+9YNCm3k1aSn61K3rZVLvKz5+oUxafkpabmfBL6USwQpPy77yUJc5lFkOjI7Dl2Z7S4vB1nXvxGhrCMnKEo63v3UrRlqt8r052PL05cX4NRxGHprLRqe00k0+S8a1XpdfE99OET4xfCXdup0pd/GBal8abXTLTLZtu6qHTpjVHSq2Z6clk/bF4VqlS6hqIu7J95IbZmEydWRKMcqWgyElR9ZhqEcPKUqzzzb002+ut+fQ4lac57NKNtfMyl9Gda9EeIm0F3XoRqlYmo+nEmiXXNzdl3PS61WTOOs+LLytw0WXdbq9u1RaFAmWn5aXVKo2KAY6cakJaxlqacouLtJaFJ1u1XesSjzdLteWk5i/Zi26/MUhtT1FmKJo7LG1bjqVB1K1OpExMrqEtaT1dowlzOLl1yiXT/6p1hoLWnqYHBSxMozmrUsy1s/E01eMdk5JNeFO+qsjSr4iMPDdZrbdOjfl57efXzP07oGqusl36ds6LXlRp9i3tSGK1xD60ptuks3dR7zkNB5e1bz1BvLUEVWpWxq1euo9H1FZlbSpdKok1atPoUu0txxmak25dPWxTw+GWIhVpvWNkr2TV04xUUlZq0XKUrO99/CjXpqrVyOM8rWu1993d8t0knqmvNnqtprw/aeaPaX25YNDogXbFHp1JlJWRqLTC7h1DrFNpsjSW7uvx+VYZVWapPS9PaU8txOXeVIIwABwK1SeIm51ZXb+S6Ly/W5vQXdRUYL7+/2PJLje0y0F1NvZdkrpFBltQGNR9KbN1Ouybo9uSDVu2XftGueqtUzThM3PfOV27Jin28uVk3ZGj1WVbm0PyiVImW5l2Tq+A4XiEJSxVGM4ShKyd9bW3Xs26NvlsQ8ZPDu9OclJaO3z219fu/jbPfC815uSRqk7bMrY9yad021Rc9NuRuqrv+zbpXUbtvOky1ky0zNsJaquodEpFvSy6s7R1GQk5qbDfhsLTyj5/wAb/DrhtHEvE8Jr1cLi9vBJwkrK6eltHpo1rvsd/CdocXKmoYmEa1F8pJbfv8zyz1J4WqZQqnNUu5bduPSC4m5l6V+Ylmn7jst+cQvDxXLuJTVaYkc/mSFZQduWPOLi/bXgNR0sTTp8SwsXre1Ksl/1LwSfqrvqdGNPhGNvkcsPWt/1Qv8AVfocCaY3fLaHazSFgXvxBao6V6PXxMu2jqrqBw/v3BU1M2vV5F+WqD0/bspNUqSueVpCnErqMmrxD4KHWW1h/l5fV1uJVsdwVcRw3CWsW7ONKtaLbTWl0+euS7SbteyuzBh8JCnjVhquJ/ha3nDVarzXxtdrW2pxJbty1pFpDT6v3/dJ0YYvOoai0uyKhUJhygu3nNUs0IXUxRVnwqW+q3kIlXylRUtpIQSpQ5h0qXD6Kx0+JypR/OSpKnfKsyhfNkzbuObVJ6J7GKeKm8NHBrSgp5t9HLZStydjsBw/8I2t/F3dazw5adr1wrspI1dVr25TpijVKlorNGQ3MIui66W7PS6qNatFlf8A7c1kSNImZ5ct4jzrWZR+s+N4bA4tYevhqjrPSPgk45m9G7Jp23te2l5aGKfDK2Lw3eUcTCNJXcvElJpLVLVNX0V9+S1s1cehnDK9ooi/+JnizlaZL3rZH8xXPaunWoDk1XZldyStVepcvqVqNTaGxcNXqFBRdyUy9PS2w8xMTWHHnEN+GVcjEcTp8exdLheCx+WhWUnUrrM1oszpwaT8clo29r+Ta2MHgZ8LjPHYnB5qlJrJS0XNLNJNrwxve3O3uJTVJypalSj3FRR9c9NU6m27R9Fa3X7Ll7oXZesLN01yjUxdOufTeiyk4s1+m2/OSzb83NUh2nu0Z1RBYV4LkwfZcMpUY8OwMKNSEXRiqeVaSWSTUXyzNq0nJa3ve9nJ6HEsTVq8RxKr0ZSVVZs1rwd4q8dPZ1bSi+SWuqR6I6O/xAXxYdKLHkFT9/07VmzLcakqWivawaPSt4u/LIT8nIy9S1EoibVrlcm3lMBHzFQnn56YdJKnXFZI30qbk1JxzPT0e+yaV/0+K1lSai5RclFe9fFpv5nbTRT+KV4vbqvy3bf1CsfhgpNoeNMVm5atJaf6l0yrVKi2/LO1iqW3bCpvWGepdOvO5ZKQekKTNT0uuRl6i80qYbW0FJPuezfZCPHKsaNNVZV5ezkUWr36SktP/wBl0vrrxeJ8T/y2k69etThRV7uTtsm91tdro972M89VCfvvR925dIq9Z9Yq912qzdWllbvy3mLvsRx2sUUVK16hP0qkzNAn3qRUkTrS3nJScZmA0slCz908rAcQ4ZwntPgcD2q4fi1wTD4lU8ZTwlbuMS4RqWrKnUnGtTVSKTyKdKUG0sy5rYxlHFYzheIrcGxFFY6pRzUJVoOrSUnG8JThGVOUo3azKM4yttJGNLrvxy/Gm0d0n1V1suHhV4SrStrROuVOj6gUKeevSvXUxO0CXoL9Uq9uWjQtUBUKxbRotWVcHzobRKS1vsuTbjhYQiYe/oTxz8I/8JlWPCuE/h1+KvaDiPF8fgFi8PUrwhHDuhJ1bQq1vydKFKvGVN4aUHUc3i8tGMHOUoUvzhg+2/40YVcS4h2l7KYCjw3C1FSlCnTffOolTU5qKx1Z93ebqpqnKKoQnOVTLknO1OAj4u2q3HNJ6m/9VUp0brmhtNkZqo33pNJTNF0Mv7+dKkqj21at0Sdws3rV9PdQZGYknJiQdlapPy1VpTU++9Lyq5ZtY8pX/Crsp2d4pV4B2bw9LtC6+JyWxEJ/nsMqEO8q1qcY1YU61Copa0pt1It4acJqNfuX0uEdv+NcbwscfxlS4bGlQzuVNxWHqd5NRhGblCU6c4v2JxlllbExnBSoxmdg7yvm6NcLPu+xNKeKviHsPW66KdQKFZ2qem9DrDspTa6q4GJ6r2ut+pKp1DmZKckJNtkPJmpN/wACaD7Tmy2jv9vfwuxS7MYnCVuzHB+F8DWerKUqtH81RjCMXSxMIRbqXbzwqU3GcWs9NqMnCpHb7Pds8NW4ou44rjcZj2lGOWnV7iU23mpOo0qa0ytSzJ2akrxzRfVymfCN4mr1qV4scQl3cUXFTLTlWuqSoU9xGcVdd01sGj0Syb60snKVVaJblh6hXdddQrWvml1duhilO1OVlJay6/SPAqNPm5d6Wqbn4wxOE4fSxcMPhcUu6kk5ThKc1BvLGUYxp5MzjeU4zzNSUYxVnJ3+x0qnEZ05zq0FGSk0oyssy1cZNtyyp2UXGycXJy1SR2noXBTqZoToRYPDnY1d0ZuyZs+8KbQbcrbQnrdqlvWlVrYpFcuCjvMVpu4ahJ2u9qrWaxNyUmJuqJ+SqjLSFtKlEZ9DgMO8BThXq0qlPDzo3SUX3ejcZKKcpa+B2Td4RtFyl7T1a9CrVhJRlGU1U9Gk9bNpK+6u0lmbbstivJ0v1QtSTo17asa7aaUS17HuBem9Ro9g2jULonZmjNzkua7IuV9UuxVUV+svzwbWy9LuyjrL6vmkuMOLZVtVOMcLw2G4rhq+GnOjOlmqZ2krySjT8N5Kyk4tW1Ttls7SWSjwTH4irhpQmoyWyS/lWsnmdt7PXZ877ElanAz8K/hQt/U3VTS/hMp81UqxQLNXXpip1K4KnXqrRH6DUZti2bbmK5XJz+V6FelLcmWLnpUn4FOrslMvSNQZmZBXyw+O1cNhcPSr1acfaoSlZXfst3Sv1t56bnsaWEq1pQoTatmtdvpbV2RUtCLM4Na1pnddB0z4ONO9K9M7LduGvIsO0pX5i27hrVwUWgyNWrleoVOlEylWrDVOk5Nph1YdWyWm1JUFNpKfP4fHqMs1CnOPitpu7W2+J0sRwiFNU1Vqwkmuey+L1/sesWhLNFRp1pw1IUyXtWQYoNLk5Wh01992VpNOZkky9PpMrNzbYnn0seE23/i+YY33i03UeapUjactX68zntQjLJB3inZO1tORL3bVn68blkJtEy6ig3xb0i1802rwuZySlamBKK5ErU0hM2Ob/vSRt3xNRWErNJeKm38Hz+BkpN/mFHpJL5FzWnNzTKGzLT06w280y6UMzsy2j/GbSpSEteIS2BnHL09I85Wqy8M41JJOKe7t8DswpwtKLgnq90ii8T/Dvp3xfaDai8OGsDE7P2Nqlab9HqL8stC6nQ6q3NNT1tXbQ3ZluYZlritC4JCWqMipaFt+PLpC0qQpaTt4bEyp1aM5Xkrap807pr1ts+Ts0adWlFxqWik7722PlncZvCJq7wQ8QN88O+s1IclbltSZE1Q6+zKus0DUCyKi8/8AyvqDacw5zInKDccrLqOApS5Ocafk3wiYl3kJ9RjcGsL+XqUq0auDrQU6c1zT0cZR3hUhJONSD2azRcqcoTlyqU3NSUoOM4uzT69U+aa1T+Nmml1RUws5IzuOowQAcY5h0Bx+kaZkXQqlPbCHEgbqO+dthlJHuSMfjF1pqOZznaDoS4z2OfNnATjHZIIUD67/AIRjb5kN2Znw/wANDwuai6a6MawcSl90iftyjcQC7Eoul9Lqcu5KTlasmwP5om3r6Eu6UvIpFx1m63GacpaEl+XkTMI5mXmlqiWkcv8ANe7/AE+/TzIkmmr7mTvGMqIAQAgBACAEAIAQAgD/0s/iAEAIAQBDWr0Pp0giSEFf0+g3/wCfpmIDIqfT26D8s7/SJWxBvGBt/tEg1iAad/06esSBAEJ51qXZdffdQyyw2t551xQS2000krdccUcJSlCUkk9gIN21exO+iR8/z+JL4qqFxT6qUvR+mWw7JUPRSzW7js6uzpdTULvnbmqbv27PU9scvyLUlS6fJuMNtEuutOr8TzI5EaVPE/mLumvAm7P4a28+RtSoSo3jO19L+vT3GEpVqle/83TdNoM9Um5GVeabQ85T2Up8ZCUuGWedmZdPiJQ7kALJ2GcERuXa2NfTe57lfA24l65wj8bdq3Exdk3RpjWel1HSmp1lU1MGjs1u556lT9sNV2l+Omn1Oiz91UaVkJgPZEuicMwhSHGkqGDExrOk54eeWqnfS2vVPr9dDJTmm4wr+Kla2rfh9Olrt9NXpqfUK0e1Kb1Y07ol4qkvsyozLKJesUsklMjVW2WnJpppRAUWVJeSpO5wFY6gxk4djPzuG75xtUUpRkv90XZ28nuvJlMZhXha2R+y4qUfR7e9bM5CWsAkk7ZJyOmcbDJGSfrG/qaliK2oZ2O/qfUjGRj3GMRVklTad5QD02HUdN8nPYxjbLr1Jrx8DY9epxvnG4jG2y6JN+aSAd/yGDn8Om0Y826MligzM7g7HbffP646jqIrJ/f39/pZblvzE6RzDOfcHYA/64EY3Nvcuo3KG9OqBxnrjf2/f79MbmZVBcynLnSCcqOd8fkBvFXNllAl1TpHfbrv9f3naI7xlu7RLPTpION8/wDdgAb/ANospN8w4IpbsxzHfckb/nvnt1+sXTDj8CQyok4/pGSR91IBxlRH3U5/KLp3Ie1+R4L3rw/a+aJ6ha+3BaFU/naT4hOKKe12pVKk7ftGZftqWo89X06fUG0JGqU656xK3XL1G4ZyoTdcWmnPqdlWBIAIZcXNczD8IdOri5xUIqrXdTS7ea1k9UsrtpZfHVnQ4nxqNelw2nTlUlOlhlTldKKSWjgrSlmjZLxPK3drKrK/G1W+EzIXXZ9Vrlw31dVO1Mq8xOVO8rlVNl2jS8/UJpdSdtymURwPSddnDNOKE2uZ5mg6o8qEDnVFcb2R4Xj6a/NUVKtupW1XmrWd+jucaHGMZSyqFSyXLc8XeIz4Sd/2uJ24KzpzKuUB6cVJ0q6dOZiUo9xT7iitLExM22A7bFXLQx462xIBxw8qFFZxHDnwrtPwW0uG4+dfCp/6db+IrdIzT7yPLdteReOMwOMko4vDqnP+qDt8V7PyR5hULSHULh31qtur29fuodsVu26pLVCryum9dmdJuIOmUVp1Sptq3Wqk9KJ+0JlLCm0usLnUIzzKl3MBte/gu1NChUpR7RcPr4SGazmlnpP0qJeG9/51ZefOlbh861Go+FYilVqW8Klo78m46OST5J69VuvV6zviB6n0jWixboXUq7xw0G263RpyhcPt/v3Na3ERZV7XVPyVYok1bV0TdBqdy6jz1gTjR+Ycqcouh0uoVR2ny0zUmUNVFz6ZQ4lDE4Ob4DjKVfB1WtI2c9Vaya3VtJN7N2zO1zyvczpV2+L4adGrBPx3tBpc2rpRbbeVXd0s1o3yrI74Y/io8Amp9yVrSdy+KVoJq7a9y1G36xofq65bFq1GpX5TqgaXVESeotDrFY0lviYFXbWwwmnVp+Yd5NmAMA8+tXqRrVKWJuq0G4tN3s1o1fbc36MKVSjTrYa0qE0pJpWumrp231XVHNPEdqVc+qNn3ramjlWE3Ptz1/WLqrWWE1O16zalCotrzMpcr+ldaqV26Z06qXNbNcrFNVMzDNZlJdUimbRLTzM0hLqerg8LknRniFbMoyhzTbfhzKKk0nbpe5qVayeaFN6q9/K29r6P0OquiuhtwX3WK3abNlSuh+hGn+slg35adDk7Oum2KjU6DSdJ7jsqt0HTqtTjFj3XaM3dFbmZafr/AIrL7tOn3qi0xOVFudTORt4rErCxg+8VSu4TjvGSV5XTdrxdv5dNVurWSxUaaq6KLUVZu6km3tbXX116PQ7trta17Ttii6eWJRKVadl2pSmaPTZCjysvI0S2qJIM+G1TqXJspQwmcS2k74wjdbhKjg+YxFaVScqs53nfVvy/RL3JaHYpwSioKNl5fe5i3fFK4r+Dm9NQbw4X2NaKNpDdNq6fagVus6sy9m1i+2JrUa3KMuctPQtlq3VKfkK3ddQl3WahWn/FboDhbaLappx1Er5fikp0p4WtT4d396sVJZlFxg7+PXSSTUVlvd3vstexw/D0qyr56/dQUbxdr5ndaaarS7v5GOcxqjq3q5pNpVoZqffErVdL9BZq+6npLSKjSaFR5mkzOos3Rahd1NarEjLpqtQpEzO29LOJ+aeLbDpeU2kOzDqznwvDqWExfEccqa73ETi5Wu7qKtF2eztyWnTne9fFOtQwmGT8NKLSukrNvVXW683r8EWhK6a3dXZ+YuJ2wrnvO3pWlTdXtOgUqiVSdot6zFKQpc3NVZymoMy9pzaEuyp+pqkG3xMFCJRS5dDrj6dulxfhkK06NXER/MRaSg9LyeyfTa9t5bLm1pYjA8Qlh41KFJ9zL2pr+WPNrz5J7K9+ifMvDXJXtoNRLt+ITq1WtTLaoFvzE3b9mUKzKvXLMrmrd33pK1ejydArs9QHqWKTpdPs0+cl5qXcSiUn5SUelm2lNNFtXnOO8SnxPFS7O4GpTeNrxk6s3ZqnT0zWXOdpJJLSOaLdtDe4Ng44SP8AmWIhNYSjJKMFe8pa5bvpdXu9XZnXzij1lrl96+cQ8pKOTFbomolQsqjW+xLTz7tMty3bRfkatTaJSmXFYFFk5p93wmykqLmHDl0lZ2Oz+AeG4fwe0bOlGea+8nK8bvz5m1xTExqYvHtO8ZtZeitZ6eXIs7h6tquz2sGnlh2zo1deutWrdaSappVYs3Oyt/6g0WmNu1u7LctaqSlKuKdpdUmrcpc0GZlmQnXJbBWlh3l8NXr8HSTq51Sc3FNtL+mKzSd7aWSbb5JXOBiaslTmu8jBytFN7ZpPLHS6vdtJK6u3Y9Ofh1Xnp/rrQtatA771T0p0Br1L0bvK+tD9VNc7+uG1qFSb905uelahWZp85Mz90S9jCVuGsuzzPgGjvTKXHDMtpcW0mXd1OJ0sVQnhsfh5Ve61zxhZqdlfVWvmaVo+JK7WvNbuDrUrV8JUhHNJJJu6cL873s0nurNrdWOK5O4+DuztMZfV2za/Qrt1JpHEtqK9IaOX1p5dlHum7NGL50qsmr2Wb6+Xu6uadtabWBqJ9u01aaPM0e8JlqcTOIm0EMtSPv8AspjcThuJU6UpuWFdDKpyStCaay1JQd/ZV73zeJK2+nIxVGWIg5Oku+UlJwV2pRs1KCmnF6ytbRaX1Whm4fC9+LJwy6NcGWkcrrxxr2be18W1w3zVQpmk1BfmKzJUCQtGXrFVtGzzNU211VK3L0TashL0hFLq85MTrsy2hppcwpTRc+l4rg//AN1uJLC8L4Pw7BY6XEqcsTjquIpUak6dV06NXEVIVa0KcoKpJ4mpGhTi6MHNyjkhOUfI06lbslh1Cs8XXo08NONPD0aNSrGDpxlUhSUoU5OMsse5hKrUtUkoRUnUnFP2Hve79A3Jq5bjuqk1/Uqs31RpczNr1dr7Ts6h0es2jTLeqlBosjOSsjKSlGrdvtolasklf2u0nlmkuICEJ7HAOC9v6+D4VwzhGMwvDeE4KpLLXg8mIrzhiKlanVqyUpynUp1W6mH0X5du9Jxk5ScYupwhzxGJxWHq4jE1oL+HLxQgnBRlCCaSUZR8NT/xFpK6sl1t06q+n1UrLOn2mmhel9lWRQKBclVoNmWfZdHkKBRazL0lTbNYlLVtyRp1ARW6k221LremG3ZgsMpaQtAK0q+kcX4RxHgvDavG+LdtuIYnjOIxNCFavUrz7yrTc4ru5V6kpVXTppXjGDjFN5pJ5Y289w6hw6NSnw/h3Z/CYbh1NVZwpU6UIwjUm5TnUVOCUM9ScpSnJpyk29byler1Ot37K6TUSrWvaE/I1BVzXDJPUiyraYpT7qvmKdLyiFyrLLcwy6ZWVKQ+laAnBClDYRxsRU4LHj3FPzOOWIthqLhLE1nU5zzO8nlazSzOLT8k932KFNxwlGMaXdxzyuqcFF7K2iSs7K19C27H0p1jF1Ve6b6uKpSFFXbVZtiWk6nWKzck7M1C4wgys2zSqSZuRbRIIlFqWfK4dhtnmPmcR2mpfw6NCnRdGNWNS0IU6dlB85NJ63VuXwO06NBU45YzU+ru9+Vk2zlij8NyKtfibqn7tn2JhV3W9WUsIpAlG3ZG2abKS8lT3VzUzMO5VMIU64vkbUcNgfdOfGcb49VqcMwWBjFyhFTT8V9ZSk9Fay9rzv8AC3Qw1oyquMUotc15JN/L3fS2NUNEqBPWuqiWaJ3UCqTutUvUatLqraWafRZet1Kku3g/VUU9xlbcvTaTIENMYL5W6EpHmKh5evXpTqcXnj7UlKjGy5ycXBwSu9XonfayZuRxGKhDD/lXeatG9lotb3+Pqc6UDT28aKh2pmw6Lb8lJIZdRK02Rk0zYRTZFdNpSXavcc4llP2fT1+GhSmQEo5hk5zHka2KwzTpwnKWlk29LXu/DFdfM3FKvO0qj1vey/d/sXvZ8pVppupCcpNBpTbjLkrJkVpmpqDbrjfzKnZSlUinSTaXvCBPI6vfA6ZMaFRUo93km3zfht8NW38F+11Nq7kv1Or1Y4stLrE4rZng0p1DrNb1XtXRy3OIdu3afLCRbr2l1Wr1ctqqVSxpl0vUudqVlV+QZTUJKoTFPWWp9hyXW+Ev+BzMbjqsG4Qo58q11s7PdrSztz1Rnw0KdVvNNxknppdPRWV+XwZ2TqU2BXZqQVKNIZqNWeqL7xW6t56ZlpREoiYUlZU0giXkkDlTypCtx1jn16k1TcL6fodClThdT5oq1CYb/wABKVlJDMuSkjoFI5x0B6BQH4RyJ6xp3euVHQi7Z3bmzmWSUhqbk0u5cSJNt0E7IUrKhy8pxjfc7dDG5RspUrq6sjnVW3Gpbe50K+Jf8LzQ74muhkvat+uCx9XLOTWajo3rVS6e3P1ix6tPoYM3SazIF2WVc1gV56VZ+0qWp5pSi2l+XcZmG0OD0eHqPu1SqXdBtyte1pNWzLo9FdbSSSeyceVJ2d1v+lz5xnF78OTjA4I77qVla56KXhKyMvMLRQdSrPtu4Lw0mviRLrqJWq2pfFJpLlPdbnGmvEMjOCTqsqFBMxKsqwISWV6O6+9+j+/XKvEs0U3Er3C18MLjz4u61ISOiPC7qxVaNOlBN/XhbM/prpnJS6nUtLnX76vxig0ObTLBRWqXk3ZmcWhJ8NpRwDF3bXRBprfT1/bczJ/hyfwzmkeg03QtTuNW5aJr/qJT3JaoSGlNuS88zorQJ9h7x2vt+ZqjElW9TVNKQj/AmZWm0tXnbflZtBCornt7O/X7/wC5XMo+zq/P9PP4mU1KystJS0vJSUuxKScow1KykpKtNy8tKy0u2lpiXl2GkoaZYZaQEoQkBKUgAACMZRtvV7keAEAIAQAgBACAEAIAQB//08/iAEAIAQBLLUcnPT223zFSxB5t9tumSdzv3x16RYgmEnp19O3Tsc4xvBEEXOxOCNvodvpEoGv9t+mfX2gAOnt/eANCf9j1H6wQLbvClqrtpXTRUOKZXWLcrdLS83kLZVP0yZlUuJ5cHyFzIwRvGOtFzpVIJ2bi18UXpSUKlObV0pJ/BmBV8W6x7FtiqWRetTMojUhmRuCgCkTiHpdMrIVGnGlSF2MTraWm3qe0/MTSZN5tQKVpeSpIU0oJ892fqTrKrGSfgsm+V+XK+q92h1uMUo0qsZxkss9utkzEwrFv+LMuTczKSTyZhDa0rW66l1QCTyTLraWXULmnA4VLWpa1FZO+No9QkciyIEr4si5LOS7plpuUW27KTUqVMuSr0utLsq6y4kpWH5d1AUlexCgDtFmlpoTumfUR+C5xMzXFZwW21qfU5iRVXXJuUo1xyFOZQ1LUe4qDRpG3q/LBvxHHvEqNWo7tSJdUVqM9lOEFCRzOE05UHjsNJaQrXXnGSTT83e931ubvFJUqscBWpZrOik7/ANUW1LblfbytfU9XHzk7dM4JOCcfQDck9No7HuOSbELOMeby/wBWcHA2z3BPMDENkk4l0gdew6n8v3tGKRdLkRDM5BwR5djnbrjvjeMMnYyIpc1N4zk742xnGR1B9Mxhk7GSKvYtyam/c/7Z7+uYq2zKoot+YmFHOD64z0x6nbGT+/fG2ZVHUo7jxUSCTg4z2OfUY/ZjE2ZlHTYlPFJzstIBwOcAEkbk8o3xmIuXUSGtzPQ7H99ds5hdWLKD5FOmZlplp6ZecQxLyrS3pqZedQxLSrLaSpx6ZmHShiXZbSMlaylKR1Ii0WRLRaniXxk/Hr4D+FJFXt61r1TxNasSKHWGrF0UqMjVLYkKh4SlMt3bq0pM1ZNJl0Po8OYRTVVqoy68hUoIzwpSe+iNOdeEU8urPMLgZ42ONv4p3FrbOtGsC6NpbwFcPlwV+7p7TGxqxO0a2K1qda9vzda0sptxOImf5z1jr1qXPO0iuzH2gWLbk3pBh/5Rh1bbTmScoUoO8kopatkYenWxE7qDlJ6RS67beS59bHuXpDxS0OqXbVqhRZ5zFT1FuG1KmqSmEzd2SVrUKQlZhyn/ACUy6V0+4ph14eN4HP4ksw0W1K8TnPMeOjGUXnv02+3b9DLPCykptU2raN9Hfn98ztW9rRpfdE7UJi5J1inUekONUiy7acQaPKVKcMuhyXbcm/Caad5AFfMcznjPzCFNjOTHSo8SotO0vV+hoVcBVWmVfEqFVognp1DMu/Tp+upo8vU5lDiWW27Vpz7CZhqWbQ0kS7M0xLOtlSgByLWEI85Kj0qValVSad19/f3poToTg2rHTrW3gD0H4iaHMU25bOp0jKMOrmajeC5GVTWjPKSXBMmaUyp0eG4vmaYaWglWCpRO8RicFhcZSnCtTvfp96+8xRnOlNSjJqSZ4y8TPwXJ2hUN9/T2pvanSJLTNo6b3pSTWaylKgGTNy91ImZS4LdZZyp0OMOlsK5UpbSkc48Li+xMaNaWN4Di6uExKt4qUrJ638cHeEvenudmlxirKPd42nGtTb/mWtvJ7q3qjHa4jOByqaYViry1YZufTmsyDsy9Wpe7G5i47IamUv8ALNOJvqSadmJZkTqlI8aeZ5S4rzOZyYpS4z2l4XVdDi/DfzdG+tSkstT1dN+GT65Wm+SMqo8MxUFLCV+6m9MkvZXknuvLcsrTXiL4weEYSwpVZrFV01m5KuUmftusVSq3XpTeFuXTT5Km3FQ3qvbVYkJ2TpNfpUjLNvinVKnvEy7KwpDjKFJ9bwbtZgcZ/B4fxFRrxabpTWWcWtV/Dmrpp80uupo4vhc4eOvh7pq2aL3T/wBy3XqZLfC5/ET8NF/Ua3rD4jLBqvDFVZGnSFEl7utBFSv7R9mUkpFqWCWpKny6r6s9t8NBpptcpWmZdABXM4Tt0KmJq1JylV1m3dvq3vf7/trQw8IxSprRLb+5w58Wj40Nq2dYUppLwdX1b9x13Uahzqv+sVrTj89RLMt5aGWZo0SrJZSy7f1R+ZwgpUXKO0vxnkiccZ8DRhiqdWVTu5O8dHdNa+jS087NPkzbWHqQjF1I6crNO/w0+dzGa1C1Z1R4urb0fdvKxtPKXTuHPTKmaSUOa05tCUoE/eVIpVZrFwM166ptmXM9ctzJdqfhT9ScSOdxou4Dsw645ycJhKGEeKq1pTtVrSn42nZu97NbrXS95ZbRvaMUunisTOsqMIOPhgldK2llvfZ9UrK93u2zrgPsqdcq1z39OvizaHPNScpbdNmH6fUr9qgTMfK2pITIaQaZbjcxKK+1ak04flmELaaSubeaCe7Qq4aTlUdSLjC3hvrK/Ky1S6vl6s4mKdanlpwpyUpfzW0iuvm+i577Jnpl8Oziu4nOFel6ocRcprbcOiPDvVbeqems1ZdGlKXO/wDVCs3M4wzLaf6TU+4mZ16z1M1GWbcdq1LclnqczLkNugNrKfE9o8TCpWfDeGYeL41Xi1KaVu5pNpynJpX29lb3s7rRnf4JTn3X5nGVpLhlNp5Xr3k43yxSbs93dvS1zqtx1643PdOv3GDw82/X6jqDYC+IK3ba0wmWhL/ILsPQif1Wt+025SXp4bpq11Nu+Hp554ZdmZpwuZOfLHZ3hFGlheA42FLLVWGnm0s3Ksqbk2ndr/TStfRJLkbXFMZPvOIYdy8PfKy3VoZrarR7vXne51YtWzbpZr1tUC16FVr81GuSoyNFo9v0OWmK3cVSuGsvNSNOotDkJZt2bqVVW+tDaEoQR6YQlSo9xQoxSjCMLvy/RHna9a0ZVKk0orVtuy97Pdbhl4QrYse96TUtXZKw9bLmtiQmndYrCZnL00GptsStoVivHUy0dOeJO5Lb/wCil73dbNs0ucVcNVE3SafT25VU7KVhMglM05r8V4XTx1J0cBxirQxkE3KVJpShZNuKlJSg24p6VIuDelpK144fxSthqka2J4bCphpOKiqiupKTSUnFNTisz0yvMlrprbyLuXReb101T1DurQrTec0n0kui7qrUrQoV13PV7rZsy15qaUZCmTN3VWXTV7xrjMuAp+ZQ0nxHSohLYKUpwUePQp4OEa2JTn0Vm/LVJK9rXei6Ho8FwOri8XKrSwzcFzekb899Wr8ldnodwi/Cf1A1vrLEjpbpjevEHX5WYalavckyw3RtKbdm5dLahK1e46pOSNpS7sohIV8rNT786sDyS6iAk6b49xCcZPD/AMOk+d9fi/0XvPQzwPDcBNRxNdTrL+SK29y19btehk+aJ/w7ddYtJmc1/wBZafRVASrP/TDQmnS8pIScvMTLSJtM3qHc9KQ0paJJx0FuSoDJDmAmYUN43eD8cnh8XhoTrSmsyb1dtHfe9zncQxtSeHqxwmGjSjlaV0m+mytFe+9vPnkd3XZGj9t1YSs7JqrcxTqdSpRFNm0LmkMNt0+VQz8wZzll3VqZSk5KVHf3j7pgO3vFKWBjh3xSOGSctY3cmrtqygm1v1X7/KKnCac6mZUZTVlvtt5k1QtQrWtkOMUS1afIsFt1r/0qmJdakqQpprzNyyENoQpWeUIIz7x5/i3HqXEcsq/EsVXqJp+KNo73ftTu79dDdw2BlR9mjTgvLf5KxIL1MnVyLckw1JyiEvPLDkkwlonxDjww3ujnQRjn+9vtiOfV44niJ16OBu3FL+LNz256KO/S9vU2IYJqCU63rlVv3+P0LaauyaYdU4pb05zOJdWifffm2XPDKuVtSFu8wZJUQpAKdj19MFbtBxSsrZqdOPSEIx+dr/MyRwWHprTNJ/7m2cX6u2FpJrvJSlG1W01te8aFJzQqcpRaw1PvU1ieUhLKpgtCoBb63W/KUuKU0UbFOMiOfi8Zi8UslTE1e62tndvfbKn6NGaFKnTVlBZr72RcOn9t2PpbbcrZmmFkWjpxZ9PW87IWtY1t0i1bflnZh0vTLzNJocpJSImZp4lbrvKXHVkqUoneOb3ajoloZFz0OVVXbW51sNzNVnZhvlSFNPTLqm+TpgtEpSQlO3Q9IjKlyJW+jJyUqLowcnccoIGcZz1wBg5yTtFSfM8kviBcKXE25xP8NfxKOBZm3rj4kuHm3KzpLqHo3d1U+w6Vrxw/XZUJmYrFuUusP1Kl0qVuq23avPzMqzOPy7U2XW1pfS/KMszGlWpS7xV4RzO1nHk/Msmktttemp6b33Rq0Lvp9b0+rU6XaSqozs1p/dKWKZT7sROtzk5MSVLrM1KrmKbUUTE6EsrUpcsgoAUOQkiZYenOE4ypq72lzX7mRVqkZQcZPL06lNkNQb2kJ5lue0A1tbQ5KU9z5mhUS1brkW5pcuBNSC129eM7Nh6QcBStamEMr2La1Axxq3DKzn4KkWkrbtfVHQjxGkotSpzUvRfozsDT5+/K4qjKp+nFyUSS+TlV1WsX5MUm1ZCkya/DXNhyWaqFWrUxVGGSQllMshor2U8gAmNujw+Sce8qJW001b9PLzNKpi4yUslN69bJfW/3ucth2UkKIEyExMzNNYUptE9NLW4pYfWSSytwJU6yk7JWRg4GCRvHUjGztY0JPw3WqLglpnlkQhLilo8IAgnZRCcA8owCqLtc7akL1L8YOWW9iAEJABGDgJA6do1pK0mjNF3SIsVJEAIAQAgBACAEAIAQAgBAH//Uz+IAQAgDQ/vpAEo4N/L0PX0AHU7npFbEkEbZwc9SSSOm/wCW8SkGTDfUYP8AT6KOevsCN/0iSCNn2GSMHce+PfYRNvgDcNsZ9gMZxBgEgZ27j07nr07QsBsMZzv/AH/WANhIV5T/AFbEEdQoYPbI2iQfOD+Ofrn/ADzxXXhpdSZoKtjQqbqmn0uhtwOMPXGmov1S6plI5jyus1OcTIrA2HyUaXDsHHCwq2tmnOTfxaS/X3m3i8TPEypXXhjBJfBXfv0+Bjz1hXiLcJwc5xnKvQkb4x/p/fpJb6GDkizJhPmJx5U9MHfOO5OCOXPWICMzH+Ev4gEif4reFqsVAhb9LtHXWxqasKypErNqsjURxlatglp2boC+UdS4tXrFYU4qpUqK2ZpJ+6/7lakpOMYfypu3vt+xmcPZSScZ7HAxnPXb3jNcwWJML6nfGMf/AK46DPTIxFWyy6EZDmx27jrtn029sxiky60ITr+Afc42x+vuI15yMqRQpqYJ5gMke/QD1jA5czPGN7JItmanGUlXO+yjlzkrebQUnc7gqSRn6ZjFKouckbVLC16nsUpP3Fq1WvSVPYXMuuOOtI5OdTCecJQ4rkS44pRbQloL2KhmMP5indxvdryOvhuB46uoyUIwg21eTtqraaXd9djjuZ1eseWrTFAm7mtiTqs01PzDUnN3NRkTKWKVITdVqUxNS7L7zkjK02l09+ZfdeLaGWGVrWUpSSNWri5Rtlw8nd210+lz0OD7G1a9OVaeMSpRV5NQk0lpzllTvdJWu22kt0dGNYPi7/D20al5ldd4mrHveotyxfk6BoyxUtVp2qL8ZcumVlKza7U1Z7T6nmynMzUpVtsjK1JTvGhiMfXptxbjFr+lZmvVu0duT1PZcB/DihxR4f8AL4evV73/AE3Vl3EKviyJU1FOc/H4bxeVP2mldq9+BTjXHHtUapWLL0n1J0p0iXPTcnp1emoNqVOqVrV1FvtOJvapUg27KL04su37Xqr0tIfOPV2uPzU+t6X+UYXLqKvMS7W37R8O7NYZ15YqvTlUzvDVakGqd+8gqtNRo0nBZO8lUk8rrUYwhJz8Pue3n4NUOwfY59o+PQw0OKOcY/k6eOw1Grh6daMJYaviMPVlVxlV4lOs6NGNKh/CovETq93UpKeM7/EoW5xKWHr9J2/Ma1a13Dwv1PQah6lP2zd1zs0bTKWu+m3lXrXuGkSVCs6jWtbFfrMulFOqLMvUGJqfaYdmVoc8BoBv32AxLqU7Sks692nu9/LofnXFYOjGNSeROzsrXe69/XS/Rv08AeEfQTR/Xmq6u2Zqdd9+2fqtRNLZy+9FNNKRTabbTF+u0iza/qVOO1KtXTTJ6dT/ADBY9vBi1abTKZMv3PWqrJNiZlJQuTQyYrHVaFOnOlBSi5Wb0svNu6slrd662VtTjxwcJzlCd00rrr8LO/L3Xd9NcjP4IeuGibehNd4YVSUnp9rPZ9Ov+b1IoFYkpe1Lhu+4nLmmKhSqzUpiTccm7lm5G2JRijL8d1qapL0oZdLK0PIWrn8TjiHOrOV5YOa8LTfh0V/JK6bXJ38zu8IxuGw2HoKjFLiFKXiTirNPMr+b8SvzTS00Tfvlp1btJspquSVIo0nSXmrURdshXRLNpn67c1405py4qvOLwFhTVQUyykkBKUNoUcnKjpq8VFt6JfN/Sxp1HmU9fE5NPlzb+L3ZK0W7W6JRqfStRqXSVJl7sklyyUE1RluXck1zDE+8VzEz4LvjqVlQKSXMgoClQjWdOyi9L6+ltTDOipu7tf8AUuykViRuW2KwjTm+JhFRqL8q+9KOMts1GVdkX35ySk1slLc98uJxtam/EaKOVW6DyjO7h8XkcJwlrbl96mvUoKaaaReLHEdPWY/M0nU21ZgylrSUlS7Ucp6TNUmYq6mkrrFxVVSlMtTr3Olcy3yhSFOKDZGEbdXD8TknlqXavuunocytgotJxVnyOe5GZpdaklT1s3FTa6p9ht+4bw8VD8rILmpFqommyk0AUNoYlplsFaQFPuqCEYPTrU8ZRqWtL0Whz6uFrU7rKcKX3ovp5qdSZu2bkt6Rn7SmClysoqcpLPTVwLQrCC8pxJM26nJDSEK8KXBJPmyTszjTqLxpO/I1bSV+R5AcR/wjbCn5euXVoK4/pS+qXf8ADtmVK6naldLKF87M9RagXZF9pxRxNTDqFK6pb32Hk+M9kuGcVXeToWqrZrRrzUlaSa3WvvOhhOJYvCSywq+B732t0tszG7104MKFIVGaol/2BNaYXhMtzL8hcFlS66fb9Y5lqQzNTNo1Ja2JSXeKA4TLqYdAWMo3GPKU/wDiXgkoU8PjvzOFja9PEXckvKqvFe3KV/37tJ8Px8ZZ6Pd1f6qfXzhe3waOt/EbpBqfcWk+k9kXiwiWlNFrLr9I0nbtmx5Gjyd10GvV1M+arUjJJk552qVSsMTXzM/8rOKemkAvTK1FRT0sNx7BU8RWrYrCSw2LquKm5u8XlVlaaurK+ibjpokiauAxapKOHqKthot2UfaTe/g3XK+50Vk9IdTLOplIvC8v5tsvTZ4VaV+VpExKNXZdk1KOBc/aFAYZdmzIVSbLqS/NzLSZWQkFfNqDuWWXvWYLE4LGd5erGVCCTdndu+yjy167LXnocDGTr0LU6VNrES6qyj/uls7Lklq3ppuvXv4b/Em9X9KNULK4gOF/hVvTRZ+zqHopbGuOrtkyDl52BW7lupqWoVs2gr7PUzqNdlTna+rlUtLMzTnPAmjMBuXTKu/P+0ksNwR4mXCZVXx3EQk4wi3JQgledW18sbRVoyad5WyrWV/UcGeI4rGGHxsl/l9KSvLRNvZQ2bkr6tJ7b8reZvEzxhXXqlp9fXCZKWLRbWsq1+JG2rjsOh29LHms2h6OWfqJplR6DT5xjw5aZFbmL2nZ+ozBb55maDZBCGwD1OC8BhRxeD4u8ROpWqYSSnKW9SVaVObk76pRUFGMU7JPVN2ax43HyWHr4GNOMaUaysl/KoJxt01bvc4Msqm3Bbty0SQseRrt+a33pXafSaDIUWRfuWu1O67in2pamW5QKa0xMzNZrdYnJgNYQ2VPLXyJATzc3tqGHjGMKdNa7JJfJHArVoxUqk5Wgldt7K27bO8mnWpPDtprxOW9Z2t1AvzUrUwT1nNXbffAxdMtbFR0ouVz+YaZqtppYE4XlUbUS436JUJeXqN00mo0yiS8+3NSkmmfpg+cmufjsLjsJicNWwHGXSp0795/Ne9rqM3JaJXTdmm27XSTexgqtHHYerSr8J72VRpQT0dlezcLN6uzSdmklezul6CWvpfrnxfXDOaY/wAnzGoklN6kV/VKh2O5RbGn7voklWplz7Oq3EPrnRbetCk3TWGRMLdrVbcYo7Vw1ZZen1VWYak0tc+ti8Zxa+Hw1GGts81FRTtdJydl1fK7vtc9VhODcM4JFY7i2Inma8FLM5edkrtv45Y9baGRPwQ/CA0NpNRcrXE7VKPqjW7clKbNIsKQmHra0Tokyp//AA5Ka8b7JrWpYlUS4CxOJkaOvnUlVPdGHDTF8KeBp4d0lKtiZXu7eFWtZJfq9dtFs0u0FbHOpSptYfBrZRdpP1lyWnsxVtXdsyCqBV9G9OaDSbeoFWsa37foLDclTLftNFOYptJk2GVNysjSqHbsuZWTZaACUNtNJSMbDaNL8hxXESv+WqP1VvrY13icFTX+rG/xfvKTc2vVESxN0y1ZGYqTxEm7K1lYTL0oqD6H5qXfk5hpuoFXK2ps+RA5lBQVtHd4Z2frRnCvi5qNm/CtXtpqtDmYviUJxlTpJu63OHbpu2pXrcM/cc1JsSL9UTIhcpJOOuy7PykoxIoDbjwS4cty4UonbmJ2j2FOmqcVFanF6u+pKysrMKTypSskAEk/eJzsk5IBznb3i+ie5VlwNUqYWMhk4ykk+YqJ/wA3VI2GMHqO8Lx6lr6alRYoU6fEHhLPmz/WM9MZP+Ug+kVbhbcha7bEy3bs4VghpewGFYznOygeYEYHXcZ/0xSkrbizZPN29OHGEqwP6VNkYBO5weuw98GMEpx6lrMrkpQZslKghzJSBzDbHXfzHbEYpVVZllB7l4023HubJUsDY+bPNkbK6Y2PbO+Iwuqi2Qu0UFxDaVIG6d89Oudj3z+sVU7kSjbRE39lytblRTKzKyFQYGEpYqLCHU+Q+QhRQ5yqSfunHMnsRGRJ/wAj1MLa1UloV+3tNpOkTAnpI15hOVqSyi6q1PyaefqlEpPT8020lAGEpSlIR/SBB05PeP0K5orRN/MviUlKO0pcmWp+ZnUnx0orT9Sn+dQIAVK/aLz7BKTjAR93riMiUn5WRRuPqyj3UtxlAkXHEqCyhx4dEhRGQ3kDfkG3beK5eha91rsT1Id8SXaQTnJaTnP/AHJGO/WJtshyOVpYktJz2A/XeNaqrTdjJD2SPGMuIAQAgBACAEAIAQAgBACAP//Vz+IAQAgDQ/v39oBEo5scZHU4GRk4G5A2yIgtbTQhp6g4zntkeu3UbkZiUyHtYiIUMkDO2Dv2/ftDmQTGcd9yPb/b1ibcuQG25PQfgAP94kAK/IDt0J/LABgCG4SN/wAh+P0wTnMEQcGam39M6aWRfmqNTryJagWFaVz3pWZWbk5dyTZpNqUierM8Eup8J5rEpJnzZJJ7+mrmqyqpRqWTe1tDYywyJOOvW58oDXbU2uaqXzeWo1yTPzFw6gXTct9V90YQlyt3fWZ64qmsJPN4afnaisBOchIx2je5tmN6ts6rVFxSyW1KWW0qWtCQSQhSyPEOObYnkBztkAekTe6HuLSmFEHPXzddzkg75Awc/jj6xXmTset3wNOImb0G+KHwzXJUajOIo2o9x1PRC7G2FpSKlTdU6NMW1QZWYSottmXlb3+yJkg7JMuCBkDESlkTlZ252DWfw31PpoTF1FLjQcpczL+KMtiYeZbykkJ5iU+JtlQjG8Qkl4GPy7bazrc4Qr3FJoxQp2fkanqTZFJ+xni1cM/Uaw03RrYX80zTmRcVYdXL0uj/ADVVm2JNn5h5vxp2YaYTl1xtCqzniLJqnaL2b5lo06Cck6jclq1t8eh1v1++J/wUcNLE4dYuKjTS2qnTatM27UbMt5UxeepNMr8tLJnHadV9N7Qk7jvmgqYllBbjk/ISzSAtrKx4rfNgdSTn3bl49dlt6729/uNiNKnGHed3dabvf02v7jrvaXxVqZxF+MnhEtR26mZaaVSJ2pcQSbo0VefnJijKrsjW7PtGco79wXfZyabJzi52fHySZFUoUrHKtKxloYaNeVTvKs45bcr7/Dn8TLJxhQjVhTjZykvgk115PbTY4hlviD6+zUjqPVrur3D3bzWndq3zXKLb0/T7gtKR1Vq9Btm5HaNbtBuK8a+ipzEhO3IzTg7OScqFpYWfuc+U7GI4bRhRnKnGUqmvP9F7+ZXD4+pHEU1NKNPMtlr9+dmdSazxs/FfqtSm6vqbWOD7hC0LtyctYapaq25Zt3alXFY1pz18632BV6hbZvubqNDvi4pW69FHJWWZkabOsz7Vz0SckvnZaZdUzqQwSyqc5RjHZu6S0vda6XXS/NGxLiGIl4I05u/iSs3o8tmrcrNNaWa56WI3Dhq7rbqbp9qnUuK7U3WLi5otT0y0hvvTqvWvoAxpRYekWqlRuK+7K1S0ztjUS0KPQ7Q1Rq9Jlp6izjEww4+3PNoU5LNtKYfVHGxsvy+MoqEllknG6ta+kvFq0ua3d7H2X8O8NVx3D+K4anUj3kclZwnFucopShJUvCpPXLJtZcqd9dbc2TumtN1h0t1G0spfDRq1aVv6q27XLGmaxKW4q16za9p3Qy/MLep901G4W06jVBysIkJn5CeElS5iWYdknC8iYcWvUxs1NRj3123fwv4a6Pp0v1PoHCcLVw0vzH5jDpwhp3jjJOStmbptNJWzRd1U1d3G0XF9Tfh/fCYRwt3tqTcutGqGg97UpqnUBGmdVrulIa1ksK+LZqzs/SZqat/WayblkrapNRkXloqbVCqLpqjPKhmaSjwplPneK1MLUp1oPF91o7ptb6OOaLjZq6V1zXh2kz2f4dy4xwzE0FLsv/mk4yjGnOnKqkqDjUhW7uvhsTGdOq4zvSm2lSq2nOlLJ3cvY7hT12sTgd0XnrX1OvWi3JRLGszTqg1u47Wr1ekbKoFi6V2nbek9Iu6iWVdNMUuwky1m0WTqNyUunVSoyjk5LT9TlUNuPuy6/J8L7Q1ez/EOKYqMJ42ljPy8Zwp1r5HBd061KlKjGeaUZRlXhGrU7zI6lOMZtwn9G/H38McV+NnaTCdo+y3AqPZ7hnfY+vCli6GEw+StjK+I4pWwtbGYetGjWw8MRUrYfhuIxNDDSoYaWEwFecqdGFaOKh8czjH4e9dbIsyl6Ja3W1rHcNIqV52vqfYlWqGqWo8vXKZdNtNylHrdKvuuUqnUoU2yrjk3Jplii1ORln5t6WmH5ecS0lDHr+xeBlgMFReIxk6tWUFK9WtVqTTa1u6sk76u6yR15LZfkH8UMfRxvaHiWHweBoU8HQqypReHw+Go0pKm8qlGOHUoPNlTuqlVO7tOW78TrQ+IVqpZ3E3YXFAxphpRNXTp7pZZWmVEsuuUCpu2q/8AyNw/yPDfSa/cK6TU7duWqu/yDTmHlU4TrdHM8FkSol3Fy59hDhtGrg5YSpXc6Une97ve+7vz/v0PkeIxE6deVWFHLK2zVvlp+69dTvvpaqo8Pehd16mXjZ9P09tjXa+9Lm7r1C0Pq9GrVflaNftnah6gIoenVOnftuq2orR1VAYl52ktIm1y9dnQZp3llpNs8ypi1i6saGCrOoqUJaSTXihJR8Wzedtu+icVpubEcLLDUu9xMMjm07x1upRb0ts46Kz1u30Oxug3xk7t0WnKpWtS69WtYuGWwaZQ7CuCs1ZNRa1NpVDv2buRiz6cZ+o0thy56xRJulzDiVPtpZS2FMcwBQ40SnUqQozo5a872StZpWvzdlryv6ETUYqdaFROgrXvo03fLy1dlr9bmQvwk8ZnDLxT2JY1S0+vy17uU8ufs+foz00iam52XmaZK1eSNSptREvWaS+7OIXL8hXNNtOIXLImH0lDioq05UpxhVp233W6+/vpEJwqxvGd0/k9TlWY00lpyqUWs2w3L0LUOlOPzDHhTjiKDdbFMU5T5N2TmUIC3F04vhC2FHmWpGMkcpOLK5JJO0lt/Zl3FRbkr5fve3zObaTOUrUFNu0K4qfLsVOdrlWkJ2TKUvy6uRmTJmEcziikoTNKWytCgoJ6HGQbxbbWrTuUqRspbNW0Otla0x1Msmm3IqwLtu23qZcVTDM/J0SbcflW02vVFszc85SmH2m5xpcyEIS9LBt0NgoWgjCo2cPXdHu3KFpq6unv5/qalajnvGLWV/J/aO7/AAxah23qGuUt2+rxpdan5CcmKLTBJMO0N6elKPRJGdm5x2UqCUc9TqU8+4FhHKOZC1Dyt5HXw+PqKcFKay87787HNqYam6TeSSntud51aOzYdcmJylU2oU+XabXLSC54tJLZTzJUtWGQiQlUjbbxCsZwds92nVjKKu7X8vvU5lWlJN2Wi+/gdA+LDhCod4W/WJJmkyt2XbXUuzGmVv3DMU5tytVdLbKhXrwqlMaVO0/S6w3Jlt18FJnJkqLRExMuS7LutjMNTxMJqUI5kre/lfz8jNhKk6NSFSN7fpzX1tfmddtAuDWx7HsG9bNumj0fUC/brnJSf1Vvi76XTqu7qfXKPJclNpVOoE3IuSFracW4wpUnRqM0lTMmyFFKnJhx+ad8+sJSnRnhVSi7N6OzTfmnpr1+12PzEqUlXU2m9sullby5/frjqcf2jfBq7e3CzonQ9HLknuJLiw1G1XpNJoVOnDSNOKTYtg3xqFbFaAnnJuVuWk3TMXHb8rT6dIyU8zSxLMurmEJy3z/LMBLGcP4X2p4lQxtWjiMHi5NQjl7rudknC1rp3d7N2015etxdDC4/GcHwlSjCUK2Hjebvm7xRTbzdLPyVzGO4kuKS3dc7P0lsbSO2arpZbWkd01521rIki0qSkKWzIWkmg3LW5thxblUvupV6Vqr81MqWpDKHWkoUVeItX0DgvAsThMVj6/EcQq9bEUoqU3u5NzzRS5QUXFRXk78kvO4vF0Hh8PSw0HDu5y08tLP/AKr5vl6nBdjMXMm6KTSLKoNYvXUW7rkp9EolCplMcuOv3Jc1eqCZCnUKkUWTYdmqpUqzPzngNNNIU6884EjrHr6FBZYU4Ru7JJLfokjh1qySlUnJKO7b282z0b0KoWgtvcWK9INWL31jpGp81R6tY9TrnAcuR1DmpGrX7Ys3al8aGU+5KxULfY+1xMVeaotfrtGXX6O5zPy0iubl1eMvmcRo8UwlbvMDxKCUVaSksyd7XSatd28OjS53a32cJPB4yili8E8r1jd5Wmn4ZNa6XtKzWbZOz2728LvwhOJrg+1BmLl4p9B9Q9NtFNRKnR6bLXzb8tat9auWhb09OTaaHb6ZRhyVtJuvXW5NSstMMGZTNmaSEykhUHUok3tHHY3C1ZUKeNlUp4dS8TS0enxS0b2bSu7dOzwvEzwaxM8LSjKvKNouWmXXzWt+l0m9LmYPw+aX6T2dpfa0hoHTKLK6a3DTZC6KTU6QZh+avJNQlUKZui5q3NpRWa5XZpgYdXUMPyykmX8NkNhlv09GlTpU4U6EUqVrq22ut/O658zjV8RVxNaVbEVZTrt6t76cvK3RWsdkZazph0pL7SVknmAW3zjAT5VAlOQs43OP0zGzHk9TA5K2hcEpZLpIJYICgMeUbHYDGOXBASOpO0ZVa5VtNF0yVivrUORlQ5vv4Qd+mVZxhRwTj8YzxkoamPM76IvynadvFLaFS+BlKumEqJwM8qQnGT174irrR3vqWSvqzkKm6dBIwtsBQSB0OM99yNyfftGJ13y2LJJci9afYbCMczY325inGM7bbDyxj7x8iGtdi55ayJVtPKllOB1JA29D0O2RFXJvW5KdisN2TKgZDKc43AQADtvt3JiPEyL+YcshojKGk/8AbsM+h2xknIxFXElSRSnLWUwdmsdeg7An9RmMbgWUzVqkrbVgt43G4Bz3yce52+kY3Bls5XZamOqHLybYG/KMDPQdP9MRCi1yIclzI7lmvPYeZSUn6YyM56eojNCeV6mGSvsVJj7SpYbQ8hRbR1ISVYA9Tj+o5jLnVtTHleyZUHZxMy2UtupzgEBJAPMSM79Nv0iyqQ5FcsuexxbcyH0ThRzFeeQ82ebqnI3ztsqKt3lcslZFftptZVLII2K0k9SSEgr+ufLErVocjmRhJSgZ6kDO2MbdvaNSo05O2xlgrIjRQsIAQAgBACAEAIAQAgBACAP/1s/iAEAIA0PQwCKe6U5K8AqAIB2yAcEjPqSBn3ipf6GznA3V2IPtj3ibkcyIhY6juO3bIGPTcY9YFdtyNzdOhJxkdR3z+H4xZA3JJx17Y7D333xE+4G4q3A2IOxGM7e47dIjQEu9jbqN8b4wem/1i1weQXxjtWf+mnwzeL6tSyXpefrNkjTJll/Mq463qbedE09nTLujIPPTLgfUhaCcde2I1KTUqr0as35faM70jC73X6P9j5k9xTqnnFnICQTkD05eqs759x+Mb8dncxJ6HG88U82UkbkqxsVEjBHoDvE33LbFsTO5z2UpQ3AOAcYIwP0BxBagurSm9qhpvqbp1qFSnjL1Wwr8s69ae82TzsztrXJTK5LOJwSoqQ9JA7DMY5+KLRMWlKLe10fXleecrErSam2WnZd2SlHVkLAUkVGUanWuUKA5gW8b9I5zneEOtjZhFxz3XM8INduELWnVmsa0aeBqh6dWDqJMVilU6+P5pmE3PKu1OdbqFJu+TpbFRkX/AJezrobkKw1LszMk89NSTSUvI++nb/M0Y4el3lX+Klt6be/b0MDw1WpXrKnTvSb1fk1qn5dVzOslS+FrwNa13HpW3xWcYFc4q9YdOdAbj0vuq5qFI1WyL81TnmNQK5W7R1TvK82a7d9Xqty6W2hcTFvSLNUfqCp2SprK5t1xDSWW+XPi9Gbfd1Vf5u3utt+up16HAsVCP8Sg8ib32V/fe1/ctjsvUeGjhIs6g6e2vZ2pHE1IXXLWbp3Z8rqbNXO7U77viV0tVfVBtuSum8HadK1KkVwzuoEzJuTjSWGWaW1Lyss0zKtls1p8dhhpzqNZpSjZJptXvzt+vqdWj2dq1qf5ZZYQzRbaaT23W6tZvRW1JGpcOnB7adFui9zZ+sGrFwUKWptdm3b81VmZOamnag0ibp3jVKmy6ph0OguOOuuo8dTjJ5QeZRiavairknGFG0bcrJa/H6FsL2UpSqU3UxCTzPWzltfdNpdOfPVnea0OIfU27qIVWtalIpDDNBmn5NFGo09U3KVTVUCkVW1G5NXMyfsh9LbzaEpSll3KAhIwObgrGYmtJ5IWV3ybtdXX7Hro8N4bRgu9nf8AhprNJJOztL38+bRxJK3hx1TFFq1ccnrkVNPUJMvTmKhT7OoszKVRdRpD3z0jbVXYnJicUxLNPMKWptKEJfUtKxyCNOS4tPNNZ720vlSW3J/sdjCY7s5hqipwdJX3y55Nqz0ck/fa/JFyVGzOIyYvuyKJUrhrcnbExa90MvUKeudxUiipUOqmsUSdVKybyJVbzlPYQhLylczXMAE7HBcPxtWnDPK0UrWcujbW3u1N+n2lwNGrWVKN6k3e8YLZpJq7V1vK65nXdWhGsd+T1fnmZimtyNLuCqSsvWavWau4pxMlOPNIMo54Mw/NgJbwladh/TkdckuC06bU6soNta31+pFXt7xDL3GHr4yCXKEnD5KSuWXd3AJqdqBY+rtMrF20KWbuHSu/aJiWkZiq1iYmara9WkJNqUFRq9KZZInJpCgmYUlBSnkPKlQUmK2BpxpVXSaUYxcrRSWiV7LbV7HKq9q8XWqOeK72pVm1G9Sc5e93vt0PMytfw516tUqmVelcU1MmnZ2nU2pmVndHJhkMuzkuzNuSq3JfU6ZCjLl0I5k5ClJPY7eVc8HRioyhP2U9GuaWm2628zBW4vi8TUnJwgtX/V15HUrVD4CnEK3NVCcpOrGkNaeWctorVBvOhJX5AlSnXJGmXYljJ91jBjawPFMFhoxpupOEV8fhp+hy8ZSr4mdSSowk/wC3ve/qdS6h8Fvj/wBP1TVxWPamjt/OOtOU19m2dSLfkp1yUS6l7kVS9QpexXFNKd3SW18+SdjvHueD1Y8TwzxeDnelncWpb3Vm+q5rmeI4pGpgqyw+IpWqOKlptZ3Xl06HVPUXRLj+0VoV9Ui7uH3ViwbEu+SkKHqRKo0qReOnd1SlszdXNKmajV1Ua7KJKO09dZmzJ1GnzktMspeLsvMp5gs7eIwE5zhUnQ/iQvlkt1e17NPnZXTunzRo08Y4xlT7xKnK11ydr236XZ02rOpOo9L1Tt7VjShdv6T3Ba8hTkVik6cTFfsyVuur06cfdTcFSlZup3HJyVYm5dUtLLalWpeVQ3JpcQ028t51WDh2FjgMPUwtSrUqxcm06lpOKf8ALsrxWtr3eu+xfG4h4qrCvShCm7WtFNJvru7N87WXket/D18d3WLS2Yt7TnUOWq71dk52h1OhVu5qSqel5mtzzL8rU5eVapMxVZmTkqtPzAT4rCXfmX0+I4EK50qzVuHUqqVXD1LWfL7uY6WK7p93UhoZE/DD8UHRbV++LPo0sqSsK7Zw3U3Ubd1AmmZZFOv2rtVV63ZW3rhm5inFcpMTLrFPRLKZcTKeGEOllamS5zHGrSmk6d466p3Xr5cvvbpXp1qcpRqJTVtNU/2fPY9J7B1SpVR/6e02Zn0StWqkzeko7IzypRxl+qSdcfnqhR5V+UdfkX55Uu0h9vzIdW0CrkSQsJspJS8kl8zDupc2WtcthSVNr2nVEpNLll3JXq7NzsjWhVpiivyyLWtP5qoKcq0jJzL83NPCam5tinc7KXUSi3PFBSEHNhJxjKTl7K8r9Phr7zBXptRWXd+49MtENadcKbTrckdS7LpsvbUzTpbx6tVb1+3q6xNOMNhymUqbkLTpklXqVIOZbVNzq2J5awrmaPWPSUGnBatrk7W05HIquLk042lzXLzOfa8zTHpmarLbaVzVaYYbcfJ8SZXItBZlKY24cKYpsoXCUMthKOdSjy8ylk7zk3FR5L7v6s1lpJmFn8eL43crwkX9c3DhwWXnJ1biQqlHnLe1YvSk+BUqNoeXB4KqXR5hJdlpjVZEqtaXlAKboaVEHM7kS3Olh4RqyrRlZvkbcZSlThF6xTMSXWPiov7Uy1eCCUpl0VCevnh80y1NtucudFQnJq4Zu4tUNadSr3rM6/V3n3H3Jl2lXM22gjlQEBWeqjHmMJwpSrcejVpp08RXg0rK2WMI8uua7b9DuVcbKEeGzhPx06ctbu93J8+iVrfaOFdPWZa2rgpNDoFqv6kXVdFYlLaYtmQps3WKpV6lWnmpSm2zbEjSkvVGeuGpTrqGGUy7SnHniEpBT5T6uOHnNKnG/ey0VtXfyODKrGKnOckqcbt32S5tnfrSzSLh5sbVXUWhXFxg3Xw08Qlq25eNsfZmidhT2uTExP35ZgotX0esXU226vTbdfv+QauCeolyTrb0qxLTLEyxS56Z2WebiJ8b4Xi/+XnSq4VRtN5rSV01LXLryTs7WzavRPZw0OH8RwsO8o1FWlNZVbez8LceW2ZX120XLibhLoWoHA/xIaa652xUrPuC8LRrErP0u17rkUimOyy5mWnmWqsGJuadl5haJZsrLKylKuZAUpCiTxOK8ah3F/y87QandNfyu+3NPo7XXQ9Jh+ztaOXNXhnmmrPzXP8AdGZZqH8SXWXix0pr9HuHT+z9Mrfu+mywu96fuViv0iUlJOcbq7k3bjypanz9Kqq5gBCJuYmppphtockslZC0/NuJ/iDwypGGGocNxDxKmpXcoqLd7rRqUkr8lfTw35nqcD2K4j3s3WxdFUslvCm5WatolZX31frqe1/A7pIKHwu6JSIkJqVW9ZYrSm5yXMvOvzF0Vmr3RMVSYlnG23Zd6tPVhc4UlKeX5j7o6D7b2eniKnBOFVMXDLiJUItrpdaLrorLXXQ+c8ZpUMPxXH0MNPNRhUaT620fvzXv5neen6eMeChK2QVKB2wObBAxnIyoAZ6DrHXc31OddF6SWnsmlKP8FJSNxgbZGcYSN8Z3x0ERna5kKxXGbMkWQkBhsEbHCQnOwVjbuMZiM7e416lRRR5ZhPlaA3IBAAB3GMDcZOYdBcmRKIQM+GM7HbGN/qcfhEpXFybaawRkDPTIGAAevtsIyKFyLlalGkjYjbGcdM43267CJcUlsRcq7KEr2KQNx07Y369c52EYpvLsyVqVBLaMdB0A6b7e/rGs5u5ay6GipZhXVtJ6529djv7w7yfUi3QlhTJQHPh52xucnA9T1J94nvH0QJlMswj7rSR9AN/qepwIrnkSR+nSKg2qSlY5VpSpJ6hQBB/A7QBa1YtCmVdHlXM058AhMxIOeCsE9ynBSrf2g9et/IlO3ItNdlVZhhtpyaTWVMLc5Zp1aZabdZUsqbDyeUsqcbR5chQBA3i9OUoxtOeZ9eZWSTbajYuyjUUS3hOuMra8NKh4bpQVc5ASCPDUtOMZ3z3jJKpZO25RR6l1xgMggBACAEAIAQAgBACAEAIAQB//18/iAEAIAhuHlTnt3+n6RDdiUUh54AkjA/0PbrvGO5e3UkzMA7cw9CD39Op6CJuOpuE0B1PbB7Aj6DtE5upWxMJmgeuB+PYHP6mJuLEZMwFbAjGR09Bg/XbP4QvYizInip2ORgZA752xvj/WLJoggvO4TtjbPcZPtEOT5k2Mfr+Ivn5iT+GHqzLy+Qic1e0PYmQMZVLPah0epBIPRIM0yj8orSt3k35fqi9/CkfOdqjoW4rOTjJA8vrgBQ7dx06xs+4hLmWlOAYIVuMBQUgZ3IwOgA8uMHMSTcoE00jwlL5sAqHInlKlOL5gCE4+6nl+men0mKW7ZWTeiSKU0D4nLjlVsAO4JIG2DnJV+REVlpqWjq16n14tIvmJzTOxnKgpS6pK2ZYxqJcU4oiZFtUlp9Dhc3yJlSx5vNnrHJopVIz8n9TfxL7uq4Jaa/JnBF98Os1Vrt1Eu1V+Gl29ctNE/OUWYp78+7LzbdMVJh2SedqLbDbTM0w262hDYAUVJIPMMc2vwtVcRUm60rT1a6ctOXy0OvhuL9zhKVP8vFzg9JXtp0ennqeaugun9gm6dRKmxp3rjdM8zQbmmqTUpm3qXZ7o+afTLzlNtSjTzsualUKozNqcl/nUuFXgYSlCgkL2IcEw1Jx7yqs7fN7emX6/apLtBjKkqndwtSitrb/F/DY7h0XTGm3giSW/w+1S2RQKvb9TpNU1Lr7M9KzBcvGUqlwNtUukXFMzUvUpZtlU00p5pLIWhKU4SCIzS4ZgYQlCMlO99PFo/V259BQ45xJ1oSnVdOCcdfCtE+iTeiOWpzS22A5e8smhWjTKZXqRbluS0pTKRKDxadQ13AwHXJ+aQ9PuOCRqrTbfiAlAbJScrMWWGhG3dUIJpaXS3+HIxfnpSzKviak4uT0u9r+vPmlYv/TjTUSltUiRp9SelqLbtOkbakKcisvOScrJ0OWak5Ft94N0ubmVolW0Z8VxSE9AMRjdCu3aTio+n08jLLG4eyywk39+pvq1JplrVGqXJKXBbDlRW23Lt02n0WlKqDwcaZlFuTVZVPVKcmi02OYJSloJCQFA43lYVyko3fryLR4hGnFTdPNponJ/pY6f8bV88TtU4dtWKrwlVOi0vicotstVTSd6r0G3Lhk5ipU6p0x2v0SWot2ytRtuZrVzWizPSkp8014InXmvunC05Vw6Di4uUm/VW+mxL7S4unJToUKUdr2i27Lzb3W5wrwE6ncWN3cLtp3Dxh2uiy9ZK1Va45N265b8va1VYtmTVJydGqNz2uwEyFv3FXZtmcmnZWWYlWkSzrOGGsqTGKlwzDxcnVi5PNpmd/l5ef7FsR2n4tXUVTxbpxy2eRKHzSu7qz3O5lFvaWojNzNT9P8AnEVy352jshhLLYYmZlP+FMvhaUlxhKQeYDmUcgfTZqYKhUjk7tKDi07aaP3HK/zDFylGdTETnJSUlmbeq9WTbOrkt8jK0+p0h3wJGmsSfzVPmGHJiaflktsNrEm41KSsq0vkJIC1FBHKAY8lj+xsq8qlTC41RcpbSTso+qu21pyOxhe0Xc5VWwzdlunq36O2/qcbV6+KbMBape33zzc4C56qNoTkebC25WTdUVeYHHP5e5EalL8PqV08RxSV/wDbD9ZP9DYn2ulHSlgF6ylb6JnEFdqgqLgfMtLyiW0ciJaV8RxCk86+UrU54rhcWFZUQAMY6YzHsODcHw/A8LUwuGq1JwlPO3Nq92ktLJWVl5/t5/ifEa3FK8a9aEYyUcqSvtdvnvuWiufclT4ktMOsLAWpxbD7ku4lBUEAANhtRK1jG+yvpHZT5HMt12Os2sXDzw866ImmdY9EtMNQZiZRyu1aoWlIyd3oCAgJLF7W6mlXdJLCE+Xw54YCQO2IpLLLSST9dSiWXWLs/LQ4l4KvhVfD1tvXa57yoOotwUDiJlZKr2rw8US65Oi3pL8O10VqRcmJm9LRqtfkKpSro1Ak/CExQv5hbD9DBcLIemi3NN+cxOKwtaWJ4Zha8qeJbcb/AO5f08vddPpZ6r0HD4SwdXC8SxeCjXwsGpOLdlKOmjsrq/VX81a6fib8dm3NBOB2Q0t4ZNCp97UPihlZ2Yu3WfVKuJmLj1FuSnVqUfmP/qxXzk3K23QKlWHm5mm0lIU+tprxHFrbWtyZpwzhX+X5IyrN0kr6veT3eXZeWr87vbZ4/wAcjxvG4nF08JTouTSUIRVoxWycrJyfV83yS0OkPBd8ZzX/AIY5+Ulb4sSs3ZYKq9JVutUd+U+fkw+inIok/V5Vp+XYqNCqrtJHIuak3eUjClS7ikYXvVsFhayeSqo1LaP6XXQ4lLEVaeso3jf/AL2+2ZbnCD8Szhg4q12zJWNq3SpmuW87OKFr1yrMIriPmrdn0MSMpIrn3p5f2dLFxKX0oDeX1NEAqQkcipQxGFnHvaTcVzV5L0208jfhUp1ryU436NpP57/U9embwnJRqmsStamJelIXMmabnZlRk22JZlT7k++pwllgMeEkqcylsE7k5jsYCcouVpNQ6Pl1ObiornFZ+p4E/Gy/iApfhoshXCvwY11N2cRN20Calr01tllF2h6N0GeExJuN2n5VLqN+zTRUuWm1N/LyLS0vM+K4pK2uzKpZZYvU59NKV5N8z58tyy94U6qm5bhn6pNTl2us1muXBUH0VqdmJmuvTc8h6tTwfm3UVaphh6a8GZU3NutYdKOVQJwu7u3qzYzR353OwOg1xW+Z6Xp9V02qWoUxeM6i1pCTs8vs3bM12enJeRo8lalNlJadcqVw1WYmkMS8t4Di5hS0pQncg0jh600lhnas3ppfXpbzE6sI3lUf8NLd6JJc/celemmg2m+kdH1tuWxeN/QjQPXC1tJL/omots6zWxc05qrpDciLmeodz2Lw8XJZUvddEua9LpoMoaJN3lQ3zMy0tUJuTlWpUrXMnRpcS4zg8di8JiMClh75I1ItSbVvE1a6hr4WtNL+LWxmlheHYvC0K1Ou3PSeVqyfS97Npb66Xtp07G/Ae+GZX+KC8Je/K5KT1IolcQ8uZuJlhllyxtIqXOLkK/ctMQ+yqTTeOoFabXRaApSHfCQ1NzfhrZZcEZJw/wAwxH5NNqhBKVRrn/TBeb3fRa+T6uFa4ZgpcTkk8TNuFJP/AP1P0Wy6u681nxW9wC8GtBtqRsuV4W9AXrekm2UCVrulVkXJPzrzEumVTO1Wu3BRqjWKzW5htAL05NTD008slS1kkx2nhsO6SoyoQdO1rWTVvhqcL83inV714mfe3vfM7+7XT3E9p18O7gq07rMvcdocN2mdLqclNs1CnqmqfO1+SpM+1MiZYeotEuOoVai0Z+XfSC0qWlmi1gcnKAAONR7MdncNiZYyjwegsW3fNlu79Ve9n5nVrdpeP18O8NU4tW7i2qTUb+TcUm/id/aPJgLOW0gI5fDxuTkbhX3RgZwBkk+0dqTRw10ORZKUa7pGQEAgAHbYYznO464jE2ZCpcnKM5SnJGAAEq9ACd+mPzh10BCUgYOBskEDfpn6knIJiUCGpklKeYe+MbEnf19oumCXU1hfTOE/dOwycjcJ2EXuGb0tqSnmJxnH+2wAA3x2i6kkQVNlOQBykHurpkgHPXbCfxhnK2Km0jABA/8A+t9zk98xgnLfUsupUEnIjWZY3RAEAIAQAgBACAEAIAQAgBACAEAIAQAgBACAEAIA/9DP4gBACAJWaVyoP06+kUmy8UWrNTHLncjBO3p+PYbRhbsjJYojk9hW5yOuPwHbp9IrmJy9CW+0zsSUhXfByAR9cZxBT1It5akZNVSADzfiTt36CMmdJbkWfTUmEVZOB5kgfX3z16Z+kV7xbXJykyKsjurAxkb+/tvmLKa5FbX5EB2qpUD5umw9fY9cZ/f1hzJyni78dWx57VL4cPEtSKW2qYm7YtOgaqtNIVklGl9525c1WcwB51M27JTagnG5iack6sFfk/poQ42i3f7f97HzX54czhAychW4zjfIHpjOPfMbvMrqW7M8iEKzhR2Kc4ATt1ICjvFmyS2ppaScDPoM9N+u++MRVNIHph8L/wCHjqBxu622/OzdBqFM4eNP7motT1jv+aYdlaU/Iyc0zPjT63ppYCKld91paTLBtor+Rl3jMvBKEpDmpi8THD0s0tZN2S9f0+/TPh4uVaOVarX4H0UrD1inK9q1R9CaXS6TQJifpd1X1XqjLeLUXqLpZaKqRKtVGZcnPDbaqtauevS8nJJLIYMvKTxSVKl8HnUKk5uNKnFRlKbu97Qir315ttLayXuvnrxjTi6km5JKyvpeT9Oi13u3Ym1zxVNVeafn6pWftKozk22usrl3/lKe5M+NT6RIykrLSslKU6mtIQG0eGXFLBcdccdUpZ68YRiur6mi5yfO0eiIf2o41zeC220Scq8JpLJUTknxfCSnJJ+sWaW1tCE+ZpPXJXZ+UZkn5t5crLJSWWyEBCV8pQlXMhCXVqQFEDnJOD9IpkSd0jIp6WZar6ppQJUcHOANwopJxvnISCR6GCVuQzX5lGm5F6YyCp5GwUAlLQBO2ygttw5IJyRynPQiLWuTdrYpzsqR/SUYzhIyegwQkE5UTnv/AL5BPyKe5JOrVyhs8pSMcoUcEbAYLYSo4I77n2iNgiWfpswCgBtSllK/IEEAEYyFKzhB6AE7k9MRTTr9/f30vZ8inuUKcWPKh1RVypBCcAq5snBOcYOxPeKyqRW8kWjCT5MoEzatSWQpJUlCBnwlBXm5VD/8hSnA8u+Rn0iO+hpqS6UkmWlU7dqI+5KKUEgKKUpWrlyTzDHNylKsn0x0AHee9hvcpKlLa2pbP8rVZ1YJZdSryglAxlJ8pTykpWUryc5ONsbxSWKpx/mJhh6knbLY1csefQlIDCk5ADqlc+FBP3Q0lxQIBG5KsgnrkdMMsbTto9TN+VmdceJaTvGwtDdZr2sSZpNGvO0tL7xr9oVWvSP2vSKRX6XRpp+n1Ko01Ba+elac+nxuV1S2yUAKQtvmQrXr8RVGjWrJOUoxbstG7dOV+nmVWEvKMdk2l8zHY0q4qrjtlqduy49HXNPOICwZKTn7T11tLVyYuzTu87vmK4lczdd62PfUjcd3XJVquxMzCn6cubTKzU26jCmUIDLniKeOpYivRrYRzqYmU08sotTUr31avGSutbWvp5nXbnCnVjUklSy202ta1krprTa6diQlPhp8Q3EPXLg1V1zvdOlM/f8AVqhdFx1S76U9e2u14z1YmHpmaua5KQudpNMtV2bEwlLcpOzrU1KpAbEi0hCED21DCSq/xsbWzVnyWy8rbHDvkeSnHwL9+peT3wZ9HGaRMop+vWsjVxuyrrbNTqtBsqp0FUy9gNrnbYlRTp75YuJwoN1LnA8wUT5TuPCUHG1nf75WMTnU12PI3ic+HbrDw41dm8XpebtP5OeH8ra9aVzdV/k2o1QPIekJeruyxka1ZNfcP3WJ5uVecW1llTyRzHHarQT0z0iy7udm/DULpo/xrvio6cv2XpvqXxOVVm2qI/MUt3UOo6U6e6j3fUbcnmWqdM/M1msUmWnL0MnKsZbVOvmcSsFSnFHGbQ7t0pyw9NOe9m+fRvoS5SlJOq7L0/RWR0i1QTdszqm7rJrpUZmu07XO4qvfNtamMGjJt3URueq0tMz1RSm3m6mxZnyEpUGDPUr5JM3QSsSz0klxIZOwu97qM5U7Tavvztr62+ZgXdZnCEvDF22a09/XkX5xRnTXh11z1AsrhE1povE3w13AinXfKSc7ak7f1jFqoy7qKTS76ava1aPIzmoNuMVASUxXKVT6RMMJwhpcs+4603XDYis4PvKWWV7Wet/O335aatOlGfduXtq+1015af8Ab9LptnU24NB9NJfX/Qrgmu/Rq/65UUUocQFcqt231oXZ1E8dqSuOT0Tt69LYfn7GvS/i8ml1SfqV0XBNsUlb8tSvkxOPLT0qfEaFJVFh6UI4l21u3lXNRTembS976aJ2djVlgJ1stPE1nOhq7WSb6ZmrXUdbWSV7Xu0cE1RM1xk6t6aSMnYWjmmV9XvW6JZlfTotaE3YlvXRVa7clduO4tRK7aUlP1K0LcrktT6stp2Wt+VotClpCnS6GJBgpXz8zE4pObnKKUVG7st7fqzo4PC1KlSnh4OTc5pJvW19PWy87vzPqc/Df4VbZ4UeGmzrYp9HapVwXLRqBWK6ytlDM7SaVI0Vmm2TaS8JBQq2raQ38yg5QarMzrw3eVG1w/DPC4eMai/jzblP/qe692kV6F+K4uOKxclSf/K0koU1/tjpf1k7yb8z0DZZW+nmI82w3zhAz1AyMkJxG45WOZsVqVlXEFPISeROUFI/z8vhleR0xuRjPQ+0UcjIi9qO08jBcQc55j2TsAEkdsEb5MVbQSL9lObJ5NxndRHXm/pA2JGw6xiLFXS2OXGcjdRVn6EbZ9j+8xKYNS1tsNv6R74Htt0hfboDYpvoSBseg6ZJx0G+xGItcg2GV82TkAKHTOeg6+2PSJuDd4PMUkDJA26EAkjp0AIhe40JtpkYxjcKAxj1383sMfjDMSVFLSQR3AHffJ9em+/4Ric37xYjDp+/+Yxsk1gBACAEAIAQAgBACAEAIAQAgBACAEAIAQAgBACAP//Rz+IAQAgCnz+QjIz03xucfTEY5mSBYs+tQ58eh7dcenQHMYJOxmVi05mYVk4Pr0/Q5xiMLZkUShuzigdiR2I7H0zgAbmMWYuoksagsf1HB9M/pvjqInPYtkXQ0FVWPLzH064Hrk53iO8ZHdpciJ9rqyPMM4xjvjffrjIxFu8stSFT30ILlXIT/wC7hKjtlWN/T/8AaI7y+zJVPqjjDUC3qJqHQ61Zt1U+WrFrXTQK9bFx0ubCls1Ch3DIOUmqSDqMgKamZGZcSrcf7TSnNVItcmVqU1klyf3qfNR4vfh6cTXCzrbeulU5opq/eFt0y46lK6eX5aWnN03Zbt+2cqdd/lmsyFWtum1SQ+05mlLZTOSanBMSk2VtLSMJJ7N07SXsvb9vU0r69PeU/R74UXxB9f6lLNW/w33bpzRphbSnLs105NJqRLyT3MgT7VPuUMXPVpYBJwJKQmVnGyTGjieI4XDRcqtVe7Uz06FWvLLTjdnvzwm/w4uk1gVil3Fxc6lzWtlelU06fXp5py1UbP04Qt1beZSrXNM+DelxynMsf/at0VSseZSkkiOLX49OU5UsNRtZJ5nrv5WsvmdKjwtZFOvLS+y8t/v5GQ/IWrYWlNrUvTDSy07Ys2i0Kn0yUtfT+y6PIUmQpqHp55KflqFTWmUy6Zp3xHHphwczqgtbiyrKorhYV8TnqVLtt6t+RavKhQyRTS8jk/SukyMvcGoj7Lks/djel8vLT74YbbqstT6rUhJtMlJSJximTKac/MMoWcFxx1QzjboYVZcXFW/kf11+iOfiJOVGEruzn/7f7lWFvvLOzRA6c2+Rg7ZBxkY7dv0jt5TSvZE+zac05g+DndKQoIyok9wnGQckHMLBMq7Fgvu9WVeYn+nJznONz1GN4o7lyrMaZvLOS0fNsCE9fUYwB2/GKylYlac9Ce/6VlQGEKbIIGUIT5k4wB5klPTpjeMbqdC9k+ZDXpWhPVsjtgoGd+4JG2RFHUvyLKMepBOmUs1/+JOcY8yfc7/URglVZnjFEq7Yckzv4adtjlI2A6kEjOwjDKo3ezM8YRsUp+2JJrqyg5yPu4wAPKdsDY/jGDPJLVmZRRQZqiSOClTTagfbGAk42/qJjBKpJO1yyhbbYtyZoVPKuYMg8oPNlQSDkjykfdVy8o+kYnVn/UXUUUGZplPZH/shRCgB65BPfBAH47RilNtO7LpX9Pv7+9KHNolCFYYaKs5CiMJGwyAogEjHsRiMLnKzV9DIodUcdXLa1s3LTKrRK/R6ZWqNXJCeotZodWkZao0etUmpSrsjU6XUabPNuydQps/JPrZdZdQptTa1JKSDE980otPxLYl0YzUk47o897a+G5wmaTaoNawWDp/O0mu00Jftq2py665cGnln1hBUpm5bSs2uzE+zSa5KFwiVcU+9K09eHJRlhwIWm0KlNSVWFCCrPeSVm+vx5swflYxsszy9GV296a3LuTalBKvGS6lZKlZXutYDjxDi+clGSc777ZOY6dGtJy35/f39vVrUlds4BmpZ1bo5JfnWFFZOEcoc3wkFaUpWpRSRsnofbEdaMk0c2Sd9itStvqqcpPU2qU6TqtIq0n9nVak1iQlapRqvJTKS3P0yrUycl3ZOoyEwys87LiFtqzg+sWUl11KNcrHi/wAcXwe5WvW3cN/8NdsP1unNMTdWufQRn5mZrNOaZS5MzNc0VnJhT85OrlkcynLfeU7NYBEit8KRJt4qmGb/AIuGdprlyf3/ANiqqWajP2OpixXXpJVrYqrUm3Tm56Tnpt0yFabYcamHQx5XZGeZUtAlp6UUCHGi2FqUOvYTRrwrZo2tUjuvvkXqUp01GT9h7M9keEPhs4zuNHhZu/hb4VZfQW76zLVajPz+jFNvrT/TviEvqnUavfzPULsra7oTTHa1p7QVVZDU2HqnKsPPNS6UszC5VyOdXo04cVw1ecquaUZc/wCGrLpvm9z57G5TlmwNRKNNKMlr/Nv9NfLoe0fCJ/DnfFTpXC1xiaA8QGq+kfDno7r/AGJaFxTdgUm46Jqpcd4anaTVtVxWJSK5VZKnmi2FbzgmJhqcn6fUZ51X+EDKuFtp1rYr1qMYwtPVSzJba2tza5eq8jDTqSWaCinF6Xs9E7X+i+2zyf8Agd8FF+V/4r1vWdrHpm/ZLOl9v3jfVat2ao9RkaFNylrT7VkTNQpKakHPnaRVJxE0yX0OOIdceOCnPKMtB0sXKk4TTi5LbXbxWfTbn1M1KpLCd/V1U405ZfWXgT912/cfSqZ55pxvCQhAUk+GnHKlAJSrG26ClJONjgj8O2+bOMtjkKlyJW0klGUgZChlGepJCcAlIPQ7jEYZMui9JOlgJCinkUnlPKE46gEAgFJJxgHcYEYXLUyWLllpLGwSPJgkbdweoxvyjt+wzCxW2GuRHLgcyiegycDoCcdDvtt7xF/IaE022pJUpWMEJGegBI/pHTyphcgjhvGCfu5ySCMlPbsN1e0WQN3hJO+NkgDvnO2d/VJPvE+4G4NZ67AbbHY7DAG3Nt6xN/IgjBkegx1x6EE7/vpFc9ibERDXKQc5Axjb2/OKud1awsRooSIAQAgBACAEAIAQAgBACAEAIAQAgBACAEAIAQAgBAH/0s/iAEAIAkpxOUE79P8AeMczJC2xY8+1uv8A17+px1OI15GZFlzjKt/79R32HTBzGCSMsWUB5ogny9u3Xcnc9tvpGNmS5SXWlZzuP7A9icYIijLolFNqBIO3oSDv930xv0z+81uW00JdflHMo+m4BO5VjYDJO0EyVZ6IhOy6H+RLrSHAlYcRzpSsJUnopPMFBKxjIPUQ5k6BuULsyklJOEOKABH9IBVk9CCntvGalrURhr/6bt1JaqSb7Un8zJPfKzLiXpRtxPiFSXnAl1pfKjZaELZJI6nMZqsbtI1YtJbXZwpqJpai66JN29UZW8bKuKcVJVBWoenLlNqFTlH5Kpy1US1T3qlIV9bUrOnmQ5Kv05bKmFuI2JyaRw1OokqtGM4a6P7uZe9nD2KrhPTVfdi26PoQn5mcbrus/EFe9PnLZlLf+wJ6jWzZMu29JzMrNmtt3VZGndp3OzVphcn4a+Soolw24sJZSpQKc9Lh2Ep1FVhhYqdrattW6WbsYp4vEyi4SxUst29Elr6pXKg7YNxWDQHpW0aTbclNTaGpKiUp6Wr9x3DUZkBLKJ2tVaaqdau+8qg20AAZqclmWWwPFeabSVjoRpUnlWWy8rL4JJJGnmmlmvr5tv47tl3aEcO0/p/Xb01UuurVCpapaoUmiUO63Vzhdp0jbNuN1D7Bt2UkWVGRa+Qma1PTClt82HpxbaVqabbMQ8LSdWnXUbOKaSXnbfq9AqsskoOzu0/O6OyMvacvkf4YztvgbYBzscYP+sZ2it3cuOUt6Xbx/hBWfoOUdMnYDCYoy12y45ajSoGA2nPTITgnO3TG2BmMbLIq7dKl29uRI6DJHvhWNsn9IxO25e5quTaxhKBt/VjI9cDtFHozIl1KbMSKRvyA7HcEbZz+GAYxyvyMqsi2Z2UG+BjAOVYAHp0GwEYpJ7mRblm1CVACts//AMjGNvb/AHjXkjPF6osGpNcucjrnpnlydhvtjaMMjZVmix51BwdtvboBvnI322zGrUT3Wxkja2pa84le5A5R0VgdSdvwOMRru7LppaFpTySAo/dAztvylWyjsP6orYyKxZM675iMHB3xuCOvKQRuDvk42xGCT1MqRaM1NcoOTkglJCVDPYqWOYLUCAfy369cU5WMttLnGtxVFfhuhA5QSrBCt15Khy+Irbcjp69Ae94vxJGKSspNnXivSE5Ui55SQTyp8MFJAI82cDlISpWcEY/GOnRqKNtdTQqxb2IVA0vmKk+248yVHn5MlkZKcJJ6DlUoqBH9O2BjvG3+aa8UXt8DXeHcleSSOxtu6IAobWuTDqilCvDCAgDGQnmUk9N/u43jNSrOTu9V9/IpUowitInMVG0ZaQoKRLrQW1p+6C0c86XStKkpHIPJypOx32GenWpTUuRzqkUjxH+LR8HGm6u2rePElw+Wo23qxKSsxXNWdNqHKssDVSRkmnZipXxZ8i0hlEvq5RpZBfmZdrAuRkL8hqHL85rY7Cya/OYZqOIgr+UlzTM2BxEI/wDKYpXw83a/OL5P729DoVovSdFfh3cKHAvxKXVS7v051E1amZdP/XzRSRnWtP78ma/c1SNt2NrvqzMXtaF06FVlFjVCZVUpmnSdYkXJGVmlS8tOrZdYPDxmEr8W1pV3CTi1HVrK5KzvbWyd9Vrqtt10KLp4CpVjUgpwTV+baT1tFqzvpo7a+49oeInW3QCYcp1aY1J4rbiti31VSqXBd+vWmVTkeFK0adU1y0wxqleWtdWkbN0z1jsm0pQfaFIplCuW5f5od8CWpUnPPTTSF8PC9leIzrYaOJwrVKKlnq1ZQnJWkrZGqju3rZZX5uKun0anHsEsPiYU8RB1JWy06WaN3Z6SWRZf9zvG2vtaM4m+BDxO6X/ERvTio4mDpPaul+tWjFAsjRSl27ZdNrrNsUXSG7K7dN1U+ZkblrV/12pXhWbvnbebfqQm6NSlUt2UbaYU+l55LfuuH4ahhY08ntPR6WWisrK7fq22zzeKqVJ94tFTbva93f1srLXRLQyWaRIK2yCpJJAV4eSoEZTkuBJHLnc/p0jpTlvY0lyOUqPKIwlwqSpSMp5uiGwE+VCdgVLIPX7uIwSZePIu9hpK0jlUlPqAQQCN8FXmzsDnGYxF9irtoCQPvE+XtkqyMn2Bz2PSJ6EE4kEJ/wAvTmVgkgkDqQe2/wCkSR9CYQgKwSMjtk/rtseuYkEbBIOR0VnJ2T6jr1iQb0tp2JGSDn/tyf8ALkAnOINsG7lBxsNsA5HMfzzjrEXaJIgA7Z7e35+sVBuiAIAQAgBACAEAIAQAgBACAEAIAQAgBACAEAIAQAgBACAP/9PP4gBACAITqQpBB3/f6xWS0LR3LUn2M52/L3z0x2yI15KxlTsWlNy6sk4PTfb19SNz17bRilHmZUy335bPY43O34+2fpGGS0MiZTnJXuR02P4bf3ili6aRKKkwemNtsdvX8MRWxa/Ml1SBzsnGNu+R37HaI8hfzNv2eo/dBzgdQD+frEWZObyNGqc8ibYUNk85SvP+VaSg+2STGSndVIepSo06c0aolQvxkDKXG3g40rAPIpCHUFQB8oOF49ic9Y3ms17mjtYhOOTaailJ5S25Kyy0hxDTyt0kLUApBB3HpmMtCEcvnf7+/tpyfMvaSlmXEJU80BygrAS0kDf/AC4Tkg49cCNtQWhr3ZVUS7DPiYbSlZGCoJCVFJAKUc/XAznrjMXSS2Ktm/r7coGxxsDsR2xn3i3QgitYKRhIB3OAOgG+EZAHSIZZIqTCSU4HkPQrSdwQfugFJ98xRsskVlgDAPY4CcbEnfOMDv7RjZkVkTwOxT0xj6DJzuSc/pGJ7l0aqTtkEkgeUYwEhXfGPSMbLp7Eg6z6jv0xn/kbxFiyl0RQZxjJ6b57dMjqSRsSD9Yx2LqRaFRk8hWACQeXoAT1P6YjFNXMqlqrbFg1OnLWCACDj0Oe3b0J/fpryitTPCok7FpTVHcUrAR0B25em2/pmMPd5ru+hmU1Yt6boLmFf4ZGPQbZ9fbAjG6W5OdLnqWZU6GvlVlJyMdAd/qdgfxjBKlJcjLGpyOMqvSH0c4833SeUoyBlWcjoM7Yz6Rq1IO+ZGzTmtuZx3UpB0HOXUhDisAAAuJ5SfDJKd0kHfGDtt1jVkno2jOmnoiyp+jImFbg5PQDmVvnoR5gACM537RTO00yXG+hRWrQDrqVkZA6ZHMkcgyOX7ql4OSN/rGxCq202tDDKmt3Y5ntO25SXUgqabx5BnkAIyoYA5uXfmOAnGTG3Tm56PYwT8K0OyNsUZsJaAQlXMPMAny8oB5UnGFYwkgY32jpUKdlqc+cs129zmOn27LONtnw/D5PulSRyj+onl5eXOSOu/p0jqUnJJI59Vq7JeoUNoBwIQW2UtrQpQSQ4ouAD/CwOZOcnOBkiNtNSThLVPQ1rWaa3R5GcQfCJYfEJw8cTnCHfVsVuoWVccjUZqhUDT+VoMhclFnDUGbsoddsSTqQlaDK3XR7nlDMy6XVsSz5dUy4tDb6yPOYWMqNd03Jtwkl7tl8vkdzFSVWlTrJe0nv1t6+fyPALhJ4LdeNO3NPtONDJr4fdxnSP+b6GNYtdeD3VCZ1tetuWv23L4kzqxpyxRbisKc1J0yuSnzEpI1tNxNqlpKoqlUPtlph5PrYVJ0o06eRRSt4la7XK0rp9efuueaqKnKdSUpzlf8AlcvDdJrbWyd9dH79j2i+DTwZaA/DnunU/QjT964Lx1W1foP/AFN1S1fuBLdu0q5WrYrLUhRdOtNdM5Wq15Nl2XYkhf7c149Qnpuq1Q1Jt9bymUsts1lRUaOeNrZ16u636W0dlrbW7MqrZ55Xe9r+Xn7/ANDIApUiGFFpW5StA5Rknyk+Va1c2eZQ3AzsIpLa4RyJJyqORpxbaAhJygeHklQIOMkAlKf7xgfmZFoV5lhtBChzYWo5SMcviAYzjAJwBg42iLajkVJPokYHOB2JOSOuMY26f6xJBHKAtQSfupAJSB1wepHRRJI65ETbmCaTuAOXyjmzsPzHTrtEgiKSrAGyjnfmVgpBGxSBzZO3Q4zEX1uCIABtg/XGx7dOnv8AvERqSbunXbA74x7nPWIBb1XvG0aA2t6u3TblFabyVu1at0ynNpA68y5yaZSnHvGSFCtP2KMpeib/AEJSb2VzgS5+NbhFsxbrVy8Sei1LeZz4kuvUK25iZSQCSPlpOfmHyrAOwTmNh8Ox8EnPCVIp9U19bFnTmrZoteun1OuV1/F8+HnaKnETfELSqutvmBTbFrXvcaVFPZD9Ltx+WUT28+8Y3hasVeTiv/2jf4XuveT3byqWaNn/ALl+5xZS/jq/Danq1LUaoayV62EzT7cu1Wrn02vmmW+hTqwhLs3VkUWZZp8qgnK3ZgNNtp3UoAEjH3Tukpxb9f3sS6VtqkW/X90j1noFfod1UOj3NbNXp1ft24KbJVmh1yjzkvUKVV6TUpdubp9Sps/KrdlpySnZV1DjTjalIWhQIJEY5RcW4yVpIxbNp7lXiAIAQAgBACAEAIAQAgBACAEAIAQAgBACAEAIA//Uz+IAQAgDQjMQ1cFKmZfnUdtuvvnqMeuTFJLyMiZQn5Ln+6CMdztjfG+4zGKUb/f39/K6ZSHqUo83lB/AgdM4xjaKOnzIz/EpL9MWFEFG3c9vX2jE4NGSM1sSC5MoO6cb74G+3XH59YxuD10MmfzNES6SSFAjOdtv+MdYpbqiVJsnWaalZ2G+fMMDuRuT756RKjyJvoTSqNhAKE4UCDsnO4KTuRjp3i8YaplXLRlKXRMvqUMhLjhUQDjPMenfA6xupXWxqt2JmWoTbs/KkthSkyiWk5xgBp1w5OATkc2IzUlljLrcpUd2vQvs0phpASlHMrlA5cbDG2BsDyjuIy5ylvIpcxKNoITgAnOVdNiQfwBA9onMRlKe6yCoADJSMDoSo9MHG+2O8XTBohBT97OQMYGRgDqenf8ADMGyUVBhBGARlShzHIzjpy5Hpg7xRssiry6SCkq6gD2Hl9egxj67dIo2TuTqM7nAx1yd9up675zGNu5ZEdI9jkAEZ3OCehyR/mitn0LEssDCs7q9c7jvtgekUJW5THJYrUSUnB3GcZAx/lPv6xBbNYpMzIpWCAnpnJxuB5epJ7mIcU0TmKC/SEqO6cEg+nL17469owuBdTaKY5QUq5iQlPU9PvZwcJx77ARXu7XLKb3KJN0FJBAQMYOMpBIyNxt6e+Iq6ZZVOr1LNqVAbKF4A74505zscq6EgZjDKPloZ4zezRxfWrfT4ayWic5IPKnYY6Dbr7Rq1aF7tM2IVctkjhqu0VTSleRX9WQUEZSncdOVOFHc/SOfUpuN01obdOorp3ONpumLbUQhpSionZKFHrnmxjOxHoMekabg7m2p3sxKST7RCly60BATgKSpAAweUEqGEJ67dBEppaFJOP8AUi9KdWqLTC2upVmiyASQomoVimyaWwnB3E1Mo38o39ukbtGpBSj41f1Rq1E3eydvRnI1M1s0aow5Kxq3phTHOYZ+dv605UjfqUu1dPKgDO5jr0K1NprOrnPnTquOZUpW9H+xeshxWcNMkhK5zX7RBhIySl/Vmwm1cyNz5DXQOVOM9QfpG/CpG25pyw9dt2oTfuZGmOK/hcmyEjiK0FVzrTgK1fsEADZXlKK8tXcHB6gxkjUitcxDwmKtdYaf/lZwVcmtnDzJ6p0C66TrloxNSFVZXI1YSWrFlIW4agpuSQQgV3DiJVyWZJGTjxFEbxoYhRWIVWGzWptUYV+4lSqU5K23hf7czyrrk1wUaKcWFw2xVuMylUqY4hatKyVu8OVsO0++mqrOX7Py0tKyz9VoVLu6fdTc1VlWi226JTKuRJU4EoVHcweOpzpUqSpKdaFlfXTdpX0Wnrp5HJxWCqU51a1STjSacmnZbbuz1t7tbF12Rx6cBenXHZofpHTLP1/o+tetdt06xNK7zvK1LhtHTSmWNeCJxFuU+So191mgVmkUW4rqtI0uWSLfEz9qq5XShGVpy1q2JbdCcEovxPbe19bNu/Vafvjw1LDzj31KtGVrx0d7W5XtbzVm9D0v1n+KT8P3hwuNVq6x8UOmlqXPKKRKVO2ZCen7srVIn2iW5mWrUjaclWnaRPNLxzMzHhuAndMYFUTSt9+82Vhqr1ypLzaV/c2jtFw0cZfCzxZ0WbrHDlrlp7q3L0pDJq8jadfl365RETKlol1Vq3X/AJev0nxy2op+Yl2grlODtmKt7O2hFSlUpO04+9NNfFaHa9onKirn225Ry7K5sEcydxgHf2itymxUG0lQBQFdfMkYPT6YGwIgupHUsi/tWNLNJqS5XtUNSbG09pDIy9Ub0uuiW1KJRgk5eq87KAnrsM/SIlVhGyc1cywoV6v+nRlL0TZ5iavfHW+HDpUuekqXrBO6wVqS8qaVo/bdSuqXfdSf/bZuZ9FLtJY5juoTxG/rmJjNy0hBv10/uZ1g5L/Vqwh77v4Rv87Hmdql/EwoWuZldFuGtmVlyFpk69qxe7bLo6hDz1r2lJzaVAHcp+00n3jp4LCYWc4yx+NVOjzyrNL3XsvkROlQp+y51H7oq/vzO3uR5y6o/wAQPxs3el5qm6lWbpfLK5sS+nNi0YTKE82UpRVbwN2TAITsVBCc52IIzH2Tsx2r/BHsrhZT4l+GOI7RcYdrPF46tQw0d7/wsLGlUk9vaqWPEce4T2s4tUjS4Z2phwrA2d3Rw8K2Ib0taeIdSjFb3X5eTd90dB9QPijcTF9LmFXbxGaxV4zJJeaf1Br9MkFleUqBpFuzVFpCEHGORMuED0jR49+Ms+IwqYbs/wDh/wBneC4O6yrC4KEqitt/HxDrV3pu+8uzc4T2enw6FOWN7QY/HYqKd51pxje/WnQhRpelqasdRbi4q69VXlzE9V5uovryozE/NvT76ldVEvTbjrq1KOASVbnv6fNcd2k45xF3xPEKjXROyXolax6LJB8m31OLqpxIVx4KAn1JSM4ShaWwDzDCiUgdB2EceVWrP26jl6tslRWlopWOOqjrpXJjmC6g4dsEeKonZWTk5yf7YjHbmRa2vMtJ7VSpTSj4k0sp3UStzPlOVK+8SMHHeI09xLu+Z9Pv4JVPvym/C04O2dRROIrkxpq/UqY1UC4Ztiy6tc1eqdhMLDvnQ03Zs1IhlJ+4xyJGAMRlxGlRJ+1ljf1yoxxlmc3fTM/v4nqlGAsIAQAgBACAEAIAQAgBACAEAIAQAgBACAEAIA//1c/iAEAIAQBsUgKznf6+vt03iLE3ISmUnYJ2B26de35GIshfU2GWSoHYdB2794W8hcl3Ke2r+kbntjbbqPx9orlITsU9yitOb7ZxsOwOPUdukHFdPv7++tsxSJi3lYUpvAwMADGTn1xiMcqCexdVWiSRJz8kUqLJdSOwAzgH15SAP7dowulOL2M3eRatcn2p6WfAZczKu8wTh3yA9iElXKCcxRu1k9ydN90FMFLxaSoFSV+GGwErWvGDsE9RhQ36CNyn7KRrS5lekKaqWdffd5SpWEsIGT4aMebmOwKlE9ukZLvUotbXJp3oojr1x0J6nGOwAO/7xW5Yt+YafdKghSQokAeUqxuc9xzEiLohkoZUp6hKcKAKuqlgDJ2JAA2i6ZVo1RKL5ugPNt+OcjHsfeDegJxlkg7AnGQo+bHvjdJKeozvFWyyKi0lXKAOhP6g7BPpj8Yq3clEz4eOXOQO3pkjsO/4xVkm9Q+6ME+6sd+noSIXJIakdcJGc4JxtjuMbe/TMQCWKM46nKt+gGOg9ds4irJ+/v7/ALS6mAs56BGwyQBn05cfSGg2IDjAzkpTjBSOXbbHXA9YjS70JJFyXT2T5gDkehCgBzZG23pjeK2LFLmZbynolI5jv1752xn6doo1zLJ7nH92VSg2rQqxc101emW9blAps5Vq7Xq1Oy1NpNHpVPYXMz1RqNQnFtSklJyjDalOOOKCUJBJMY3HVK12ZIt3slqYpnGl/Ey8O+mldrVj8KenM5r9V6W/MSLmo1xVF60dMfnGipsvUKXZlZm57rk2nUkFzkp7D2ymnXEKComOEq1LXtGPxfw0S+foXdaFO6bcpdE19dV8E/U8LdTv4iP4g19PzJt6vaX6XyTyl+FLWbp3Tp16WbUdgmfvKZuaYU4kbc2BnOcCMn+WUHZzcmvW30SKrGzWkacV8X+qXyOkV7fFU4976ccXXuKrVpAeKuZigV1Fqy4SrqlEvbEtSGW0Z38o27Yi8OGYGN7UIv1u/q2RLG4h7VLeiS/Q603DxSa73Wpa7l1r1Xr5c3c+2NQ7snwvO58sxVnBynfaNqOEw1JeChBekUv0Mf5mu1ldadvU4unb/rtRUVz9aq06SfMZqpz00rJznmMxMrOTjvn+0X7uK9mKXuKSqVH7U5P3sojlxuqzzLKlYJPmUoD1A33GTEepRt9WS38wuqznBx3CfpjOe/8Af+0pWYTsbFV17BIPL5evKnrjOR+MG10JciSNZmQsczjvLlOeU8qsKyEkf04BMVfmVu1zZLmtzjTimjNzDEw0rnZe8V0eIhCsEDlOUONKwQRgbxBF7631JOe1FrNKqdIqk1WKpLOS0zLGXnftCd+ZkVtOBctMS02XzMSxZfwtBQRyK3GIN21uSs2ZNN5kdmtB790CtTUu37k4mNO70160orLVRYuCgWbdLlEumjzcyoutVimzszMCTnpxR3KH1JQpasqVtgw5SUJqEU58r3t8hlzvxVXHztf4p/8Acvvgx4rK5wUcVGl/FDpvMXTbdv2bqNLVKrWw3UkKqVY01qFc8Or6e1uc5WqfU3qzaq1SpLqPDExyvBKVNpIyU5Zb5leDTuuumnwepKlbNG/ga+3by3RlfazfxX2oNUExJ8PnDdp/ZLAdWJK49X7yqV31Jcud0Pu2jaMvQZGWfIwrk+1XkoO2T1jUSrOSzSSj5L9X+xmtg4p+3N+6Py8TfxR5Ia2fHS+IbrYmblrh4r7osuhzTji/5c0VpFE0ukWG15zLs1qkMPXg6yAcDxKkokdTEqhHTvJOVur/AGsvkT+aUL9zQpwv5Zn8ZXt7jzOujXmfvCsTFdu+4LkvqvzK1uTFcve5KxdtXmHDjmcdqFcnJ6YUVK7lUZIwgrWSRSpisRV0qVpSXm2/lsWpOayTyUEMOpZSPKhDeEcoz0Ty7cx7fnF+W5hu7FozurNWmOYqm3f6f6yDnJ2GN+nWH1HqW29qDUXwQuYcz1zzHOPYJ7KP6xKsFZ7lGcu6bczzPrwTnvkDPQ8qsdIBWv5Ek7ckwQT4qiDt1P8Am22zjfH77idORTna4+oKPMsEemcnbrnqdzEk76GtJFxXBVJelUiSnqzUJ59EtJ02myz87Ozcw6vkaYYl5dDjrrq1EBKUgknpEJSk7Rjd+RW/RaGUP8JT+He4hOJS9bR1f4x7RruivDdRp+Rrrtl3LLv0XUnVpuXeTMN0CVob6Wqra1sTy2gidnpxDEw5LqKZRCi547OW0aVpVLOfKO/x5e7frYxzlJ+CnvzfT06v5L5H0R6LRqVbtHpVv0KnylJolDp0lSKPSpBhEtI02mU2Wbk5CQk5doJbYlZSVZS22hIASlIAjA2223uyYpRSS2RUogkQAgBACAEAIAQAgBACAEAIAQAgBACAEAIAQB//1s/iAEAIAQAgBAGn7/3gB9fzwOnfqOkAbebGAeucb+nr7wAySCCO2+fUjYD3zAGmBgAjPfoe2OuO4gCA7LSr6SHZdlwEkELbSrp1PTb6xDinukyV5G2Vk5OUz8rKssFRPMWm0pKt/wCpQHMfxiIxjHSKSJbbd2yZWdt+4O/oO+OnSJZHoSam+bpkggn1Oe+x6ZMVXyJ1Jfwwn7oKc743z5hjqdh9Im+pBCDB5jkDcqPoT6/QGF9RY3Bk8w5clKRtscHuSdt/0ETe4sRGWMbqOc83LgAHqRgY7ZiC25FTlJB2O2AkYJHbttsDFdgRuUDJ/qG/MfoO3aJBsPXHb1OO/bvj84Em1zCR1GT2GQMZzknGcY9YbAhFHN5zsOnpn6/XP6RVjbQh4IG+25x+GNwOpwRAkhLO2MbgdcZODv67xVkkkpOBtnGQQOhOMdR3P7xCxJITCSrqRkAjpgZ2PoSrPvFdQuphMfxWXHheFsz+mfAhYFcnKNQ7itdnVjWtdNmlsOXDITVUnKdY9nzrku6laqS1M0mYqE3LrHK+4mVJ2Rg5qMFrO+t7fuRnazWduX7/ALfFGES7UVE53G2BvkfTGBv6xsKxTTkSap1wk7nY9BntvgDcDGO8WvpYEJU04ofeVtjJIydwMb9Mf6RV9UCX8c5IJ36nzZJ/AdMROZ7EGnjLONyfoSepPWI95JvSpSthzb5IxsRv6jrtEXBNobUrGAcnJx33PqMHofyiUST7Eg84lKuQr3xkb+gz67QaQKgi3J+fZeDDP+ItBSylQwVOZAbGACQVK2hlbTstSHazTOXa/pFKT6KdMW4msTctJ02lP1aempYS781UXWUGuNyEkylbrcpKlxSGgStbnh8/9WBk7rMk4xem5S9l42lK5ceo3DFI3NR6u5JVJmnNeGXqS9NYaKm/CSJPxkLDSmitSQXAQCM7jrGWrhY2k4yt5W0MFOvL+aPL75HVq0KO7bFHlqdVef7XadmZZ9KVFxGG3i3ypOSlQGNiO0aF8r1Nv2lc5Lvm2VSdiSN4VN9D1FkZxEsiRQp9hMxVXElbYbKE+A480jpkwk2kmnYRS1ujvv8AB74CaT8VniBuXQRer83oPW6Lp3V76pNUqFrO3wzXjRanR5Cao7cozXreVKuJlaoXw6XV+VojkOci1Jxlncr2VtvMmaUUmldc9bGSqn+DtrBT5uPSTzgApToRMnpucc2pud98euIyXpdJfFfsUzL+j5/2JgfwddUSeZHHnLJON86EOq2IzvnUwHfI9DD+D0l8V+xW6/o+f9iC5/BzVpxRzx7ym/QnQR4lKe+AnU9I7fWF6XNSt6r9ibx/pfx/sQR/Bw1r/wDJx7yJwTnl0DfzjbH3tUCNgOuIfwuUZfFfsLx/pfx/sVKV/g4QCkTnHo4UYAV8toK2lR67J8bUxSRt23gu6/pl8V+wuuUfn/Y5Dt/+Dr0sl3EKufjb1Cn28gPooek9t0pawepbdnrnq4bUQcZKVRbNQ/8AClt/Uv8A4i6v7Gnr/Y7D2r/CKcB1LU05deu/E5dZQUF1mXrOntuSjpSfMOSWseemm0r9nsj1iueCd40vi2/pb7+RSavovn+53W01/hr/AISWnipN+d0FuLUielChXzeo2qF9VduZUgg5maVSKvQqK8lRHmSZblPcQdXV5acV7r/W5F5dbelvieoeivBJwgcOSkPaF8NGimls620lkVa0NO7apldW2kggP15FPVWphRIBKnH1KJ6mIdWo1lzvL0Wi+CIcU99fU7RRjJEAIAQAgBACAEAIAQAgBACAEAIAQAgBACAEAIAQB//Xz+IAQAgBACAEAaew/t+xADB9e2Px9cdIA02G+ADt9B6Z9BkQBtzn2x3/ANMe4/OANMZ2wcnv7A77bb7fvuBqT/T9R0646eu23vAkJPXbA7Dpt7D1+kCAoDB22Awcb9O3TJ/OAIJOSD0GSfQnpt7bCK2LIhnGdxsdj7+v0AH5wDQIzunYHsPwJB27DMQPcaZIyAMADJwNtz90EjzHEAjXIHse2/Y9/pAnbYAJScgAZ3wNuvXKjuAB+/V5cyTaTkgZwEqGe2ewH+8OfkQzVR9dgcnpt+Pff6xFxZ9CEslaht0GOnTONz7/AI9IA2q3UAScAEDGRjfp7Ejr0hcEAnmK87J6dRjJ/p7nfI6Q9SSHnqCNvU4AAT0yDuR+QiLb9Cb3IRPk+o2+g7e6j/rEbApz/m9cDOcDOTy4wMYHUf2/CCdrHzTf4oe1rlpnxR7iqtYQ6qlXRovpbVrVUpK0tmjSsrVaNNNoJPK4Wq3TJonGMcwyOmdmNu7p5VtdP1v+zRiXPTmzHCcaVvty7Y6YzsPT0+sSWJNSVcvPzA4JAA+9tjzEdxmFxcgAKXhWD1wfy3ONwIX5EX1N5lyEhQBzvnAzzZwcHpgAwJJyXlVuDZB2HUEbpzugjGCSOm20AXHJ0F90pUltX+YEY29FdMjodoWuC+KZY03MBvmlllR8vlSeUpKhk+IkYBxgdIvGLZF7bnNdsaMzMwvkLD3IhbaSjBCzzJJcwkhQJSehwOv5ZVSk946FXJLmc1yGnFu22yZ6tOSknKNDIVPPS7DjqCpPOU862wVIUjHXJ3wIz06ag23YpKWdWinc5Os2wNcNVZmUtzh30L1H1Gqc4Uty8/a1lVuao3hPZQh6Zrz8kzSJVlChkvLfCAP6ttpqVXTirLKur0XztcrGnG7cnt7zjfik4L+PjQynafV3WPSmqyNE1JqDlHo83SrhoL1FpFX8XlRQryuVifdolq1WYQvnaROOpDiM8qlFKgnhvjOGqzq0o180o76P5aapeWx0Y8OrpKfdWuvedILy0J4lbPulyRubRqp0FqYkvmKaHPnKxIutrbTyTcpcFOS7Tqmpw+bnaPhknbtGrPGUq0FKjXUle3hs/d96mWlhpLR025Wvrp7z0c0v+Hl8QnjG0L0v0e0t0yql1yCL2qdYkbKoVrfZKZCcfkpdM1eupmoFxsUehW9Qvl2kMySZyoJDziF+C2pRwrPQpyxNeWSSuoK7ckoxWu/nu7JNvkiuSKTllsr7v3/TotdjLG+AZ8EvVL4cevt9avcRNcsqoal1C1HNPrTo2n9afuGh0qmVZuUrdyT8/VZmmUwu1UPU+XlEoQ3yt8r/AJlBSTGWjVo95UoUqmaS9pq9tOS69dfqYcRTqKlGbhaDd15+7ez8zLoQAkDYgnY7ZJIGN8Z8qY2DWNycjdQ9CADgDffqcmBGxvBz22P/ABgdPWBJsJGdz1KsJz1IxjbpnI27RIBPNv0IGcbe2T3xiCViDb4iSR7d8eUk9jtke3rFsr1Iubw4N8bBO56d84GPSIyvTqLo0LiR/YZ2HYbHqAYKLYzBLmRk4H1PTv2ztBws7L7+/vyZjdzpz179f0/vEZX0GY3gxUtc1gBACAEAIAQAgBACAEAIAQAgBACAEAIAQAgBAH//0M/iAEAIAQAgBAGnTft/pj6QBoT6fXHt+WcwBoAOmOmR74/IY/GAGMbnsc9Scfp2EAOoIxt2Hc49B2xAkeo9xg+u/bscQAUCU7HlOx5sBWN+uCNyB6iANpyOXP6gDmI9gNsneAISiMb9OmSMdOo2+sVZJDxunOfY/iOmIALOSN8An1Gfx67mKsI0KunTfoevp1xt+pgSabA5JIJ9t9xnr1yfSHuFzaVY9Bvv3Hb88EQ+pJt5xsNsb5wd8jp02ABiCDTnzjAAG+5znffYDGBjtEkm3PXGEgZ9idvvZP3jkQ3I9TYokjY4znOdzyjvnOe/0gRfc2BQxgeXIOSBlX1HufX3ipJBUSBjA6bknO2STzE9wTEk7sg8xyChGwyMc2SonGMD7ox/pB+hJLOADmUVZOeiT6nueh269hiGxB4WfGq+EVTfiZabWxcVhVej2fxHaTS9SZsWt1tDrVu3dblRU2/UbFuyalWHpyUlnJyXS/IziW3vkpgr/wAMoeci0KiipRl7Ld79H+3X+1iji07rZ7/uvv6GAlrt8KHj24f6tUpDUThS1jl2KYtaXK9bFoVC+7VfbSVYmZe5bMartJVLOAcwKnELAPmCTkDYs2llal6P9N170M0f6lf4fJnQutab3JQ5pyVrVCrNFmmyUuS1XpU/S30LBOUuMzzEuttaT2PeIlGa3g17mTZ/0lGlrYeUsJWG0k5KedYTjcpGRjGcjpFdegs+hWmLQmnORIbS64ojlbZBeXggdEthZIOTjb/mUm9kxZ7W+/v76cx2NoDqVeM0zL2ppnqBc7zqm/DTbtjXRWVnOEnAplKmMge2xEXyySTcWlfd/wB/v9ZzJaOy9dD0K0j+FXxz6iuS4tzhQ1Waaw34M7dlKpunkiUlSVBxydvepUYlAG/3FKx27RKnTjvKF/W7+CuyHa9lv5a/Q9YdGP4ejjDuUSM1fVb0P0jl3HELmBUrhrGoVelmTg4VQ7YpdPojzyf8v2pjI643jJCvRi/ak7dF5ebX0KyzuLVnb3HrLpB/Dm6F0duSf1o4gdUdQZgONOzNJ0+ptv6VW9MBCir5Vx5lm5rr8JX3StupMuYOxBiXir3y0t+rb+mUxpNPZfNnqJot8Lf4fegczKz9hcMenE7cEs828zdd/SD+pV0NPteZuYl63fr9wTsk6Fpz/gqawYo8VX2jPL/0pL5rV+9ktZk1J3j98jtTqhQZFFqJfo8hJyJooJalZCWYk5dcupKUhltmXbSlLKXWUAAAADMaGLg6lJy1c0ZsPlhUUUkos6A6fUe37308qtDumi0O67YrdRqErW7euKlyVeotTlC+ptySqNMqDUzJzjXMkZC0dRHyzFValGu5wk1JSPoFKFOpCDlHXL8C/NE+HrSXh+buaU0HtKl6UUe91MzFx0G15GQfoM1MsNzDbUxT6NcEpWqVb60pmFgintSqVkgqBKUkYnWxFarn/M1IZo5ZWt4o9HmjJ+9Wa5Mv4IQcJ0IVLSusyfhfVZXG+y0ldabbnIuimllscPdKn7c0zmLqpNKuOrP1iqpqV4XJc03UqjMqKnpman67Up6b5vNyoQhSWmmwEoSlIAjtUMTUpxpUKMu7oKytHRWtbW3/AHbOfVh3lSdeslOre93FaXd9NFbX+1jtFZaj/NNMWo7rdmySoYJPyzgyrA3UpXuY9Nwf/Va8mcLijbp3b5o7HpmCQVDOAQOckBKiT79hiPR5fI4d+hu8YKAxuPKefAIycZ7E/ptCwv1NqnzkjbykdTj6bkdCd4Zfv7+/0XIRfAP3sgnJUd9s7YwR69TFkityGXVDKsnBIBTzEFR7J2wcjrFrLoRmNxWMALUQrIPTdWRgjoeUDpkdItbyIv1IHzB9ASlR7+VJUNyPXcn8Iso9SLmnjKPkSTyYGVq2CgR2P+Uf3icq3IuRvGWQMYwf6sY27Y29cDO8RlQvsTDTnMNjkn+rcdieUZ33jHJfAumTyOmeuQDkep7YjBLcyoiRUkQAgBACAEAIAQAgBACAEAIAQAgBACAEAIAQB//Rz+IAQAgBACAEAP36QBt37Edvy/1/KANucHBwO/UZOfbHTIibgDcD09OvQb9BsN/TJiACcYGcZOOgH1yd8bdIMk0z67nP5Z7dB6QINCThQ2yDj0A6Df8AKIJNh2BG5JB+vUdsdoeQNh3wMf8A9Z2Od8bnfJiCSEo74J2AGdjk59uvSIe/kDZnI/7lDAGcgfl0AH6xG4IaVk4GxJG6gPLv1wOv0he+hPI2KcAVtvgkemD2wOuB06RG3IPY2lzOc4xlJxkY6Z99wDBkrY2Kd5QNuUqIASN1YByTuMAfWI+ot8CGVn1xnfrgADA6nbPp7xNxYF7KiB7AYGO++w69cZhdC2tzaXfLkEA9BgbDPUnG539ekCbEIr5U8wB7b9c77DpkjaIIsbeYkYJ3Vgq3223O3fMTfUm2hC8TGyT95RCumc+mRkDGdusRoQQVuA8w8oATjfBJJOB7dB/xEXLWViSWrYbj3UPbbcHbmI9sxAsUWdWgpUjYpI5Sk+bPdWUeuOsQxZNao4huy0LQryXE1q07ZrKFJWCmq2/SZ9HKRvzCalHgQfrFc0k3aTLKlTe9NXOtte0P0MDq3joxpMXAcqeOndoFwk5KcuGj82e/72rKrWtdVZX9WZVSpJ+wjjZ+ytOKIsqpOnlh0gJ+59m2fbkmpOFYHKZenIKcHHp/vruVR3bm7+plVKho+6VyEzXUyh8KVS1KNjmCUyrTUulITlRwllCEnr2GN4pCnJ7l2qaV1BX9C7qPci1qT4ji1hIxhal+cndIOcknOyj09N424Ulo1uYJyTRzLRK24pDSS6Oo6eXJwArCThasA4G+Pr1jdUFZGpKbbaexybKVjLaeVY5iQDk42JwlQzgk4V0yPoIyqN9zG7MqjVZSrkSghSuYjn5lcgQCCcHqVqPpE5SCHcFSlG7fqCJk8yHZdSFK5gFBxQBTknygIIKieg5T+GtjK0MNh6lWe2xlw9OVWrGMVqtTzY0CnlTNpT7SkgeHcldLIBx4zaqtNBhxsFajyEI2ydu+I+Q46pevUS2v9Uj6NQio04eh2tpBWltr/EBAwnI6gq3KT2GPziKOtmUqat6F2uOIbmaaSMtlWVErAUMLSefpgg9DHQVRQcL7XNdxupdTkigzqZOs06aTygh91KEkg82WleXP+Yozj0j13C6mWSqJa6nnuIRvBwfkdg2p7x2GHUAcroS4CrGeVXffbbv3j1kbSSktmedeja5omQta0gAjk2wvO+Ngem5BPYYyImwuTmAcpSkrIAJ2JCRnHL2yr9+8R0BBIJOUAkqKkp9AfUHudvWLJEG7w1A4GD1yTknmHKrCemNj1ibkAMqPPjmPNnfPTH3TsBgAGJvsDZ4JWSkA4z9/bbvjBxnaJuVIolCeUKJIByrOMDOSkeoHWIzrkTlfQmfl88vLucJycYSoEA49DhJimfe5OX4kylpIyQnHQEEbgDON1RjcnsWUeZMBIAAAGNjt694xt6mQ3RBIgBACAEAIAQAgBACAEAIAQAgBACAEAIAQAgD/0s/iAEAIAQAgBAD+0Aadv2O3fAxAGmB1/I/Xbp9MQBtO2fUDp17jfcdPwgSbSMkf3O23tkD1gDUY9cnGc4yMZ69Bv+cAbO2eoG/bG22TjEQ+o2IRVzbbgknJxkY36YEB7jQnYDpjGe/Y49v+YryJ6EBTgOeUg74V7bdAcbYh5gllrxsntg5J9dsAEds9cRW5YglwjOP02TnHlHtj0hddCPOxLl0EbEjcjYDfHb0xg52iLlraEAvEnrt90nqcjc+u+0VuTY2B8kfeyo5IPQp2xtt3iULcjaJjB3X0GM9fTrnYY9//AAuTY3fMhH3CDsObfyjPdRI/0yfSK3ISIXzIA3GSTkHO+eh3G2cwvsTY2qmFHCQrbB33H+XGN9x+ETm0HMhKf6E9RtgEY/ZI37RFxa5oZoJSBkA4xvgbn9f+Im4sQFzCdumDuDgkqwTnAweh/KIbCRIPTOQemw2IOd8kZSQQBkCIuTb7+/v9KHOTICSpWxBKUjr1/qOB1xtEXCXkWHV5gKStRJwlJTzFR6bZOAQN/wBIGRHCtyTSQlfJknfc5IIO5AG3mJI29IZdRmvojr5ck2Ap3zKUnc5B2yE/35ic7fnFXTT2LZns/v7+/LjB6ee8UYV588wQeUkk7gjHKQkgd/8AxkUFyKOZd9Em1p8M7nl5CCQMk5JVyg45cqV06HO2d854RS0MLb1OZqHVVOJQsKyk+UKCucJVklXIewPP5jvk/SM68zE9tjkuUqBLSSVHI5eUA4xkEY2TzDBHXpvFily4Jaee5QoqKeoTnbcYSnYZVle++O0W0J1LY1Duan0KhUwV59yXkq7Vk28hxLanA1N1SUmW5YucoKkIU4kI5sEAkZwMmOHx6cY4Wne9u8S+TOhw2MpVquXdQb+DR5waF6rWjal2XZolftVZtLUq2609NSUvcKm6RJ3dQ5p9002t2zNzKvkqkqfZZ8VxhpxTzZWUqSkg4+Y4im4NzrrLK9r8v7P10d9PL3VKaqwg6OsWtV0fPod3LGueVrkpVKgzMtvSArM/LSrrYGVS8uW5dK/KABzLBIOwIUMbYjFh6sbTnm8GZ8i9WlKLhHL4sq+Jy8xKMVUIT58hlxkcqCpZdXhKUKBG6cn843lTjXdvJo03N07vTqUeh/zbX75blpaQcp9r2POTbNVqT6yftqrqljKyUrJJCUhTUq28pbx7KKRmPRcE/MTrzTjlw9LRv+p25enM4/FZUaeGSunXq2a/2xvf58vI7kUBSvlJRtwFfhsoSk5BStfMSpPLjOAT9I97S/04+h5OT8TZdbDXUEHHUAYHKRnJwOmcY/e1mCeS0rBTvgqGCfQHBwBsSOucxXMibEb5dPKE4wBgHoM9yffr6mKZ9ycpqGUdQnGMgHv+HTlGIZmMpu8IY6fezn0H6DofzhnZOVG7wk8pAABPpsPQdPaK5nfcZUbwkDtnP7P4D0iLtk2Rrj6fl9IXJNYgGxKEoKinI5jkgqURnvgEkJz7Yhe4N8AIAQAgBACAEAIAQAgBACAEAIAQAgBACAEAIA//08/iAEAIAQAgBkD8dh9YA0/f0gBgHr+eN/rmANvl3HX179Dnt9YA0x19z13GwH13gSD16nGe5xg/XECDYvbbHb8jt6evv7wJIJyd859fNttsB2irCNisJz2A/HofU+kCSApWEjqpXmITnAG4OAcCIelgS61FIOAUgblXTJ9httj8YgdCRcc2G+ScenQdc43yfT3/ACqyxKOvZQU4xkDv5iT1wOh32imly1uhKKmsHJOOUFIHp/3HOw/vC/39/f62sSnzYweUjHLsskdDgg527f3iubXQmxC+dTjY/kemPXsAcmIzeYt5ED53BO/Ty+w3IKjturGYZiyXUhqnU/58Y3wemCc8xJGMqOfSIzJE5G9baGhnCRnqSBvn3zsOm46nEE00RY2KnQFABW+MKIOdxvgY3G5hfoRl8jYZvGRuSepBwNhgEjOSTEZycrIZmxuT97fO579d++0SpeeoaISpwDcenp0yAfTviIzBJlOcmzuSrKTnfPTtgDKcHIity+XmyiTsweXGRjv2ISBty9N/WF9lyFrlj1aYylSckhOcJGyc9du5UDtk9IKWtiyhp6nElfWFc/flSSNxsrJyd+vN6fsZXLUplscGV6U8ZxZHm3X6Y3SRzHqT03x+kQppEuLvsWQaSvH/ALfMAouJB3IPQkE7hPMAOu8WVVMh02V2Rp62UtncHm5QQkkeGkZJAAGADsPXOTGWM7GNweraOSaH43hNAsls8yyWwUkjzlCVcycJIcCQR7HcxfP02MeXTbU5TpjS1cpwpZJzjORzAJPIfLjGBv64jIp23KuPkX1TqcpxxK1AkJKeU4wQo8yj12KsfkInvFyIy/A4C4ukzFF0wpVSYSVTUjeVFnmOYkpK5UPvBC8bJC8cpwOhjgdoarjgqcktVUX0Z1eDxjLE1U9nTa+NkedurVkO652rb029SGpyRlaq1XVzc1KuTFYpaaAoTiHZOoMOtrlZUEeE+vIWpHlBA6eYpUI8RpVJWywV1d77WsnzWt7bG9XqTwFWmoPNUk9Uuj1T26o7G2poZQ6U1JLtbiG1Ztxqp25R61PW2pNv1hiSWuXU84uXfqNDm1F5YcDaQS5yIRjJV00J8J4fS0jiakG9Xu9be5emh2YcSx9pXwlGerSdrP13+PI5R0Bo94St3qe1JurUqtyFKVU2ZanTs9Q5b7dm2JhbctOrFAVKiVlHqekOggIWlSynCCnJtwrBUFjVKtOpOEU7K7s353/v++HHYqvOg40qdKDlbXLsvI9Cp16QaoNNn6bIt0lqYaK2Ka0SWEIS9/iLUvGXHiSCpZJUSTkx72lGCpx7uKjG2yPJVnN1ZZ5uTvu9y5bbrqMtMPoS14gQltwEYST91JGwypR2Mb2HrtWp1NuTNWrBbx3OWWUEoThPYEnbffGxz3x+MbTdtzGkTmBt7RjuXNYgCAEAIAQAgBACAEAIAQAgBACAEAIAQAgBACAEAIAQAgBACAEAIA//1M/iAEAIAQAgDTAJBIBI6HA2+npADv8An759fxBgBv6QBtyBv22Gd/qAO2/4RINBk5A6ZHbON/yP6xANM5232PTvkemx6/WBJtI7DbGCcnA7EnptmBBDXtsOpO6u+2dgMZirLIgKSDn/ACjoAfMTjIzn6e0RfyBLLJJJxgDfOfwI7bZGM/sVb1J5bFPdUQcDPQq8uCNjsSTjqfQRDJRTnn8FQG2Ns9TnunH9OPeKXMltilOzJGck9Qcem3fHUg+8VZNimOzPVJG+Nux7dvQRjb+JdeRT1Teds5Gd9+uf06flFb2ZZK+5L/OHptucY/7RtzYHqPwEVzalrIg/NehJAz/bbAG/WGYW5s2+OvOytzntnIxsnoDgQbJ9DVL5GUjKRkjOceuN9s7QTt6EWW/MhqdyQcAlskoPYbEewOU56RZvkVa1N/jkg/e7n0x1GCSN8YERqTYhqeVy8oyMYyR3VgEnY9j+WYgkl1PLx6DYYOQVYB9OkQwuaJNa1Eb+XGT5iNjjA9t4jYtsUabWVAgDPv1O46gZzsIrm6FootKfS4eZQGCAep6nfOSdwP8AWJvzuZGrqyOPalKKWVA/UdSTvkbbHOfQdoh1NirjpexYE9Rw4pai2Mj+rBJ5SQVZJ+6FY/T6YrKrl2GW7KUmgHmPM2BvsQjfOVFI3ICvx2h3lxKD6lZlKCnyBSMDmGABhStxjOw2z27xMarjpclxTVrF206kobITyjfBJABHYpCs+XO+/TpF4VtdzH3a5LUv6lyicpSc8uAT1HKAFADl7k7ZjLGsU7pWdzkyjyqEpbSEjqkE7FW+cdfu5zmMsal7dTDONtOR1741qaf+igeQM+BcVMWRnBUVNzQTnYKGV4GPTMcftFd4Ff8AWjf4PG+La/2v9Cyqfa9LtrQCct6WlWhMSVoyypmdKGzOOzNQl33ZxanQOYBx9xQxnHrGr3UcPgKFOK2jf37v5mTO6uLqVJ+3ma9y0S9NCxbOUXJe3/FSrwV2NRAlLpUkAIwkbkAIPp0O/wCfCxDvJX3y/qzt0tFL/qf0RzbZjbL0+Fs8ri/CmectqBIHhlPMrAO4T9IcOf8AGT52ZXFpqnqtDtMZJtyxbaewCppp9kEb4CncqH5tiPc0FelD0PJ1/wDWqPzIDTfgssHcbIOem4KVem2IzRXxMfM7BSa+ZtBJBKkp6dspBH557bRvz1NeJOxjLCAEAIAQAgBACAEAIAQAgBACAEAIAQAgBACAEAIAQAgBACAEAIAQB//Vz+IAQAgBACAEAaAYP7wP/OYA2778xT3wQP6dsZz1P6QAwMZxt2/tj6wAJxsB1x0P47DtmANuDv8Artj377bfpAk2qP3sAZ/tjfc774/foBLkenMR1JOSo7knc9oqSiApwZ83fOE7BSsewOT0ithYk3VknocEjA9PwxtFfMstimTC8kjmIyR9FbegIz1gy2hSHlHCh0AOOp+8QMdjncRjbLoo7yuUqIB29fvdSMAdhvGNstYpjmwOdyT32I33OR1JMY2XRTnCQdgfrjGc5/p994qy6+RD5TsT26ZIB2B69sRANoznO+B/f22HmB7wSG5uDZ9D0yMfexudt+pz+USNDUNHrjOcnfGx/TJ7+kWt0Iub/CKtsZUOudgNgAMJ77wSK3RF8EJAPnGB+pwBgbDzGFt9CbgS6j1Ty7dgNwPQdP7ROV8yubkQlS69zy+4TtjHUehGxicpKmiXclFEHYjf2x7YJzvkem39qNaFropb8orJPKDnbfpt2JAGMYiji+RZSViizcl18u53Ixvj/wDXqRtFXuXjMtWcpoUSeXynftgnYAnG/fpFHqzMmW29SASry5yd9v6u2d8HlxGKUU+Yt1JQ0tAzhBA8vMFAggg7YxsMxGqJ+hGakEjpjbGcJ6bg4H0Hr0P6VzW5EpFUl2Eox5TlPQH1O+w6E494tFshx18yvSbaUYJO/ck7nB367nbb6Rli7ENXL+pM00lScABOwBPXA79SMjaM0Z2NedN6rn9/f3rwjxlSdZq2gtZVbdLma9U6XVKVWVUSQCVVKqSEg4tyqytLQpTYmKqmQLjkszzAvvtpaBBWCMPEaP5vDd0mk218TLw+rHDYuM6nsbPyvz9C25pLL+n9WS4taWKhbFJYBLRQsc7WchtwIKHkoWPKoDlOxjWxMb4eEW7aL9CabtWm1vdnBtm1GWel7YZYlXU+JZsshE05MKdPgy7oabC2fDSz4quTKuXGT6YjzuMhGEZytqlbfzZ3MO5SzXl/NfbyR2HtBz5BTbgCHCpl9KUqQlCf/b58hKdiPKeuYjhujTRGK8Saudm6NNmf08pb7hKVpm5lteUJaCQ0791CEgJDYzt0GN49xhHelFvex5XFWVWaW2gR5pArOFcrJVv22yD7dY2svglYwZvFE5spBzJyy1HKly7ClHfGS2knr03xG075Y9TEt30KvGMsIAQAgBACAEAIAQAgBACAEAIAQAgBACAEAIAQAgBACAEAIAQAgBAH/9bP4gBACAEAIAQAgDTPT6+n1zAGh6YA79PTvj0iQaEZOewHfp+WNogAjpgd9x67jt0zmANhzkcu2c7bdznp1BOIEkIpzjbYE7df0zvsPziGQiWdbbUpJ5QVIVzJVndORjbGMAg4I7xVosiTdRlRJx3CQQB645Ujr/tEFymuIJBGOh6/7Zz6/vtUkpr7Hl7ncYxj7xHvvtiKNFk7a8ykvsHZIHMQOXOQDkHOSRuYo0Tcpzktg8quXmUMpSMcysbkjf8Ap7xjcWmXTJZcjzKSvCh126Z6ZJ23x29IZH0JzNaff39+r5LmOAAFH26ZG25/qESoEZyKZLtjYYJyDknrv+PWDgFLqRkyPNtj2CTt26DbbAicpDlYmBT+6U4KRjoMdNwd+2/cRKiVb8yKKcoJ5gjJzy8o9cZJwMgDr1i6iiMxGFPOxUB77fln0+sTlGZkRNNKhkcuw2wnOU+pVj/WGVPkM1jcadkDlB6HJwMe+/qfr9YOJW9yVXTs9vKE9xjr6AjP4+sRkXUlTsU56nD/ACk47dcYwQNhtvEOHQuprmUZ+lE5yMqOR91PN+BH1jDKG+hdSXUtybpuAocoBzvsD129YwSg0ZYyLcmackA+XG2SMY39jsB+MY3GxsKV1qUZcoE56egxtg53Oc5JxGOSMm+2xBEqNxyjKs5x0/8A5z9Ip6jYihkg9APTI3Jxv9Dk/j6QWmpbcmGwQNt9tie/fptFrtEWKnLOKaVnO2BgYI83Un0UBnpF82/QrJJo33F/8zoU3KPha0LQk8iF+Es8o3DbnMktvYPlORhQG/eLqRryjld+hxd8jNVu06g4wyVMssKLgmm1yyyzKTafHHIpIX46kNnr94jGcRerQTjCMtbmKNVqUnHdHRNscTlCuaelbM0a0nvyzZA1WWtqYHEBJ2Hc7VGM61NSbNeoV0WK/Kyc00mZLZ8GdfbVyE5SkpEcnEcBniZSb4moRbvaVN25/wA0W2/gjo0eLKjBf/x9Scrayi4u722bjb4s7AWGxxI3LUW5K+bX0Y0UoC5ZRFTkdXHdZL1dm1FtJp8laVHs60qIz48qtwpmV1OZ5FpSPlnAo438FwHD4Zwc8W61uUIOK98pO690deqNavxapUjJU8JOD6zcdvSLfu1R35laJPyNhUOnyE1U5qm0CUDU5VK2w3LVeqnCUonpiWQxLJbW4rzq/wANtIGEhOOnahBRm/BljyXJHJqScryvmk3d2N7TbjMgppbvOoowFkABXPhQJGTyg5i13llKxRe0jmakqzLsJxkJaaG56kNJBAGM9to2n7JRPUuGMBkEAIAQAgBACAEAIAQAgBACAEAIAQAgBACAEAIAQAgBACAEAIAQAgD/18/iAEAIAQAgBACANCP3+X+0AafoOhwPoAR9IkA4/v7D8fygSa+pG56f8RBBtUPQb5P4wBsUO5+6OwG/pgkYJyRAkgKRtnAzjO+AQDjYYwBsIhq6C5kAtgnG2Mgn2A3wO5MVaJuS6pdOCrAwkY64yfr9B++1UicxIuS2RnGR6YPXrj0wYWui1yVXKgYJBJxtsCB2BONt4rlJuSzlPQVBRQCrlUBgDIBO+/QfhEZb6hStubPkACAUZ5u+O4zuewiemgzdDein4Ocbj6DB6dOuT+cQ49BciJpw3UR97b7u2w2ODv0PeJSXvIuRWqfkFS0coTkHYAkjoQB2IH9oskVuupNJkknIKQEpO47epJwSe0RYm+hFTJ5CiQEJ5sAAcoxgY98xa1+RFyMJJBABHKBnmP1GOw3i1tCtzf8AJITgAbEbI2zjHc4wTtEW8ibmipROMBJBOc7DOdsADYADtC24zMgOSiQMkbAbYxsOickdz+/atkuQvfQklyiSfKkZxuVeh22wMbY6wsvcWRSpqSbSsI/qOdsEnYjpjJGfwzFZR8iVL4FuTVPSeYFBIGPKkEDOc42/3jXlHW1jNB9C2JuQJ5vIBjcp7A574P3j+Ma8o23M8ZbFtzFPAJyCeoGNiQT0A2+n0jFJeRnjKxJLp3NkcpTkjBScKCknIxjYH1ijRfOQPkSnOcqxkcx6nbucAHeI2F7EP5ZQIwPu5ySPY7AY7e0LItmRFbaIB65KgN9xtuc9+kSkysmiNNjMsUkbcuMnuRnA7gZMS0Y35FxU6mofpCpJtJU5U6a8yFkBXKtxpRG2MDCkjrG5Sp+CL5mhUn/ElpzJiTtOUfDLa6LQZv8A9AzLPqq8ozM7soDAAQZZxR2ScnIxvG9hoSSk0+ZhrShdKzv5F7W/bjNGQ1LyNPt+lSzOyWqNSmZZKU9BykIQUk9++I2ssne8jWvFvRFdrzanqS9KkKS3MKAc5VEKUhKOYe5yob594x1FazMkW7eZx+6EeEllO5HhpyOuxSP/ABGBySjbzLrWV2cvUVJcZbJJw2BvtuopAyrG/N9I3G7IwpFzRgMogBACAEAIAQAgBACAEAIAQAgBACAEAIAQAgBACAEAIAQAgBACAEAf/9DP4gBACAEAIAQAgBAD9iANMD+239oAfp6f39OkAO3+v4fTH9okG3A6bnqNxn8OmIgk2lGRjOM9x1Hp7DEAbA2QkZOSMk4GB1yPc4/WIsOptU0DttjO+3v6A+sEhs9CGWOXAwDsRj8sEk5z7xGUXNAyDuR23GMZ+npCwv03IBlisgDHIfQf+DkH16xFvgTfQiiVSnonJxnJ3xk9+sLeQ95qmVxn1IUBj+nfJ65xkf3hYXIgl0p2I5s4yD+G537RbKkR7yKGUlOMDv0GN/fpCyHM2pYT2HfruM+n4YhZdBc3lpJIzg+gO4/LJ7RJAS3gq9PLyg+3uMGGgRryJ6kHKts9x/tt1gDQoGSR17nY42P4DEAQiyFewzuMbK9RvvgYiLXBD+XG4HT1A7fXO0RYXKc/JBTniJykjAUkYIUkHIByCdj3zFWWvYpM1JAjATjB3AAG5PoIxyjcupW2Zbs3TyoEAYAzk9MAHO56kmME4XM0Zc+Zb79MIUcDsMkJGR1Bx3zGF07bmVVCmrkOUKODgE+XG5yTvjpGJxtyMiaJdUgNspJHX6d84xiKOPQtmRC+yubm8owebsR09M7/AO+YZeZOYCjOKwUoyBk9PpnbfG3pF4xuUlLoyBP0V8M+RA5sYUQDsOhCRtCVN7oKoveXPbzSpaRpuU4daASs4I3ClpHXG/L+/XZgpKCvvY1p5XOTXNkwmfQ1WVSjvkAb8Tcb4U+8e/UkD02jeo1FGmrmtUpuUtEcmUxuUfTzJWlZKU5SFDy7kjbOVKzGVVovZ6lHSceTJS5ZZIlkBAI5ioZA6FKdumMDH79azldaloRWpxYtnkcA3++DnYHZQxnbH+0ajvePqWtZO3Q5ht9ChJIUQACPKkY2z+pH13joTeiRhjzLgjEXEAIAQAgBACAEAIAQAgBACAEAIAQAgBACAEAIAQAgBACAEAIAQAgD/9HP4gBACAEAIAQAgBACAEAP0gBAGmIAe8Aa/h/xACANvLkb9emev+0Aa8o779/3j6wAx7/27/hADA3OO2PqMk46QBr+cAIA0GOw/TH/ADAGsAPpACAEAIA05Rvt16+/7EAMD9/l29oA05E+gx+/xGIAgOS6VjYb9M4BwTtn2xFcpJILpiCkjABzjmO+R69NySYrkuWzFOeo6SSAk9euN/XJ2G0UdO5KmUl+hKVzHlyDuAQNtuowM5jE6Sd7GRVLcyju0V1tOwJxhJGOdWck+3b1/wDON0WZI1E+epARIrbyFJOAcZIwDjrjOAcYjG6TXLQupp31KzJSsuogKAByOnfJ33KdwAfziVG2yKtlUmKe2lrmDSVBWU4IGSNtxkAD9YvqvQrpZ2epQkMATC0FotpSUYTgHqo5Ix2JGfpGWKvFWMMtCalrXlajPTdQWcLSflMjYgtFThHT/wD2jJ9YyuneCSKxnZ3NZmzptB8SQqDrLgHlKFEEHr3IB3jVnhqi9h6mwq8WrSRtbbrEtLTMvXplU0lPIqVmG2ceGBzh0OlIBVkFOMZisJ1aalGu2+jsTJQnZ04peVyjOU4vLZLKw6lbyEpUgg5UVYwfLsQOoOI2I+PLld1dGCaaumrM5TkZf5WVaZP3kpHNuD5sb4wAMRuSd35GFKyJuKkiAEAIAQAgBACAEAIAQAgBACAEAIAQAgBACAEAIAQAgBACAEAIAQB//9LP4gBACAEAIAQAgBACAEAIAQAgBADp+/WAEAIAQAgBACAEAIAQAgBACAEAIAQAgBACAEAaYG4x16+8LLoDZ4Lf+RPfsO/+sRZE3JVynyrowpsY9vcYO/WIyp8gpNFPXQ28lTLhbV2JGcE+/UdYxukuW5dVHpcgOytSlwORsTjaR91LgS5uckgLISSANoxSpTWq1MinB7uxBblXpub5kyczKtpaQFuTSWkf4nMSfCShxa1gD6DJjNSirO8WjFU3VpJl0NtoaSEISEjJJ6ZKjuVH1UT1jKUN8AaEBQIUAoHqCAQfqDtCye4IDcpKsqUtqXZbWs5UpDaEqJ9SQkGKxhGN8sUiXKT3bZMRYgQAgBACAEAIAQAgBACAEAIAQAgBACAEAIAQAgBACAEAIAQAgBACAEAf/9PP4gBACAEAIAQAgBACAEAIAQAgBACAEAIAQAgBACAEAIAQAgBACAEAIAQAgBACAEAIAQAgBACAEAIAQAgBACAEAIAQAgBACAEAIAQAgBACAEAIAQAgBACAEAIAQAgBACAEAIAQAgBAH//Uz+IAQAgBACAEAIAQAgBACAEAIAQAgBACAEAIAQAgBACAEAIAQAgBACAEAIAQAgBACAEAIAQAgBACAEAIAQAgBACAEAIAQAgBACAEAIAQAgBACAEAIAQAgBACAEAIAQAgBACAEAIAQB//1c/iAEAIAQAgBACAEAIAQAgBACAEAIAQAgBACAEAIAQAgBACAEAIAQAgBACAEAIAQAgBACAEAIAQAgBACAEAIAQAgBACAEAIAQAgBACAEAIAQAgBACAEAIAQAgBACAEAIAQAgBACAEAf/9bP4gBACAEAIAQAgBACAEAIAQAgBACAEAIAQAgBACAEAIAQAgBACAEAIAQAgBACAEAIAQAgBACAEAIAQAgBACAEAIAQAgBACAEAIAQAgBACAEAIAQAgBACAEAIAQAgBACAEAIAQAgBAH//Xz+IAQAgBACAEAIAQAgBACAEAIAQAgBACAEAIAQAgBACAEAIAQAgBACAEAIAQAgBACAEAIAQAgBACAEAIAQAgBACAEAIAQAgBACAEAIAQAgBACAEAIAQAgBACAEAIAQAgBACAEAIAQB//0M/iAEAIAQAgBACAEAIAQAgBACAEAIAQAgBACAEAIAQAgBACAEAIAQAgBACAEAIAQAgBACAEAIAQAgBACAEAIAQAgBACAEAIAQAgBACAEAIAQAgBACAEAIAQAgBACAEAIAQAgBACAEAf/9HP4gBACAEAIAQAgBACAEAIAQAgBACAEAIAQAgBACAEAIAQAgBACAEAIAQAgBACAEAIAQAgBACAEAIAQAgBACAEAIAQAgBACAEAIAQAgBACAEAIAQAgBACAEAIAQAgBACAEAIAQAgBAH//Sz+IAQAgBACAEAIAQAgBACAEAIAQAgBACAEAIAQAgBACAEAIAQAgBACAEAIAQAgBACAEAIAQAgBACAEAIAQAgBACAEAIAQAgBACAEAIAQAgBACAEAIAQAgBACAEAIAQAgBACAEAIAQB//08/iAEAIAQAgBACAEAIAQAgBACAEAIAQAgBACAEAIAQAgBACAEAIAQAgBACAEAIAQAgBACAEAIAQAgBACAEAIAQAgBACAEAIAQAgBACAEAIAQAgBACAEAIAQAgBACAEAIAQAgBACAEAf/9TP4gBACAEAIAQAgBACAEAIAQAgBACAEAIAQAgBACAEAIAQAgBACAEAIAQAgBACAEAIAQAgBACAEAIAQAgBACAEAIAQAgBACAEAIAQAgBACAEAIAQAgBACAEAIAQAgBACAEAIAQAgBAH//Vz+IAQAgBACAEAIAQAgBACAEAIAQAgBACAEAIAQAgBACAEAIAQAgBACAEAIAQAgBACAEAIAQAgBACAEAIAQAgBACAEAIAQAgBACAEAIAQAgBACAEAIAQAgBACAEAIAQAgBACAEAIAQB//1s/iAEAIAQAgBACAEAIAQAgBACAEAIAQAgBACAEAIAQAgBACAEAIAQAgBACAEAIAQAgBACAEAIAQAgBACAEAIAQAgBACAEAIAQAgBACAEAIAQAgBACAEAIAQAgBACAEAIAQAgBACAEAf/9fP4gBACAEAIAQAgBACAEAIAQAgBACAEAIAQAgBACAEAIAQAgBACAEAIAQAgBACAEAIAQAgBACAEAIAQAgBACAEAIAQAgBACAEAIAQAgBACAEAIAQAgBACAEAIAQAgBACAEAIAQAgBAH//Qz+IAQAgBACAEAIAQAgBACAEAIAQAgBACAEAIAQAgBACAEAIAQAgBACAEAIAQAgBACAEAIAQAgBACAEAIAQAgBACAEAIAQAgBACAEAIAQAgBACAEAIAQAgBACAEAIAQAgBACAEAIAQB//2Q==;" vertex="1" parent="WIyWlLk6GJQsqaUBKTNV-1">
          <mxGeometry x="689.75" y="392.75" width="82.5" height="82.5" as="geometry" />
        </mxCell>
        <mxCell id="9B6KL8iLZ4w8J-WxFcGn-3" value="" style="rounded=1;whiteSpace=wrap;html=1;" vertex="1" parent="WIyWlLk6GJQsqaUBKTNV-1">
          <mxGeometry x="20" y="258" width="120" height="60" as="geometry" />
        </mxCell>
        <mxCell id="9B6KL8iLZ4w8J-WxFcGn-4" value="X, Y, Z&lt;br&gt;Accelerations" style="text;html=1;strokeColor=none;fillColor=none;align=center;verticalAlign=middle;whiteSpace=wrap;rounded=0;" vertex="1" parent="WIyWlLk6GJQsqaUBKTNV-1">
          <mxGeometry x="50" y="275" width="60" height="27.5" as="geometry" />
        </mxCell>
        <mxCell id="9B6KL8iLZ4w8J-WxFcGn-5" value="" style="endArrow=classic;html=1;rounded=0;entryX=0.5;entryY=0;entryDx=0;entryDy=0;exitX=0.5;exitY=1;exitDx=0;exitDy=0;" edge="1" parent="WIyWlLk6GJQsqaUBKTNV-1" source="9B6KL8iLZ4w8J-WxFcGn-3" target="9B6KL8iLZ4w8J-WxFcGn-7">
          <mxGeometry relative="1" as="geometry">
            <mxPoint x="160" y="404.5" as="sourcePoint" />
            <mxPoint x="260" y="404.5" as="targetPoint" />
            <Array as="points">
              <mxPoint x="80" y="403" />
            </Array>
          </mxGeometry>
        </mxCell>
        <mxCell id="9B6KL8iLZ4w8J-WxFcGn-122" value="" style="edgeStyle=orthogonalEdgeStyle;rounded=0;orthogonalLoop=1;jettySize=auto;html=1;" edge="1" parent="WIyWlLk6GJQsqaUBKTNV-1" source="9B6KL8iLZ4w8J-WxFcGn-7" target="9B6KL8iLZ4w8J-WxFcGn-120">
          <mxGeometry relative="1" as="geometry" />
        </mxCell>
        <mxCell id="9B6KL8iLZ4w8J-WxFcGn-7" value="" style="rounded=1;whiteSpace=wrap;html=1;" vertex="1" parent="WIyWlLk6GJQsqaUBKTNV-1">
          <mxGeometry x="20" y="402.75" width="120" height="60" as="geometry" />
        </mxCell>
        <mxCell id="9B6KL8iLZ4w8J-WxFcGn-10" value="Thrusts" style="text;html=1;strokeColor=none;fillColor=none;align=center;verticalAlign=middle;whiteSpace=wrap;rounded=0;" vertex="1" parent="WIyWlLk6GJQsqaUBKTNV-1">
          <mxGeometry x="50" y="418.5" width="60" height="30" as="geometry" />
        </mxCell>
        <mxCell id="9B6KL8iLZ4w8J-WxFcGn-120" value="Collision Cone&lt;br&gt;CBF" style="ellipse;whiteSpace=wrap;html=1;align=center;newEdgeStyle={&quot;edgeStyle&quot;:&quot;entityRelationEdgeStyle&quot;,&quot;startArrow&quot;:&quot;none&quot;,&quot;endArrow&quot;:&quot;none&quot;,&quot;segment&quot;:10,&quot;curved&quot;:1,&quot;sourcePerimeterSpacing&quot;:0,&quot;targetPerimeterSpacing&quot;:0};treeFolding=1;treeMoving=1;" vertex="1" parent="WIyWlLk6GJQsqaUBKTNV-1">
          <mxGeometry x="192" y="402.5" width="120" height="60" as="geometry" />
        </mxCell>
        <mxCell id="9B6KL8iLZ4w8J-WxFcGn-124" value="" style="edgeStyle=orthogonalEdgeStyle;rounded=0;orthogonalLoop=1;jettySize=auto;html=1;entryX=1;entryY=0.5;entryDx=0;entryDy=0;" edge="1" parent="WIyWlLk6GJQsqaUBKTNV-1" source="9B6KL8iLZ4w8J-WxFcGn-123" target="9B6KL8iLZ4w8J-WxFcGn-3">
          <mxGeometry relative="1" as="geometry">
            <mxPoint x="100" y="458" as="targetPoint" />
          </mxGeometry>
        </mxCell>
        <mxCell id="9B6KL8iLZ4w8J-WxFcGn-123" value="" style="rounded=1;whiteSpace=wrap;html=1;" vertex="1" parent="WIyWlLk6GJQsqaUBKTNV-1">
          <mxGeometry x="211" y="258" width="120" height="60" as="geometry" />
        </mxCell>
        <mxCell id="9B6KL8iLZ4w8J-WxFcGn-125" value="PD &lt;br&gt;Control" style="text;html=1;align=center;verticalAlign=middle;resizable=0;points=[];autosize=1;strokeColor=none;fillColor=none;" vertex="1" parent="WIyWlLk6GJQsqaUBKTNV-1">
          <mxGeometry x="241" y="268" width="60" height="40" as="geometry" />
        </mxCell>
        <mxCell id="9B6KL8iLZ4w8J-WxFcGn-134" value="" style="edgeStyle=orthogonalEdgeStyle;rounded=0;orthogonalLoop=1;jettySize=auto;html=1;entryX=0;entryY=0.5;entryDx=0;entryDy=0;" edge="1" parent="WIyWlLk6GJQsqaUBKTNV-1" source="9B6KL8iLZ4w8J-WxFcGn-120" target="9B6KL8iLZ4w8J-WxFcGn-135">
          <mxGeometry relative="1" as="geometry">
            <mxPoint x="338" y="432.5" as="targetPoint" />
          </mxGeometry>
        </mxCell>
        <mxCell id="9B6KL8iLZ4w8J-WxFcGn-142" value="" style="edgeStyle=orthogonalEdgeStyle;rounded=0;orthogonalLoop=1;jettySize=auto;html=1;entryX=0;entryY=0.5;entryDx=0;entryDy=0;" edge="1" parent="WIyWlLk6GJQsqaUBKTNV-1" source="9B6KL8iLZ4w8J-WxFcGn-135" target="9B6KL8iLZ4w8J-WxFcGn-140">
          <mxGeometry relative="1" as="geometry">
            <Array as="points" />
          </mxGeometry>
        </mxCell>
        <mxCell id="9B6KL8iLZ4w8J-WxFcGn-135" value="" style="rounded=1;whiteSpace=wrap;html=1;" vertex="1" parent="WIyWlLk6GJQsqaUBKTNV-1">
          <mxGeometry x="348" y="402.5" width="120" height="60" as="geometry" />
        </mxCell>
        <mxCell id="9B6KL8iLZ4w8J-WxFcGn-136" value="Safe Thrusts" style="text;html=1;strokeColor=none;fillColor=none;align=center;verticalAlign=middle;whiteSpace=wrap;rounded=0;" vertex="1" parent="WIyWlLk6GJQsqaUBKTNV-1">
          <mxGeometry x="378" y="418.75" width="60" height="30" as="geometry" />
        </mxCell>
        <mxCell id="9B6KL8iLZ4w8J-WxFcGn-143" value="" style="edgeStyle=orthogonalEdgeStyle;rounded=0;orthogonalLoop=1;jettySize=auto;html=1;entryX=0;entryY=0.5;entryDx=0;entryDy=0;" edge="1" parent="WIyWlLk6GJQsqaUBKTNV-1" source="9B6KL8iLZ4w8J-WxFcGn-140" target="9B6KL8iLZ4w8J-WxFcGn-1">
          <mxGeometry relative="1" as="geometry">
            <mxPoint x="650" y="431" as="targetPoint" />
          </mxGeometry>
        </mxCell>
        <mxCell id="9B6KL8iLZ4w8J-WxFcGn-140" value="" style="rounded=1;whiteSpace=wrap;html=1;" vertex="1" parent="WIyWlLk6GJQsqaUBKTNV-1">
          <mxGeometry x="501" y="402" width="120" height="60" as="geometry" />
        </mxCell>
        <mxCell id="9B6KL8iLZ4w8J-WxFcGn-141" value="Safe &lt;br&gt;X, Y, Z&lt;br&gt;Accelerations" style="text;html=1;strokeColor=none;fillColor=none;align=center;verticalAlign=middle;whiteSpace=wrap;rounded=0;" vertex="1" parent="WIyWlLk6GJQsqaUBKTNV-1">
          <mxGeometry x="531" y="419" width="60" height="27.5" as="geometry" />
        </mxCell>
        <mxCell id="9B6KL8iLZ4w8J-WxFcGn-145" value="" style="edgeStyle=orthogonalEdgeStyle;rounded=0;orthogonalLoop=1;jettySize=auto;html=1;strokeWidth=2;" edge="1" parent="WIyWlLk6GJQsqaUBKTNV-1" source="9B6KL8iLZ4w8J-WxFcGn-144">
          <mxGeometry relative="1" as="geometry">
            <mxPoint x="330" y="290" as="targetPoint" />
          </mxGeometry>
        </mxCell>
        <mxCell id="9B6KL8iLZ4w8J-WxFcGn-146" style="edgeStyle=orthogonalEdgeStyle;rounded=0;orthogonalLoop=1;jettySize=auto;html=1;exitX=0.5;exitY=0;exitDx=0;exitDy=0;" edge="1" parent="WIyWlLk6GJQsqaUBKTNV-1" source="9B6KL8iLZ4w8J-WxFcGn-1">
          <mxGeometry relative="1" as="geometry">
            <mxPoint x="570" y="340" as="targetPoint" />
            <Array as="points">
              <mxPoint x="731" y="340" />
            </Array>
          </mxGeometry>
        </mxCell>
        <mxCell id="9B6KL8iLZ4w8J-WxFcGn-144" value="" style="strokeWidth=2;html=1;shape=mxgraph.flowchart.annotation_2;align=left;labelPosition=right;pointerEvents=1;" vertex="1" parent="WIyWlLk6GJQsqaUBKTNV-1">
          <mxGeometry x="400" y="239.75" width="50" height="100" as="geometry" />
        </mxCell>
        <mxCell id="9B6KL8iLZ4w8J-WxFcGn-147" value="States" style="rounded=1;whiteSpace=wrap;html=1;" vertex="1" parent="WIyWlLk6GJQsqaUBKTNV-1">
          <mxGeometry x="450" y="309" width="120" height="60" as="geometry" />
        </mxCell>
        <mxCell id="9B6KL8iLZ4w8J-WxFcGn-148" value="Reference&amp;nbsp;&lt;br&gt;Trajectory" style="rounded=1;whiteSpace=wrap;html=1;" vertex="1" parent="WIyWlLk6GJQsqaUBKTNV-1">
          <mxGeometry x="450" y="209" width="120" height="60" as="geometry" />
        </mxCell>
      </root>
    </mxGraphModel>
  </diagram>
</mxfile>
